<mxfile host="65bd71144e">
    <diagram name="04-readreceipt-seq" id="pEabx5JvrjrVklC5MNHl">
        <mxGraphModel dx="1777" dy="2936" grid="1" gridSize="10" guides="1" tooltips="1" connect="1" arrows="1" fold="1" page="1" pageScale="1" pageWidth="827" pageHeight="1169" background="#ffffff" math="0" shadow="0">
            <root>
                <mxCell id="EQnTpLThECwJIja0AJ52-0"/>
                <mxCell id="EQnTpLThECwJIja0AJ52-1" style="" parent="EQnTpLThECwJIja0AJ52-0"/>
                <mxCell id="1" value="&lt;span style=&quot;color: rgb(0, 0, 0);&quot;&gt;Digtial Mailbox - Notify Read Receipt&lt;/span&gt;" style="rounded=1;whiteSpace=wrap;html=1;fillColor=#e6e6e6;verticalAlign=top;fontSize=20;fontStyle=1" vertex="1" parent="EQnTpLThECwJIja0AJ52-1">
                    <mxGeometry x="40" y="-1120" width="740" height="270" as="geometry"/>
                </mxCell>
                <UserObject label="" mermaidData="{&#10;  &quot;data&quot;: &quot;%%{init: {'theme': 'forest', 'themeVariables': { 'primaryColor': '#ffcccc', 'edgeLabelBackground':'#ffffee', 'tertiaryColor': '#fff0f0'}}}%%\nsequenceDiagram\nautonumber\n        participant MGV_CUST as myGov Customer\n        participant MGV_IB_WEB as Inbox Portal\n        participant MGV_IB_APP as myGov Inbox Application\n        participant MGV_IB_API as myGov Inbox API\n        participant MGV_RP_ATT_STR as Relying Party Attachment Store\n\n        MGV_CUST -&gt;&gt; MGV_IB_WEB : readMessage(messageId): message\n        MGV_IB_WEB -&gt;&gt; MGV_IB_APP : readMessage(messageId): message\n        MGV_IB_APP -&gt;&gt; MGV_IB_API : notifyReadReceipt(myGovId,&lt;br&gt;messageId) : status\n        MGV_IB_API -&gt;&gt; MGV_RP_ATT_STR : notifyReadReceipt(mbun,&lt;br&gt;messageId) : status\n&quot;,&#10;  &quot;config&quot;: {&#10;    &quot;startOnLoad&quot;: false,&#10;    &quot;themeCSS&quot;: &quot;&quot;,&#10;    &quot;theme&quot;: &quot;neutral&quot;,&#10;    &quot;arrowMarkerAbsolute&quot;: false,&#10;    &quot;flowchart&quot;: {&#10;      &quot;diagramPadding&quot;: 8,&#10;      &quot;htmlLabels&quot;: false,&#10;      &quot;nodeSpacing&quot;: 50,&#10;      &quot;rankSpacing&quot;: 50,&#10;      &quot;curve&quot;: &quot;linear&quot;,&#10;      &quot;padding&quot;: 15,&#10;      &quot;useMaxWidth&quot;: true&#10;    },&#10;    &quot;sequence&quot;: {&#10;      &quot;activationWidth&quot;: 10,&#10;      &quot;diagramMarginX&quot;: 50,&#10;      &quot;diagramMarginY&quot;: 10,&#10;      &quot;actorMargin&quot;: 50,&#10;      &quot;width&quot;: 150,&#10;      &quot;height&quot;: 65,&#10;      &quot;boxMargin&quot;: 10,&#10;      &quot;boxTextMargin&quot;: 5,&#10;      &quot;noteMargin&quot;: 10,&#10;      &quot;messageMargin&quot;: 35,&#10;      &quot;messageAlign&quot;: &quot;center&quot;,&#10;      &quot;mirrorActors&quot;: true,&#10;      &quot;bottomMarginAdj&quot;: 1,&#10;      &quot;useMaxWidth&quot;: true,&#10;      &quot;rightAngles&quot;: false,&#10;      &quot;showSequenceNumbers&quot;: false,&#10;      &quot;actorFontSize&quot;: 14,&#10;      &quot;actorFontFamily&quot;: &quot;\&quot;Open-Sans\&quot;, \&quot;sans-serif\&quot;&quot;,&#10;      &quot;actorFontWeight&quot;: 400,&#10;      &quot;noteFontSize&quot;: 14,&#10;      &quot;noteFontFamily&quot;: &quot;\&quot;trebuchet ms\&quot;, verdana, arial&quot;,&#10;      &quot;noteFontWeight&quot;: 400,&#10;      &quot;noteAlign&quot;: &quot;center&quot;,&#10;      &quot;messageFontSize&quot;: 16,&#10;      &quot;messageFontFamily&quot;: &quot;\&quot;trebuchet ms\&quot;, verdana, arial&quot;,&#10;      &quot;messageFontWeight&quot;: 400,&#10;      &quot;wrap&quot;: false,&#10;      &quot;wrapPadding&quot;: 10,&#10;      &quot;labelBoxWidth&quot;: 50,&#10;      &quot;labelBoxHeight&quot;: 20&#10;    },&#10;    &quot;gantt&quot;: {&#10;      &quot;titleTopMargin&quot;: 25,&#10;      &quot;barHeight&quot;: 20,&#10;      &quot;barGap&quot;: 4,&#10;      &quot;topPadding&quot;: 50,&#10;      &quot;leftPadding&quot;: 75,&#10;      &quot;gridLineStartPadding&quot;: 35,&#10;      &quot;fontSize&quot;: 11,&#10;      &quot;fontFamily&quot;: &quot;\&quot;Open-Sans\&quot;, \&quot;sans-serif\&quot;&quot;,&#10;      &quot;numberSectionStyles&quot;: 4,&#10;      &quot;axisFormat&quot;: &quot;%Y-%m-%d&quot;,&#10;      &quot;useMaxWidth&quot;: true&#10;    },&#10;    &quot;journey&quot;: {&#10;      &quot;diagramMarginX&quot;: 50,&#10;      &quot;diagramMarginY&quot;: 10,&#10;      &quot;actorMargin&quot;: 50,&#10;      &quot;width&quot;: 150,&#10;      &quot;height&quot;: 65,&#10;      &quot;boxMargin&quot;: 10,&#10;      &quot;boxTextMargin&quot;: 5,&#10;      &quot;noteMargin&quot;: 10,&#10;      &quot;messageMargin&quot;: 35,&#10;      &quot;messageAlign&quot;: &quot;center&quot;,&#10;      &quot;bottomMarginAdj&quot;: 1,&#10;      &quot;useMaxWidth&quot;: true,&#10;      &quot;rightAngles&quot;: false&#10;    },&#10;    &quot;class&quot;: {&#10;      &quot;arrowMarkerAbsolute&quot;: false,&#10;      &quot;useMaxWidth&quot;: true&#10;    },&#10;    &quot;git&quot;: {&#10;      &quot;arrowMarkerAbsolute&quot;: false,&#10;      &quot;useMaxWidth&quot;: true&#10;    },&#10;    &quot;state&quot;: {&#10;      &quot;dividerMargin&quot;: 10,&#10;      &quot;sizeUnit&quot;: 5,&#10;      &quot;padding&quot;: 8,&#10;      &quot;textHeight&quot;: 10,&#10;      &quot;titleShift&quot;: -15,&#10;      &quot;noteMargin&quot;: 10,&#10;      &quot;forkWidth&quot;: 70,&#10;      &quot;forkHeight&quot;: 7,&#10;      &quot;miniPadding&quot;: 2,&#10;      &quot;fontSizeFactor&quot;: 5.02,&#10;      &quot;fontSize&quot;: 24,&#10;      &quot;labelHeight&quot;: 16,&#10;      &quot;edgeLengthFactor&quot;: &quot;20&quot;,&#10;      &quot;compositTitleSize&quot;: 35,&#10;      &quot;radius&quot;: 5&#10;    },&#10;    &quot;er&quot;: {&#10;      &quot;diagramPadding&quot;: 20,&#10;      &quot;layoutDirection&quot;: &quot;TB&quot;,&#10;      &quot;minEntityWidth&quot;: 100,&#10;      &quot;minEntityHeight&quot;: 75,&#10;      &quot;entityPadding&quot;: 15,&#10;      &quot;stroke&quot;: &quot;grey&quot;,&#10;      &quot;fill&quot;: &quot;honeydew&quot;,&#10;      &quot;fontSize&quot;: 12,&#10;      &quot;useMaxWidth&quot;: true&#10;    },&#10;    &quot;pie&quot;: {&#10;      &quot;useMaxWidth&quot;: true&#10;    }&#10;  }&#10;}" id="0">
                    <mxCell style="shape=image;noLabel=1;verticalAlign=top;imageAspect=1;image=data:image/svg+xml,PHN2ZyBhcmlhLWxhYmVsbGVkYnk9ImNoYXJ0LXRpdGxlLWdlTWVybWFpZE91dHB1dC0xNzI0ODc2MTA2MDc2IGNoYXJ0LWRlc2MtZ2VNZXJtYWlkT3V0cHV0LTE3MjQ4NzYxMDYwNzYiIHJvbGU9ImltZyIgdmlld0JveD0iLTUwIC0xMCAxNDYxIDM5Ni41IiBzdHlsZT0ibWF4LXdpZHRoOiAxNDYxcHg7IiBoZWlnaHQ9IjM5Ni41IiB4bWxucz0iaHR0cDovL3d3dy53My5vcmcvMjAwMC9zdmciIHdpZHRoPSIxMDAlIiBpZD0iZ2VNZXJtYWlkT3V0cHV0LTE3MjQ4NzYxMDYwNzYiPjx0aXRsZSBpZD0iY2hhcnQtdGl0bGUtZ2VNZXJtYWlkT3V0cHV0LTE3MjQ4NzYxMDYwNzYiPjwvdGl0bGU+PGRlc2MgaWQ9ImNoYXJ0LWRlc2MtZ2VNZXJtYWlkT3V0cHV0LTE3MjQ4NzYxMDYwNzYiPjwvZGVzYz48c3R5bGU+I2dlTWVybWFpZE91dHB1dC0xNzI0ODc2MTA2MDc2IHtmb250LWZhbWlseToidHJlYnVjaGV0IG1zIix2ZXJkYW5hLGFyaWFsLHNhbnMtc2VyaWY7Zm9udC1zaXplOjE2cHg7ZmlsbDojMDAwMDAwO30jZ2VNZXJtYWlkT3V0cHV0LTE3MjQ4NzYxMDYwNzYgLmVycm9yLWljb257ZmlsbDojNTUyMjIyO30jZ2VNZXJtYWlkT3V0cHV0LTE3MjQ4NzYxMDYwNzYgLmVycm9yLXRleHR7ZmlsbDojNTUyMjIyO3N0cm9rZTojNTUyMjIyO30jZ2VNZXJtYWlkT3V0cHV0LTE3MjQ4NzYxMDYwNzYgLmVkZ2UtdGhpY2tuZXNzLW5vcm1hbHtzdHJva2Utd2lkdGg6MnB4O30jZ2VNZXJtYWlkT3V0cHV0LTE3MjQ4NzYxMDYwNzYgLmVkZ2UtdGhpY2tuZXNzLXRoaWNre3N0cm9rZS13aWR0aDozLjVweDt9I2dlTWVybWFpZE91dHB1dC0xNzI0ODc2MTA2MDc2IC5lZGdlLXBhdHRlcm4tc29saWR7c3Ryb2tlLWRhc2hhcnJheTowO30jZ2VNZXJtYWlkT3V0cHV0LTE3MjQ4NzYxMDYwNzYgLmVkZ2UtcGF0dGVybi1kYXNoZWR7c3Ryb2tlLWRhc2hhcnJheTozO30jZ2VNZXJtYWlkT3V0cHV0LTE3MjQ4NzYxMDYwNzYgLmVkZ2UtcGF0dGVybi1kb3R0ZWR7c3Ryb2tlLWRhc2hhcnJheToyO30jZ2VNZXJtYWlkT3V0cHV0LTE3MjQ4NzYxMDYwNzYgLm1hcmtlcntmaWxsOiMwMDAwMDA7c3Ryb2tlOiMwMDAwMDA7fSNnZU1lcm1haWRPdXRwdXQtMTcyNDg3NjEwNjA3NiAubWFya2VyLmNyb3Nze3N0cm9rZTojMDAwMDAwO30jZ2VNZXJtYWlkT3V0cHV0LTE3MjQ4NzYxMDYwNzYgc3Zne2ZvbnQtZmFtaWx5OiJ0cmVidWNoZXQgbXMiLHZlcmRhbmEsYXJpYWwsc2Fucy1zZXJpZjtmb250LXNpemU6MTZweDt9I2dlTWVybWFpZE91dHB1dC0xNzI0ODc2MTA2MDc2IC5hY3RvcntzdHJva2U6aHNsKDc4LjE1Nzg5NDczNjgsIDU4LjQ2MTUzODQ2MTUlLCA1NC41MDk4MDM5MjE2JSk7ZmlsbDojY2RlNDk4O30jZ2VNZXJtYWlkT3V0cHV0LTE3MjQ4NzYxMDYwNzYgdGV4dC5hY3RvciZndDt0c3BhbntmaWxsOmJsYWNrO3N0cm9rZTpub25lO30jZ2VNZXJtYWlkT3V0cHV0LTE3MjQ4NzYxMDYwNzYgLmFjdG9yLWxpbmV7c3Ryb2tlOmdyZXk7fSNnZU1lcm1haWRPdXRwdXQtMTcyNDg3NjEwNjA3NiAubWVzc2FnZUxpbmUwe3N0cm9rZS13aWR0aDoxLjU7c3Ryb2tlLWRhc2hhcnJheTpub25lO3N0cm9rZTojMzMzO30jZ2VNZXJtYWlkT3V0cHV0LTE3MjQ4NzYxMDYwNzYgLm1lc3NhZ2VMaW5lMXtzdHJva2Utd2lkdGg6MS41O3N0cm9rZS1kYXNoYXJyYXk6MiwyO3N0cm9rZTojMzMzO30jZ2VNZXJtYWlkT3V0cHV0LTE3MjQ4NzYxMDYwNzYgI2Fycm93aGVhZCBwYXRoe2ZpbGw6IzMzMztzdHJva2U6IzMzMzt9I2dlTWVybWFpZE91dHB1dC0xNzI0ODc2MTA2MDc2IC5zZXF1ZW5jZU51bWJlcntmaWxsOndoaXRlO30jZ2VNZXJtYWlkT3V0cHV0LTE3MjQ4NzYxMDYwNzYgI3NlcXVlbmNlbnVtYmVye2ZpbGw6IzMzMzt9I2dlTWVybWFpZE91dHB1dC0xNzI0ODc2MTA2MDc2ICNjcm9zc2hlYWQgcGF0aHtmaWxsOiMzMzM7c3Ryb2tlOiMzMzM7fSNnZU1lcm1haWRPdXRwdXQtMTcyNDg3NjEwNjA3NiAubWVzc2FnZVRleHR7ZmlsbDojMzMzO3N0cm9rZTojMzMzO30jZ2VNZXJtYWlkT3V0cHV0LTE3MjQ4NzYxMDYwNzYgLmxhYmVsQm94e3N0cm9rZTojMzI2OTMyO2ZpbGw6I2NkZTQ5ODt9I2dlTWVybWFpZE91dHB1dC0xNzI0ODc2MTA2MDc2IC5sYWJlbFRleHQsI2dlTWVybWFpZE91dHB1dC0xNzI0ODc2MTA2MDc2IC5sYWJlbFRleHQmZ3Q7dHNwYW57ZmlsbDpibGFjaztzdHJva2U6bm9uZTt9I2dlTWVybWFpZE91dHB1dC0xNzI0ODc2MTA2MDc2IC5sb29wVGV4dCwjZ2VNZXJtYWlkT3V0cHV0LTE3MjQ4NzYxMDYwNzYgLmxvb3BUZXh0Jmd0O3RzcGFue2ZpbGw6YmxhY2s7c3Ryb2tlOm5vbmU7fSNnZU1lcm1haWRPdXRwdXQtMTcyNDg3NjEwNjA3NiAubG9vcExpbmV7c3Ryb2tlLXdpZHRoOjJweDtzdHJva2UtZGFzaGFycmF5OjIsMjtzdHJva2U6IzMyNjkzMjtmaWxsOiMzMjY5MzI7fSNnZU1lcm1haWRPdXRwdXQtMTcyNDg3NjEwNjA3NiAubm90ZXtzdHJva2U6IzZlYWE0OTtmaWxsOiNmZmY1YWQ7fSNnZU1lcm1haWRPdXRwdXQtMTcyNDg3NjEwNjA3NiAubm90ZVRleHQsI2dlTWVybWFpZE91dHB1dC0xNzI0ODc2MTA2MDc2IC5ub3RlVGV4dCZndDt0c3BhbntmaWxsOmJsYWNrO3N0cm9rZTpub25lO30jZ2VNZXJtYWlkT3V0cHV0LTE3MjQ4NzYxMDYwNzYgLmFjdGl2YXRpb24we2ZpbGw6I2Y0ZjRmNDtzdHJva2U6IzY2Njt9I2dlTWVybWFpZE91dHB1dC0xNzI0ODc2MTA2MDc2IC5hY3RpdmF0aW9uMXtmaWxsOiNmNGY0ZjQ7c3Ryb2tlOiM2NjY7fSNnZU1lcm1haWRPdXRwdXQtMTcyNDg3NjEwNjA3NiAuYWN0aXZhdGlvbjJ7ZmlsbDojZjRmNGY0O3N0cm9rZTojNjY2O30jZ2VNZXJtYWlkT3V0cHV0LTE3MjQ4NzYxMDYwNzYgLmFjdG9yUG9wdXBNZW51e3Bvc2l0aW9uOmFic29sdXRlO30jZ2VNZXJtYWlkT3V0cHV0LTE3MjQ4NzYxMDYwNzYgLmFjdG9yUG9wdXBNZW51UGFuZWx7cG9zaXRpb246YWJzb2x1dGU7ZmlsbDojY2RlNDk4O2JveC1zaGFkb3c6MHB4IDhweCAxNnB4IDBweCByZ2JhKDAsMCwwLDAuMik7ZmlsdGVyOmRyb3Atc2hhZG93KDNweCA1cHggMnB4IHJnYigwIDAgMCAvIDAuNCkpO30jZ2VNZXJtYWlkT3V0cHV0LTE3MjQ4NzYxMDYwNzYgLmFjdG9yLW1hbiBsaW5le3N0cm9rZTpoc2woNzguMTU3ODk0NzM2OCwgNTguNDYxNTM4NDYxNSUsIDU0LjUwOTgwMzkyMTYlKTtmaWxsOiNjZGU0OTg7fSNnZU1lcm1haWRPdXRwdXQtMTcyNDg3NjEwNjA3NiAuYWN0b3ItbWFuIGNpcmNsZSwjZ2VNZXJtYWlkT3V0cHV0LTE3MjQ4NzYxMDYwNzYgbGluZXtzdHJva2U6aHNsKDc4LjE1Nzg5NDczNjgsIDU4LjQ2MTUzODQ2MTUlLCA1NC41MDk4MDM5MjE2JSk7ZmlsbDojY2RlNDk4O3N0cm9rZS13aWR0aDoycHg7fSNnZU1lcm1haWRPdXRwdXQtMTcyNDg3NjEwNjA3NiA6cm9vdHstLW1lcm1haWQtZm9udC1mYW1pbHk6InRyZWJ1Y2hldCBtcyIsdmVyZGFuYSxhcmlhbCxzYW5zLXNlcmlmO308L3N0eWxlPjxnPjwvZz48ZGVmcz48c3ltYm9sIGhlaWdodD0iMjQiIHdpZHRoPSIyNCIgaWQ9ImNvbXB1dGVyIj48cGF0aCBkPSJNMiAydjEzaDIwdi0xM2gtMjB6bTE4IDExaC0xNnYtOWgxNnY5em0tMTAuMjI4IDZsLjQ2Ni0xaDMuNTI0bC40NjcgMWgtNC40NTd6bTE0LjIyOCAzaC0yNGwyLTZoMi4xMDRsLTEuMzMgNGgxOC40NWwtMS4yOTctNGgyLjA3M2wyIDZ6bS01LTEwaC0xNHYtN2gxNHY3eiIgdHJhbnNmb3JtPSJzY2FsZSguNSkiPjwvcGF0aD48L3N5bWJvbD48L2RlZnM+PGRlZnM+PHN5bWJvbCBjbGlwLXJ1bGU9ImV2ZW5vZGQiIGZpbGwtcnVsZT0iZXZlbm9kZCIgaWQ9ImRhdGFiYXNlIj48cGF0aCBkPSJNMTIuMjU4LjAwMWwuMjU2LjAwNC4yNTUuMDA1LjI1My4wMDguMjUxLjAxLjI0OS4wMTIuMjQ3LjAxNS4yNDYuMDE2LjI0Mi4wMTkuMjQxLjAyLjIzOS4wMjMuMjM2LjAyNC4yMzMuMDI3LjIzMS4wMjguMjI5LjAzMS4yMjUuMDMyLjIyMy4wMzQuMjIuMDM2LjIxNy4wMzguMjE0LjA0LjIxMS4wNDEuMjA4LjA0My4yMDUuMDQ1LjIwMS4wNDYuMTk4LjA0OC4xOTQuMDUuMTkxLjA1MS4xODcuMDUzLjE4My4wNTQuMTguMDU2LjE3NS4wNTcuMTcyLjA1OS4xNjguMDYuMTYzLjA2MS4xNi4wNjMuMTU1LjA2NC4xNS4wNjYuMDc0LjAzMy4wNzMuMDMzLjA3MS4wMzQuMDcuMDM0LjA2OS4wMzUuMDY4LjAzNS4wNjcuMDM1LjA2Ni4wMzUuMDY0LjAzNi4wNjQuMDM2LjA2Mi4wMzYuMDYuMDM2LjA2LjAzNy4wNTguMDM3LjA1OC4wMzcuMDU1LjAzOC4wNTUuMDM4LjA1My4wMzguMDUyLjAzOC4wNTEuMDM5LjA1LjAzOS4wNDguMDM5LjA0Ny4wMzkuMDQ1LjA0LjA0NC4wNC4wNDMuMDQuMDQxLjA0LjA0LjA0MS4wMzkuMDQxLjAzNy4wNDEuMDM2LjA0MS4wMzQuMDQxLjAzMy4wNDIuMDMyLjA0Mi4wMy4wNDIuMDI5LjA0Mi4wMjcuMDQyLjAyNi4wNDMuMDI0LjA0My4wMjMuMDQzLjAyMS4wNDMuMDIuMDQzLjAxOC4wNDQuMDE3LjA0My4wMTUuMDQ0LjAxMy4wNDQuMDEyLjA0NC4wMTEuMDQ1LjAwOS4wNDQuMDA3LjA0NS4wMDYuMDQ1LjAwNC4wNDUuMDAyLjA0NS4wMDEuMDQ1djE3bC0uMDAxLjA0NS0uMDAyLjA0NS0uMDA0LjA0NS0uMDA2LjA0NS0uMDA3LjA0NS0uMDA5LjA0NC0uMDExLjA0NS0uMDEyLjA0NC0uMDEzLjA0NC0uMDE1LjA0NC0uMDE3LjA0My0uMDE4LjA0NC0uMDIuMDQzLS4wMjEuMDQzLS4wMjMuMDQzLS4wMjQuMDQzLS4wMjYuMDQzLS4wMjcuMDQyLS4wMjkuMDQyLS4wMy4wNDItLjAzMi4wNDItLjAzMy4wNDItLjAzNC4wNDEtLjAzNi4wNDEtLjAzNy4wNDEtLjAzOS4wNDEtLjA0LjA0MS0uMDQxLjA0LS4wNDMuMDQtLjA0NC4wNC0uMDQ1LjA0LS4wNDcuMDM5LS4wNDguMDM5LS4wNS4wMzktLjA1MS4wMzktLjA1Mi4wMzgtLjA1My4wMzgtLjA1NS4wMzgtLjA1NS4wMzgtLjA1OC4wMzctLjA1OC4wMzctLjA2LjAzNy0uMDYuMDM2LS4wNjIuMDM2LS4wNjQuMDM2LS4wNjQuMDM2LS4wNjYuMDM1LS4wNjcuMDM1LS4wNjguMDM1LS4wNjkuMDM1LS4wNy4wMzQtLjA3MS4wMzQtLjA3My4wMzMtLjA3NC4wMzMtLjE1LjA2Ni0uMTU1LjA2NC0uMTYuMDYzLS4xNjMuMDYxLS4xNjguMDYtLjE3Mi4wNTktLjE3NS4wNTctLjE4LjA1Ni0uMTgzLjA1NC0uMTg3LjA1My0uMTkxLjA1MS0uMTk0LjA1LS4xOTguMDQ4LS4yMDEuMDQ2LS4yMDUuMDQ1LS4yMDguMDQzLS4yMTEuMDQxLS4yMTQuMDQtLjIxNy4wMzgtLjIyLjAzNi0uMjIzLjAzNC0uMjI1LjAzMi0uMjI5LjAzMS0uMjMxLjAyOC0uMjMzLjAyNy0uMjM2LjAyNC0uMjM5LjAyMy0uMjQxLjAyLS4yNDIuMDE5LS4yNDYuMDE2LS4yNDcuMDE1LS4yNDkuMDEyLS4yNTEuMDEtLjI1My4wMDgtLjI1NS4wMDUtLjI1Ni4wMDQtLjI1OC4wMDEtLjI1OC0uMDAxLS4yNTYtLjAwNC0uMjU1LS4wMDUtLjI1My0uMDA4LS4yNTEtLjAxLS4yNDktLjAxMi0uMjQ3LS4wMTUtLjI0NS0uMDE2LS4yNDMtLjAxOS0uMjQxLS4wMi0uMjM4LS4wMjMtLjIzNi0uMDI0LS4yMzQtLjAyNy0uMjMxLS4wMjgtLjIyOC0uMDMxLS4yMjYtLjAzMi0uMjIzLS4wMzQtLjIyLS4wMzYtLjIxNy0uMDM4LS4yMTQtLjA0LS4yMTEtLjA0MS0uMjA4LS4wNDMtLjIwNC0uMDQ1LS4yMDEtLjA0Ni0uMTk4LS4wNDgtLjE5NS0uMDUtLjE5LS4wNTEtLjE4Ny0uMDUzLS4xODQtLjA1NC0uMTc5LS4wNTYtLjE3Ni0uMDU3LS4xNzItLjA1OS0uMTY3LS4wNi0uMTY0LS4wNjEtLjE1OS0uMDYzLS4xNTUtLjA2NC0uMTUxLS4wNjYtLjA3NC0uMDMzLS4wNzItLjAzMy0uMDcyLS4wMzQtLjA3LS4wMzQtLjA2OS0uMDM1LS4wNjgtLjAzNS0uMDY3LS4wMzUtLjA2Ni0uMDM1LS4wNjQtLjAzNi0uMDYzLS4wMzYtLjA2Mi0uMDM2LS4wNjEtLjAzNi0uMDYtLjAzNy0uMDU4LS4wMzctLjA1Ny0uMDM3LS4wNTYtLjAzOC0uMDU1LS4wMzgtLjA1My0uMDM4LS4wNTItLjAzOC0uMDUxLS4wMzktLjA0OS0uMDM5LS4wNDktLjAzOS0uMDQ2LS4wMzktLjA0Ni0uMDQtLjA0NC0uMDQtLjA0My0uMDQtLjA0MS0uMDQtLjA0LS4wNDEtLjAzOS0uMDQxLS4wMzctLjA0MS0uMDM2LS4wNDEtLjAzNC0uMDQxLS4wMzMtLjA0Mi0uMDMyLS4wNDItLjAzLS4wNDItLjAyOS0uMDQyLS4wMjctLjA0Mi0uMDI2LS4wNDMtLjAyNC0uMDQzLS4wMjMtLjA0My0uMDIxLS4wNDMtLjAyLS4wNDMtLjAxOC0uMDQ0LS4wMTctLjA0My0uMDE1LS4wNDQtLjAxMy0uMDQ0LS4wMTItLjA0NC0uMDExLS4wNDUtLjAwOS0uMDQ0LS4wMDctLjA0NS0uMDA2LS4wNDUtLjAwNC0uMDQ1LS4wMDItLjA0NS0uMDAxLS4wNDV2LTE3bC4wMDEtLjA0NS4wMDItLjA0NS4wMDQtLjA0NS4wMDYtLjA0NS4wMDctLjA0NS4wMDktLjA0NC4wMTEtLjA0NS4wMTItLjA0NC4wMTMtLjA0NC4wMTUtLjA0NC4wMTctLjA0My4wMTgtLjA0NC4wMi0uMDQzLjAyMS0uMDQzLjAyMy0uMDQzLjAyNC0uMDQzLjAyNi0uMDQzLjAyNy0uMDQyLjAyOS0uMDQyLjAzLS4wNDIuMDMyLS4wNDIuMDMzLS4wNDIuMDM0LS4wNDEuMDM2LS4wNDEuMDM3LS4wNDEuMDM5LS4wNDEuMDQtLjA0MS4wNDEtLjA0LjA0My0uMDQuMDQ0LS4wNC4wNDYtLjA0LjA0Ni0uMDM5LjA0OS0uMDM5LjA0OS0uMDM5LjA1MS0uMDM5LjA1Mi0uMDM4LjA1My0uMDM4LjA1NS0uMDM4LjA1Ni0uMDM4LjA1Ny0uMDM3LjA1OC0uMDM3LjA2LS4wMzcuMDYxLS4wMzYuMDYyLS4wMzYuMDYzLS4wMzYuMDY0LS4wMzYuMDY2LS4wMzUuMDY3LS4wMzUuMDY4LS4wMzUuMDY5LS4wMzUuMDctLjAzNC4wNzItLjAzNC4wNzItLjAzMy4wNzQtLjAzMy4xNTEtLjA2Ni4xNTUtLjA2NC4xNTktLjA2My4xNjQtLjA2MS4xNjctLjA2LjE3Mi0uMDU5LjE3Ni0uMDU3LjE3OS0uMDU2LjE4NC0uMDU0LjE4Ny0uMDUzLjE5LS4wNTEuMTk1LS4wNS4xOTgtLjA0OC4yMDEtLjA0Ni4yMDQtLjA0NS4yMDgtLjA0My4yMTEtLjA0MS4yMTQtLjA0LjIxNy0uMDM4LjIyLS4wMzYuMjIzLS4wMzQuMjI2LS4wMzIuMjI4LS4wMzEuMjMxLS4wMjguMjM0LS4wMjcuMjM2LS4wMjQuMjM4LS4wMjMuMjQxLS4wMi4yNDMtLjAxOS4yNDUtLjAxNi4yNDctLjAxNS4yNDktLjAxMi4yNTEtLjAxLjI1My0uMDA4LjI1NS0uMDA1LjI1Ni0uMDA0LjI1OC0uMDAxLjI1OC4wMDF6bS05LjI1OCAyMC40OTl2LjAxbC4wMDEuMDIxLjAwMy4wMjEuMDA0LjAyMi4wMDUuMDIxLjAwNi4wMjIuMDA3LjAyMi4wMDkuMDIzLjAxLjAyMi4wMTEuMDIzLjAxMi4wMjMuMDEzLjAyMy4wMTUuMDIzLjAxNi4wMjQuMDE3LjAyMy4wMTguMDI0LjAxOS4wMjQuMDIxLjAyNC4wMjIuMDI1LjAyMy4wMjQuMDI0LjAyNS4wNTIuMDQ5LjA1Ni4wNS4wNjEuMDUxLjA2Ni4wNTEuMDcuMDUxLjA3NS4wNTEuMDc5LjA1Mi4wODQuMDUyLjA4OC4wNTIuMDkyLjA1Mi4wOTcuMDUyLjEwMi4wNTEuMTA1LjA1Mi4xMS4wNTIuMTE0LjA1MS4xMTkuMDUxLjEyMy4wNTEuMTI3LjA1LjEzMS4wNS4xMzUuMDUuMTM5LjA0OC4xNDQuMDQ5LjE0Ny4wNDcuMTUyLjA0Ny4xNTUuMDQ3LjE2LjA0NS4xNjMuMDQ1LjE2Ny4wNDMuMTcxLjA0My4xNzYuMDQxLjE3OC4wNDEuMTgzLjAzOS4xODcuMDM5LjE5LjAzNy4xOTQuMDM1LjE5Ny4wMzUuMjAyLjAzMy4yMDQuMDMxLjIwOS4wMy4yMTIuMDI5LjIxNi4wMjcuMjE5LjAyNS4yMjIuMDI0LjIyNi4wMjEuMjMuMDIuMjMzLjAxOC4yMzYuMDE2LjI0LjAxNS4yNDMuMDEyLjI0Ni4wMS4yNDkuMDA4LjI1My4wMDUuMjU2LjAwNC4yNTkuMDAxLjI2LS4wMDEuMjU3LS4wMDQuMjU0LS4wMDUuMjUtLjAwOC4yNDctLjAxMS4yNDQtLjAxMi4yNDEtLjAxNC4yMzctLjAxNi4yMzMtLjAxOC4yMzEtLjAyMS4yMjYtLjAyMS4yMjQtLjAyNC4yMi0uMDI2LjIxNi0uMDI3LjIxMi0uMDI4LjIxLS4wMzEuMjA1LS4wMzEuMjAyLS4wMzQuMTk4LS4wMzQuMTk0LS4wMzYuMTkxLS4wMzcuMTg3LS4wMzkuMTgzLS4wNC4xNzktLjA0LjE3NS0uMDQyLjE3Mi0uMDQzLjE2OC0uMDQ0LjE2My0uMDQ1LjE2LS4wNDYuMTU1LS4wNDYuMTUyLS4wNDcuMTQ4LS4wNDguMTQzLS4wNDkuMTM5LS4wNDkuMTM2LS4wNS4xMzEtLjA1LjEyNi0uMDUuMTIzLS4wNTEuMTE4LS4wNTIuMTE0LS4wNTEuMTEtLjA1Mi4xMDYtLjA1Mi4xMDEtLjA1Mi4wOTYtLjA1Mi4wOTItLjA1Mi4wODgtLjA1My4wODMtLjA1MS4wNzktLjA1Mi4wNzQtLjA1Mi4wNy0uMDUxLjA2NS0uMDUxLjA2LS4wNTEuMDU2LS4wNS4wNTEtLjA1LjAyMy0uMDI0LjAyMy0uMDI1LjAyMS0uMDI0LjAyLS4wMjQuMDE5LS4wMjQuMDE4LS4wMjQuMDE3LS4wMjQuMDE1LS4wMjMuMDE0LS4wMjQuMDEzLS4wMjMuMDEyLS4wMjMuMDEtLjAyMy4wMS0uMDIyLjAwOC0uMDIyLjAwNi0uMDIyLjAwNi0uMDIyLjAwNC0uMDIyLjAwNC0uMDIxLjAwMS0uMDIxLjAwMS0uMDIxdi00LjEyN2wtLjA3Ny4wNTUtLjA4LjA1My0uMDgzLjA1NC0uMDg1LjA1My0uMDg3LjA1Mi0uMDkuMDUyLS4wOTMuMDUxLS4wOTUuMDUtLjA5Ny4wNS0uMS4wNDktLjEwMi4wNDktLjEwNS4wNDgtLjEwNi4wNDctLjEwOS4wNDctLjExMS4wNDYtLjExNC4wNDUtLjExNS4wNDUtLjExOC4wNDQtLjEyLjA0My0uMTIyLjA0Mi0uMTI0LjA0Mi0uMTI2LjA0MS0uMTI4LjA0LS4xMy4wNC0uMTMyLjAzOC0uMTM0LjAzOC0uMTM1LjAzNy0uMTM4LjAzNy0uMTM5LjAzNS0uMTQyLjAzNS0uMTQzLjAzNC0uMTQ0LjAzMy0uMTQ3LjAzMi0uMTQ4LjAzMS0uMTUuMDMtLjE1MS4wMy0uMTUzLjAyOS0uMTU0LjAyNy0uMTU2LjAyNy0uMTU4LjAyNi0uMTU5LjAyNS0uMTYxLjAyNC0uMTYyLjAyMy0uMTYzLjAyMi0uMTY1LjAyMS0uMTY2LjAyLS4xNjcuMDE5LS4xNjkuMDE4LS4xNjkuMDE3LS4xNzEuMDE2LS4xNzMuMDE1LS4xNzMuMDE0LS4xNzUuMDEzLS4xNzUuMDEyLS4xNzcuMDExLS4xNzguMDEtLjE3OS4wMDgtLjE3OS4wMDgtLjE4MS4wMDYtLjE4Mi4wMDUtLjE4Mi4wMDQtLjE4NC4wMDMtLjE4NC4wMDJoLS4zN2wtLjE4NC0uMDAyLS4xODQtLjAwMy0uMTgyLS4wMDQtLjE4Mi0uMDA1LS4xODEtLjAwNi0uMTc5LS4wMDgtLjE3OS0uMDA4LS4xNzgtLjAxLS4xNzYtLjAxMS0uMTc2LS4wMTItLjE3NS0uMDEzLS4xNzMtLjAxNC0uMTcyLS4wMTUtLjE3MS0uMDE2LS4xNy0uMDE3LS4xNjktLjAxOC0uMTY3LS4wMTktLjE2Ni0uMDItLjE2NS0uMDIxLS4xNjMtLjAyMi0uMTYyLS4wMjMtLjE2MS0uMDI0LS4xNTktLjAyNS0uMTU3LS4wMjYtLjE1Ni0uMDI3LS4xNTUtLjAyNy0uMTUzLS4wMjktLjE1MS0uMDMtLjE1LS4wMy0uMTQ4LS4wMzEtLjE0Ni0uMDMyLS4xNDUtLjAzMy0uMTQzLS4wMzQtLjE0MS0uMDM1LS4xNC0uMDM1LS4xMzctLjAzNy0uMTM2LS4wMzctLjEzNC0uMDM4LS4xMzItLjAzOC0uMTMtLjA0LS4xMjgtLjA0LS4xMjYtLjA0MS0uMTI0LS4wNDItLjEyMi0uMDQyLS4xMi0uMDQ0LS4xMTctLjA0My0uMTE2LS4wNDUtLjExMy0uMDQ1LS4xMTItLjA0Ni0uMTA5LS4wNDctLjEwNi0uMDQ3LS4xMDUtLjA0OC0uMTAyLS4wNDktLjEtLjA0OS0uMDk3LS4wNS0uMDk1LS4wNS0uMDkzLS4wNTItLjA5LS4wNTEtLjA4Ny0uMDUyLS4wODUtLjA1My0uMDgzLS4wNTQtLjA4LS4wNTQtLjA3Ny0uMDU0djQuMTI3em0wLTUuNjU0di4wMTFsLjAwMS4wMjEuMDAzLjAyMS4wMDQuMDIxLjAwNS4wMjIuMDA2LjAyMi4wMDcuMDIyLjAwOS4wMjIuMDEuMDIyLjAxMS4wMjMuMDEyLjAyMy4wMTMuMDIzLjAxNS4wMjQuMDE2LjAyMy4wMTcuMDI0LjAxOC4wMjQuMDE5LjAyNC4wMjEuMDI0LjAyMi4wMjQuMDIzLjAyNS4wMjQuMDI0LjA1Mi4wNS4wNTYuMDUuMDYxLjA1LjA2Ni4wNTEuMDcuMDUxLjA3NS4wNTIuMDc5LjA1MS4wODQuMDUyLjA4OC4wNTIuMDkyLjA1Mi4wOTcuMDUyLjEwMi4wNTIuMTA1LjA1Mi4xMS4wNTEuMTE0LjA1MS4xMTkuMDUyLjEyMy4wNS4xMjcuMDUxLjEzMS4wNS4xMzUuMDQ5LjEzOS4wNDkuMTQ0LjA0OC4xNDcuMDQ4LjE1Mi4wNDcuMTU1LjA0Ni4xNi4wNDUuMTYzLjA0NS4xNjcuMDQ0LjE3MS4wNDIuMTc2LjA0Mi4xNzguMDQuMTgzLjA0LjE4Ny4wMzguMTkuMDM3LjE5NC4wMzYuMTk3LjAzNC4yMDIuMDMzLjIwNC4wMzIuMjA5LjAzLjIxMi4wMjguMjE2LjAyNy4yMTkuMDI1LjIyMi4wMjQuMjI2LjAyMi4yMy4wMi4yMzMuMDE4LjIzNi4wMTYuMjQuMDE0LjI0My4wMTIuMjQ2LjAxLjI0OS4wMDguMjUzLjAwNi4yNTYuMDAzLjI1OS4wMDEuMjYtLjAwMS4yNTctLjAwMy4yNTQtLjAwNi4yNS0uMDA4LjI0Ny0uMDEuMjQ0LS4wMTIuMjQxLS4wMTUuMjM3LS4wMTYuMjMzLS4wMTguMjMxLS4wMi4yMjYtLjAyMi4yMjQtLjAyNC4yMi0uMDI1LjIxNi0uMDI3LjIxMi0uMDI5LjIxLS4wMy4yMDUtLjAzMi4yMDItLjAzMy4xOTgtLjAzNS4xOTQtLjAzNi4xOTEtLjAzNy4xODctLjAzOS4xODMtLjAzOS4xNzktLjA0MS4xNzUtLjA0Mi4xNzItLjA0My4xNjgtLjA0NC4xNjMtLjA0NS4xNi0uMDQ1LjE1NS0uMDQ3LjE1Mi0uMDQ3LjE0OC0uMDQ4LjE0My0uMDQ4LjEzOS0uMDUuMTM2LS4wNDkuMTMxLS4wNS4xMjYtLjA1MS4xMjMtLjA1MS4xMTgtLjA1MS4xMTQtLjA1Mi4xMS0uMDUyLjEwNi0uMDUyLjEwMS0uMDUyLjA5Ni0uMDUyLjA5Mi0uMDUyLjA4OC0uMDUyLjA4My0uMDUyLjA3OS0uMDUyLjA3NC0uMDUxLjA3LS4wNTIuMDY1LS4wNTEuMDYtLjA1LjA1Ni0uMDUxLjA1MS0uMDQ5LjAyMy0uMDI1LjAyMy0uMDI0LjAyMS0uMDI1LjAyLS4wMjQuMDE5LS4wMjQuMDE4LS4wMjQuMDE3LS4wMjQuMDE1LS4wMjMuMDE0LS4wMjMuMDEzLS4wMjQuMDEyLS4wMjIuMDEtLjAyMy4wMS0uMDIzLjAwOC0uMDIyLjAwNi0uMDIyLjAwNi0uMDIyLjAwNC0uMDIxLjAwNC0uMDIyLjAwMS0uMDIxLjAwMS0uMDIxdi00LjEzOWwtLjA3Ny4wNTQtLjA4LjA1NC0uMDgzLjA1NC0uMDg1LjA1Mi0uMDg3LjA1My0uMDkuMDUxLS4wOTMuMDUxLS4wOTUuMDUxLS4wOTcuMDUtLjEuMDQ5LS4xMDIuMDQ5LS4xMDUuMDQ4LS4xMDYuMDQ3LS4xMDkuMDQ3LS4xMTEuMDQ2LS4xMTQuMDQ1LS4xMTUuMDQ0LS4xMTguMDQ0LS4xMi4wNDQtLjEyMi4wNDItLjEyNC4wNDItLjEyNi4wNDEtLjEyOC4wNC0uMTMuMDM5LS4xMzIuMDM5LS4xMzQuMDM4LS4xMzUuMDM3LS4xMzguMDM2LS4xMzkuMDM2LS4xNDIuMDM1LS4xNDMuMDMzLS4xNDQuMDMzLS4xNDcuMDMzLS4xNDguMDMxLS4xNS4wMy0uMTUxLjAzLS4xNTMuMDI4LS4xNTQuMDI4LS4xNTYuMDI3LS4xNTguMDI2LS4xNTkuMDI1LS4xNjEuMDI0LS4xNjIuMDIzLS4xNjMuMDIyLS4xNjUuMDIxLS4xNjYuMDItLjE2Ny4wMTktLjE2OS4wMTgtLjE2OS4wMTctLjE3MS4wMTYtLjE3My4wMTUtLjE3My4wMTQtLjE3NS4wMTMtLjE3NS4wMTItLjE3Ny4wMTEtLjE3OC4wMDktLjE3OS4wMDktLjE3OS4wMDctLjE4MS4wMDctLjE4Mi4wMDUtLjE4Mi4wMDQtLjE4NC4wMDMtLjE4NC4wMDJoLS4zN2wtLjE4NC0uMDAyLS4xODQtLjAwMy0uMTgyLS4wMDQtLjE4Mi0uMDA1LS4xODEtLjAwNy0uMTc5LS4wMDctLjE3OS0uMDA5LS4xNzgtLjAwOS0uMTc2LS4wMTEtLjE3Ni0uMDEyLS4xNzUtLjAxMy0uMTczLS4wMTQtLjE3Mi0uMDE1LS4xNzEtLjAxNi0uMTctLjAxNy0uMTY5LS4wMTgtLjE2Ny0uMDE5LS4xNjYtLjAyLS4xNjUtLjAyMS0uMTYzLS4wMjItLjE2Mi0uMDIzLS4xNjEtLjAyNC0uMTU5LS4wMjUtLjE1Ny0uMDI2LS4xNTYtLjAyNy0uMTU1LS4wMjgtLjE1My0uMDI4LS4xNTEtLjAzLS4xNS0uMDMtLjE0OC0uMDMxLS4xNDYtLjAzMy0uMTQ1LS4wMzMtLjE0My0uMDMzLS4xNDEtLjAzNS0uMTQtLjAzNi0uMTM3LS4wMzYtLjEzNi0uMDM3LS4xMzQtLjAzOC0uMTMyLS4wMzktLjEzLS4wMzktLjEyOC0uMDQtLjEyNi0uMDQxLS4xMjQtLjA0Mi0uMTIyLS4wNDMtLjEyLS4wNDMtLjExNy0uMDQ0LS4xMTYtLjA0NC0uMTEzLS4wNDYtLjExMi0uMDQ2LS4xMDktLjA0Ni0uMTA2LS4wNDctLjEwNS0uMDQ4LS4xMDItLjA0OS0uMS0uMDQ5LS4wOTctLjA1LS4wOTUtLjA1MS0uMDkzLS4wNTEtLjA5LS4wNTEtLjA4Ny0uMDUzLS4wODUtLjA1Mi0uMDgzLS4wNTQtLjA4LS4wNTQtLjA3Ny0uMDU0djQuMTM5em0wLTUuNjY2di4wMTFsLjAwMS4wMi4wMDMuMDIyLjAwNC4wMjEuMDA1LjAyMi4wMDYuMDIxLjAwNy4wMjIuMDA5LjAyMy4wMS4wMjIuMDExLjAyMy4wMTIuMDIzLjAxMy4wMjMuMDE1LjAyMy4wMTYuMDI0LjAxNy4wMjQuMDE4LjAyMy4wMTkuMDI0LjAyMS4wMjUuMDIyLjAyNC4wMjMuMDI0LjAyNC4wMjUuMDUyLjA1LjA1Ni4wNS4wNjEuMDUuMDY2LjA1MS4wNy4wNTEuMDc1LjA1Mi4wNzkuMDUxLjA4NC4wNTIuMDg4LjA1Mi4wOTIuMDUyLjA5Ny4wNTIuMTAyLjA1Mi4xMDUuMDUxLjExLjA1Mi4xMTQuMDUxLjExOS4wNTEuMTIzLjA1MS4xMjcuMDUuMTMxLjA1LjEzNS4wNS4xMzkuMDQ5LjE0NC4wNDguMTQ3LjA0OC4xNTIuMDQ3LjE1NS4wNDYuMTYuMDQ1LjE2My4wNDUuMTY3LjA0My4xNzEuMDQzLjE3Ni4wNDIuMTc4LjA0LjE4My4wNC4xODcuMDM4LjE5LjAzNy4xOTQuMDM2LjE5Ny4wMzQuMjAyLjAzMy4yMDQuMDMyLjIwOS4wMy4yMTIuMDI4LjIxNi4wMjcuMjE5LjAyNS4yMjIuMDI0LjIyNi4wMjEuMjMuMDIuMjMzLjAxOC4yMzYuMDE3LjI0LjAxNC4yNDMuMDEyLjI0Ni4wMS4yNDkuMDA4LjI1My4wMDYuMjU2LjAwMy4yNTkuMDAxLjI2LS4wMDEuMjU3LS4wMDMuMjU0LS4wMDYuMjUtLjAwOC4yNDctLjAxLjI0NC0uMDEzLjI0MS0uMDE0LjIzNy0uMDE2LjIzMy0uMDE4LjIzMS0uMDIuMjI2LS4wMjIuMjI0LS4wMjQuMjItLjAyNS4yMTYtLjAyNy4yMTItLjAyOS4yMS0uMDMuMjA1LS4wMzIuMjAyLS4wMzMuMTk4LS4wMzUuMTk0LS4wMzYuMTkxLS4wMzcuMTg3LS4wMzkuMTgzLS4wMzkuMTc5LS4wNDEuMTc1LS4wNDIuMTcyLS4wNDMuMTY4LS4wNDQuMTYzLS4wNDUuMTYtLjA0NS4xNTUtLjA0Ny4xNTItLjA0Ny4xNDgtLjA0OC4xNDMtLjA0OS4xMzktLjA0OS4xMzYtLjA0OS4xMzEtLjA1MS4xMjYtLjA1LjEyMy0uMDUxLjExOC0uMDUyLjExNC0uMDUxLjExLS4wNTIuMTA2LS4wNTIuMTAxLS4wNTIuMDk2LS4wNTIuMDkyLS4wNTIuMDg4LS4wNTIuMDgzLS4wNTIuMDc5LS4wNTIuMDc0LS4wNTIuMDctLjA1MS4wNjUtLjA1MS4wNi0uMDUxLjA1Ni0uMDUuMDUxLS4wNDkuMDIzLS4wMjUuMDIzLS4wMjUuMDIxLS4wMjQuMDItLjAyNC4wMTktLjAyNC4wMTgtLjAyNC4wMTctLjAyNC4wMTUtLjAyMy4wMTQtLjAyNC4wMTMtLjAyMy4wMTItLjAyMy4wMS0uMDIyLjAxLS4wMjMuMDA4LS4wMjIuMDA2LS4wMjIuMDA2LS4wMjIuMDA0LS4wMjIuMDA0LS4wMjEuMDAxLS4wMjEuMDAxLS4wMjF2LTQuMTUzbC0uMDc3LjA1NC0uMDguMDU0LS4wODMuMDUzLS4wODUuMDUzLS4wODcuMDUzLS4wOS4wNTEtLjA5My4wNTEtLjA5NS4wNTEtLjA5Ny4wNS0uMS4wNDktLjEwMi4wNDgtLjEwNS4wNDgtLjEwNi4wNDgtLjEwOS4wNDYtLjExMS4wNDYtLjExNC4wNDYtLjExNS4wNDQtLjExOC4wNDQtLjEyLjA0My0uMTIyLjA0My0uMTI0LjA0Mi0uMTI2LjA0MS0uMTI4LjA0LS4xMy4wMzktLjEzMi4wMzktLjEzNC4wMzgtLjEzNS4wMzctLjEzOC4wMzYtLjEzOS4wMzYtLjE0Mi4wMzQtLjE0My4wMzQtLjE0NC4wMzMtLjE0Ny4wMzItLjE0OC4wMzItLjE1LjAzLS4xNTEuMDMtLjE1My4wMjgtLjE1NC4wMjgtLjE1Ni4wMjctLjE1OC4wMjYtLjE1OS4wMjQtLjE2MS4wMjQtLjE2Mi4wMjMtLjE2My4wMjMtLjE2NS4wMjEtLjE2Ni4wMi0uMTY3LjAxOS0uMTY5LjAxOC0uMTY5LjAxNy0uMTcxLjAxNi0uMTczLjAxNS0uMTczLjAxNC0uMTc1LjAxMy0uMTc1LjAxMi0uMTc3LjAxLS4xNzguMDEtLjE3OS4wMDktLjE3OS4wMDctLjE4MS4wMDYtLjE4Mi4wMDYtLjE4Mi4wMDQtLjE4NC4wMDMtLjE4NC4wMDEtLjE4NS4wMDEtLjE4NS0uMDAxLS4xODQtLjAwMS0uMTg0LS4wMDMtLjE4Mi0uMDA0LS4xODItLjAwNi0uMTgxLS4wMDYtLjE3OS0uMDA3LS4xNzktLjAwOS0uMTc4LS4wMS0uMTc2LS4wMS0uMTc2LS4wMTItLjE3NS0uMDEzLS4xNzMtLjAxNC0uMTcyLS4wMTUtLjE3MS0uMDE2LS4xNy0uMDE3LS4xNjktLjAxOC0uMTY3LS4wMTktLjE2Ni0uMDItLjE2NS0uMDIxLS4xNjMtLjAyMy0uMTYyLS4wMjMtLjE2MS0uMDI0LS4xNTktLjAyNC0uMTU3LS4wMjYtLjE1Ni0uMDI3LS4xNTUtLjAyOC0uMTUzLS4wMjgtLjE1MS0uMDMtLjE1LS4wMy0uMTQ4LS4wMzItLjE0Ni0uMDMyLS4xNDUtLjAzMy0uMTQzLS4wMzQtLjE0MS0uMDM0LS4xNC0uMDM2LS4xMzctLjAzNi0uMTM2LS4wMzctLjEzNC0uMDM4LS4xMzItLjAzOS0uMTMtLjAzOS0uMTI4LS4wNDEtLjEyNi0uMDQxLS4xMjQtLjA0MS0uMTIyLS4wNDMtLjEyLS4wNDMtLjExNy0uMDQ0LS4xMTYtLjA0NC0uMTEzLS4wNDYtLjExMi0uMDQ2LS4xMDktLjA0Ni0uMTA2LS4wNDgtLjEwNS0uMDQ4LS4xMDItLjA0OC0uMS0uMDUtLjA5Ny0uMDQ5LS4wOTUtLjA1MS0uMDkzLS4wNTEtLjA5LS4wNTItLjA4Ny0uMDUyLS4wODUtLjA1My0uMDgzLS4wNTMtLjA4LS4wNTQtLjA3Ny0uMDU0djQuMTUzem04Ljc0LTguMTc5bC0uMjU3LjAwNC0uMjU0LjAwNS0uMjUuMDA4LS4yNDcuMDExLS4yNDQuMDEyLS4yNDEuMDE0LS4yMzcuMDE2LS4yMzMuMDE4LS4yMzEuMDIxLS4yMjYuMDIyLS4yMjQuMDIzLS4yMi4wMjYtLjIxNi4wMjctLjIxMi4wMjgtLjIxLjAzMS0uMjA1LjAzMi0uMjAyLjAzMy0uMTk4LjAzNC0uMTk0LjAzNi0uMTkxLjAzOC0uMTg3LjAzOC0uMTgzLjA0LS4xNzkuMDQxLS4xNzUuMDQyLS4xNzIuMDQzLS4xNjguMDQzLS4xNjMuMDQ1LS4xNi4wNDYtLjE1NS4wNDYtLjE1Mi4wNDgtLjE0OC4wNDgtLjE0My4wNDgtLjEzOS4wNDktLjEzNi4wNS0uMTMxLjA1LS4xMjYuMDUxLS4xMjMuMDUxLS4xMTguMDUxLS4xMTQuMDUyLS4xMS4wNTItLjEwNi4wNTItLjEwMS4wNTItLjA5Ni4wNTItLjA5Mi4wNTItLjA4OC4wNTItLjA4My4wNTItLjA3OS4wNTItLjA3NC4wNTEtLjA3LjA1Mi0uMDY1LjA1MS0uMDYuMDUtLjA1Ni4wNS0uMDUxLjA1LS4wMjMuMDI1LS4wMjMuMDI0LS4wMjEuMDI0LS4wMi4wMjUtLjAxOS4wMjQtLjAxOC4wMjQtLjAxNy4wMjMtLjAxNS4wMjQtLjAxNC4wMjMtLjAxMy4wMjMtLjAxMi4wMjMtLjAxLjAyMy0uMDEuMDIyLS4wMDguMDIyLS4wMDYuMDIzLS4wMDYuMDIxLS4wMDQuMDIyLS4wMDQuMDIxLS4wMDEuMDIxLS4wMDEuMDIxLjAwMS4wMjEuMDAxLjAyMS4wMDQuMDIxLjAwNC4wMjIuMDA2LjAyMS4wMDYuMDIzLjAwOC4wMjIuMDEuMDIyLjAxLjAyMy4wMTIuMDIzLjAxMy4wMjMuMDE0LjAyMy4wMTUuMDI0LjAxNy4wMjMuMDE4LjAyNC4wMTkuMDI0LjAyLjAyNS4wMjEuMDI0LjAyMy4wMjQuMDIzLjAyNS4wNTEuMDUuMDU2LjA1LjA2LjA1LjA2NS4wNTEuMDcuMDUyLjA3NC4wNTEuMDc5LjA1Mi4wODMuMDUyLjA4OC4wNTIuMDkyLjA1Mi4wOTYuMDUyLjEwMS4wNTIuMTA2LjA1Mi4xMS4wNTIuMTE0LjA1Mi4xMTguMDUxLjEyMy4wNTEuMTI2LjA1MS4xMzEuMDUuMTM2LjA1LjEzOS4wNDkuMTQzLjA0OC4xNDguMDQ4LjE1Mi4wNDguMTU1LjA0Ni4xNi4wNDYuMTYzLjA0NS4xNjguMDQzLjE3Mi4wNDMuMTc1LjA0Mi4xNzkuMDQxLjE4My4wNC4xODcuMDM4LjE5MS4wMzguMTk0LjAzNi4xOTguMDM0LjIwMi4wMzMuMjA1LjAzMi4yMS4wMzEuMjEyLjAyOC4yMTYuMDI3LjIyLjAyNi4yMjQuMDIzLjIyNi4wMjIuMjMxLjAyMS4yMzMuMDE4LjIzNy4wMTYuMjQxLjAxNC4yNDQuMDEyLjI0Ny4wMTEuMjUuMDA4LjI1NC4wMDUuMjU3LjAwNC4yNi4wMDEuMjYtLjAwMS4yNTctLjAwNC4yNTQtLjAwNS4yNS0uMDA4LjI0Ny0uMDExLjI0NC0uMDEyLjI0MS0uMDE0LjIzNy0uMDE2LjIzMy0uMDE4LjIzMS0uMDIxLjIyNi0uMDIyLjIyNC0uMDIzLjIyLS4wMjYuMjE2LS4wMjcuMjEyLS4wMjguMjEtLjAzMS4yMDUtLjAzMi4yMDItLjAzMy4xOTgtLjAzNC4xOTQtLjAzNi4xOTEtLjAzOC4xODctLjAzOC4xODMtLjA0LjE3OS0uMDQxLjE3NS0uMDQyLjE3Mi0uMDQzLjE2OC0uMDQzLjE2My0uMDQ1LjE2LS4wNDYuMTU1LS4wNDYuMTUyLS4wNDguMTQ4LS4wNDguMTQzLS4wNDguMTM5LS4wNDkuMTM2LS4wNS4xMzEtLjA1LjEyNi0uMDUxLjEyMy0uMDUxLjExOC0uMDUxLjExNC0uMDUyLjExLS4wNTIuMTA2LS4wNTIuMTAxLS4wNTIuMDk2LS4wNTIuMDkyLS4wNTIuMDg4LS4wNTIuMDgzLS4wNTIuMDc5LS4wNTIuMDc0LS4wNTEuMDctLjA1Mi4wNjUtLjA1MS4wNi0uMDUuMDU2LS4wNS4wNTEtLjA1LjAyMy0uMDI1LjAyMy0uMDI0LjAyMS0uMDI0LjAyLS4wMjUuMDE5LS4wMjQuMDE4LS4wMjQuMDE3LS4wMjMuMDE1LS4wMjQuMDE0LS4wMjMuMDEzLS4wMjMuMDEyLS4wMjMuMDEtLjAyMy4wMS0uMDIyLjAwOC0uMDIyLjAwNi0uMDIzLjAwNi0uMDIxLjAwNC0uMDIyLjAwNC0uMDIxLjAwMS0uMDIxLjAwMS0uMDIxLS4wMDEtLjAyMS0uMDAxLS4wMjEtLjAwNC0uMDIxLS4wMDQtLjAyMi0uMDA2LS4wMjEtLjAwNi0uMDIzLS4wMDgtLjAyMi0uMDEtLjAyMi0uMDEtLjAyMy0uMDEyLS4wMjMtLjAxMy0uMDIzLS4wMTQtLjAyMy0uMDE1LS4wMjQtLjAxNy0uMDIzLS4wMTgtLjAyNC0uMDE5LS4wMjQtLjAyLS4wMjUtLjAyMS0uMDI0LS4wMjMtLjAyNC0uMDIzLS4wMjUtLjA1MS0uMDUtLjA1Ni0uMDUtLjA2LS4wNS0uMDY1LS4wNTEtLjA3LS4wNTItLjA3NC0uMDUxLS4wNzktLjA1Mi0uMDgzLS4wNTItLjA4OC0uMDUyLS4wOTItLjA1Mi0uMDk2LS4wNTItLjEwMS0uMDUyLS4xMDYtLjA1Mi0uMTEtLjA1Mi0uMTE0LS4wNTItLjExOC0uMDUxLS4xMjMtLjA1MS0uMTI2LS4wNTEtLjEzMS0uMDUtLjEzNi0uMDUtLjEzOS0uMDQ5LS4xNDMtLjA0OC0uMTQ4LS4wNDgtLjE1Mi0uMDQ4LS4xNTUtLjA0Ni0uMTYtLjA0Ni0uMTYzLS4wNDUtLjE2OC0uMDQzLS4xNzItLjA0My0uMTc1LS4wNDItLjE3OS0uMDQxLS4xODMtLjA0LS4xODctLjAzOC0uMTkxLS4wMzgtLjE5NC0uMDM2LS4xOTgtLjAzNC0uMjAyLS4wMzMtLjIwNS0uMDMyLS4yMS0uMDMxLS4yMTItLjAyOC0uMjE2LS4wMjctLjIyLS4wMjYtLjIyNC0uMDIzLS4yMjYtLjAyMi0uMjMxLS4wMjEtLjIzMy0uMDE4LS4yMzctLjAxNi0uMjQxLS4wMTQtLjI0NC0uMDEyLS4yNDctLjAxMS0uMjUtLjAwOC0uMjU0LS4wMDUtLjI1Ny0uMDA0LS4yNi0uMDAxLS4yNi4wMDF6IiB0cmFuc2Zvcm09InNjYWxlKC41KSI+PC9wYXRoPjwvc3ltYm9sPjwvZGVmcz48ZGVmcz48c3ltYm9sIGhlaWdodD0iMjQiIHdpZHRoPSIyNCIgaWQ9ImNsb2NrIj48cGF0aCBkPSJNMTIgMmM1LjUxNCAwIDEwIDQuNDg2IDEwIDEwcy00LjQ4NiAxMC0xMCAxMC0xMC00LjQ4Ni0xMC0xMCA0LjQ4Ni0xMCAxMC0xMHptMC0yYy02LjYyNyAwLTEyIDUuMzczLTEyIDEyczUuMzczIDEyIDEyIDEyIDEyLTUuMzczIDEyLTEyLTUuMzczLTEyLTEyLTEyem01Ljg0OCAxMi40NTljLjIwMi4wMzguMjAyLjMzMy4wMDEuMzcyLTEuOTA3LjM2MS02LjA0NSAxLjExMS02LjU0NyAxLjExMS0uNzE5IDAtMS4zMDEtLjU4Mi0xLjMwMS0xLjMwMSAwLS41MTIuNzctNS40NDcgMS4xMjUtNy40NDUuMDM0LS4xOTIuMzEyLS4xODEuMzQzLjAxNGwuOTg1IDYuMjM4IDUuMzk0IDEuMDExeiIgdHJhbnNmb3JtPSJzY2FsZSguNSkiPjwvcGF0aD48L3N5bWJvbD48L2RlZnM+PGc+PGxpbmUgc3Ryb2tlPSIjOTk5IiBzdHJva2Utd2lkdGg9IjAuNXB4IiBjbGFzcz0iMjAwIiB5Mj0iMzMwLjUiIHgyPSI3NSIgeTE9IjUiIHgxPSI3NSIgaWQ9ImFjdG9yMCI+PC9saW5lPjxnIGlkPSJyb290LTAiPjxyZWN0IGNsYXNzPSJhY3RvciIgcnk9IjMiIHJ4PSIzIiBoZWlnaHQ9IjY1IiB3aWR0aD0iMTUwIiBzdHJva2U9IiM2NjYiIGZpbGw9IiNlYWVhZWEiIHk9IjAiIHg9IjAiPjwvcmVjdD48dGV4dCBzdHlsZT0idGV4dC1hbmNob3I6IG1pZGRsZTsgZm9udC1zaXplOiAxNHB4OyBmb250LXdlaWdodDogNDAwOyBmb250LWZhbWlseTogT3Blbi1TYW5zLCAmcXVvdDtzYW5zLXNlcmlmJnF1b3Q7OyIgY2xhc3M9ImFjdG9yIiBhbGlnbm1lbnQtYmFzZWxpbmU9ImNlbnRyYWwiIGRvbWluYW50LWJhc2VsaW5lPSJjZW50cmFsIiB5PSIzMi41IiB4PSI3NSI+PHRzcGFuIGR5PSIwIiB4PSI3NSI+bXlHb3YgQ3VzdG9tZXI8L3RzcGFuPjwvdGV4dD48L2c+PC9nPjxnPjxsaW5lIHN0cm9rZT0iIzk5OSIgc3Ryb2tlLXdpZHRoPSIwLjVweCIgY2xhc3M9IjIwMCIgeTI9IjMzMC41IiB4Mj0iNDA1IiB5MT0iNSIgeDE9IjQwNSIgaWQ9ImFjdG9yMSI+PC9saW5lPjxnIGlkPSJyb290LTEiPjxyZWN0IGNsYXNzPSJhY3RvciIgcnk9IjMiIHJ4PSIzIiBoZWlnaHQ9IjY1IiB3aWR0aD0iMTUwIiBzdHJva2U9IiM2NjYiIGZpbGw9IiNlYWVhZWEiIHk9IjAiIHg9IjMzMCI+PC9yZWN0Pjx0ZXh0IHN0eWxlPSJ0ZXh0LWFuY2hvcjogbWlkZGxlOyBmb250LXNpemU6IDE0cHg7IGZvbnQtd2VpZ2h0OiA0MDA7IGZvbnQtZmFtaWx5OiBPcGVuLVNhbnMsICZxdW90O3NhbnMtc2VyaWYmcXVvdDs7IiBjbGFzcz0iYWN0b3IiIGFsaWdubWVudC1iYXNlbGluZT0iY2VudHJhbCIgZG9taW5hbnQtYmFzZWxpbmU9ImNlbnRyYWwiIHk9IjMyLjUiIHg9IjQwNSI+PHRzcGFuIGR5PSIwIiB4PSI0MDUiPkluYm94IFBvcnRhbDwvdHNwYW4+PC90ZXh0PjwvZz48L2c+PGc+PGxpbmUgc3Ryb2tlPSIjOTk5IiBzdHJva2Utd2lkdGg9IjAuNXB4IiBjbGFzcz0iMjAwIiB5Mj0iMzMwLjUiIHgyPSI3MzUiIHkxPSI1IiB4MT0iNzM1IiBpZD0iYWN0b3IyIj48L2xpbmU+PGcgaWQ9InJvb3QtMiI+PHJlY3QgY2xhc3M9ImFjdG9yIiByeT0iMyIgcng9IjMiIGhlaWdodD0iNjUiIHdpZHRoPSIxNjciIHN0cm9rZT0iIzY2NiIgZmlsbD0iI2VhZWFlYSIgeT0iMCIgeD0iNjUxLjUiPjwvcmVjdD48dGV4dCBzdHlsZT0idGV4dC1hbmNob3I6IG1pZGRsZTsgZm9udC1zaXplOiAxNHB4OyBmb250LXdlaWdodDogNDAwOyBmb250LWZhbWlseTogT3Blbi1TYW5zLCAmcXVvdDtzYW5zLXNlcmlmJnF1b3Q7OyIgY2xhc3M9ImFjdG9yIiBhbGlnbm1lbnQtYmFzZWxpbmU9ImNlbnRyYWwiIGRvbWluYW50LWJhc2VsaW5lPSJjZW50cmFsIiB5PSIzMi41IiB4PSI3MzUiPjx0c3BhbiBkeT0iMCIgeD0iNzM1Ij5teUdvdiBJbmJveCBBcHBsaWNhdGlvbjwvdHNwYW4+PC90ZXh0PjwvZz48L2c+PGc+PGxpbmUgc3Ryb2tlPSIjOTk5IiBzdHJva2Utd2lkdGg9IjAuNXB4IiBjbGFzcz0iMjAwIiB5Mj0iMzMwLjUiIHgyPSIxMDEwIiB5MT0iNSIgeDE9IjEwMTAiIGlkPSJhY3RvcjMiPjwvbGluZT48ZyBpZD0icm9vdC0zIj48cmVjdCBjbGFzcz0iYWN0b3IiIHJ5PSIzIiByeD0iMyIgaGVpZ2h0PSI2NSIgd2lkdGg9IjE1MCIgc3Ryb2tlPSIjNjY2IiBmaWxsPSIjZWFlYWVhIiB5PSIwIiB4PSI5MzUiPjwvcmVjdD48dGV4dCBzdHlsZT0idGV4dC1hbmNob3I6IG1pZGRsZTsgZm9udC1zaXplOiAxNHB4OyBmb250LXdlaWdodDogNDAwOyBmb250LWZhbWlseTogT3Blbi1TYW5zLCAmcXVvdDtzYW5zLXNlcmlmJnF1b3Q7OyIgY2xhc3M9ImFjdG9yIiBhbGlnbm1lbnQtYmFzZWxpbmU9ImNlbnRyYWwiIGRvbWluYW50LWJhc2VsaW5lPSJjZW50cmFsIiB5PSIzMi41IiB4PSIxMDEwIj48dHNwYW4gZHk9IjAiIHg9IjEwMTAiPm15R292IEluYm94IEFQSTwvdHNwYW4+PC90ZXh0PjwvZz48L2c+PGc+PGxpbmUgc3Ryb2tlPSIjOTk5IiBzdHJva2Utd2lkdGg9IjAuNXB4IiBjbGFzcz0iMjAwIiB5Mj0iMzMwLjUiIHgyPSIxMjYyIiB5MT0iNSIgeDE9IjEyNjIiIGlkPSJhY3RvcjQiPjwvbGluZT48ZyBpZD0icm9vdC00Ij48cmVjdCBjbGFzcz0iYWN0b3IiIHJ5PSIzIiByeD0iMyIgaGVpZ2h0PSI2NSIgd2lkdGg9IjE5OCIgc3Ryb2tlPSIjNjY2IiBmaWxsPSIjZWFlYWVhIiB5PSIwIiB4PSIxMTYzIj48L3JlY3Q+PHRleHQgc3R5bGU9InRleHQtYW5jaG9yOiBtaWRkbGU7IGZvbnQtc2l6ZTogMTRweDsgZm9udC13ZWlnaHQ6IDQwMDsgZm9udC1mYW1pbHk6IE9wZW4tU2FucywgJnF1b3Q7c2Fucy1zZXJpZiZxdW90OzsiIGNsYXNzPSJhY3RvciIgYWxpZ25tZW50LWJhc2VsaW5lPSJjZW50cmFsIiBkb21pbmFudC1iYXNlbGluZT0iY2VudHJhbCIgeT0iMzIuNSIgeD0iMTI2MiI+PHRzcGFuIGR5PSIwIiB4PSIxMjYyIj5SZWx5aW5nIFBhcnR5IEF0dGFjaG1lbnQgU3RvcmU8L3RzcGFuPjwvdGV4dD48L2c+PC9nPjxkZWZzPjxtYXJrZXIgb3JpZW50PSJhdXRvIiBtYXJrZXJIZWlnaHQ9IjEyIiBtYXJrZXJXaWR0aD0iMTIiIG1hcmtlclVuaXRzPSJ1c2VyU3BhY2VPblVzZSIgcmVmWT0iNSIgcmVmWD0iOSIgaWQ9ImFycm93aGVhZCI+PHBhdGggZD0iTSAwIDAgTCAxMCA1IEwgMCAxMCB6Ij48L3BhdGg+PC9tYXJrZXI+PC9kZWZzPjxkZWZzPjxtYXJrZXIgcmVmWT0iNCIgcmVmWD0iMTYiIG9yaWVudD0iYXV0byIgbWFya2VySGVpZ2h0PSI4IiBtYXJrZXJXaWR0aD0iMTUiIGlkPSJjcm9zc2hlYWQiPjxwYXRoIHN0eWxlPSJzdHJva2UtZGFzaGFycmF5OiAwLCAwOyIgZD0iTSA5LDIgViA2IEwxNiw0IFoiIHN0cm9rZS13aWR0aD0iMXB4IiBzdHJva2U9IiMwMDAwMDAiIGZpbGw9ImJsYWNrIj48L3BhdGg+PHBhdGggc3R5bGU9InN0cm9rZS1kYXNoYXJyYXk6IDAsIDA7IiBkPSJNIDAsMSBMIDYsNyBNIDYsMSBMIDAsNyIgc3Ryb2tlLXdpZHRoPSIxcHgiIHN0cm9rZT0iIzAwMDAwMCIgZmlsbD0ibm9uZSI+PC9wYXRoPjwvbWFya2VyPjwvZGVmcz48ZGVmcz48bWFya2VyIG9yaWVudD0iYXV0byIgbWFya2VySGVpZ2h0PSIyOCIgbWFya2VyV2lkdGg9IjIwIiByZWZZPSI3IiByZWZYPSIxOCIgaWQ9ImZpbGxlZC1oZWFkIj48cGF0aCBkPSJNIDE4LDcgTDksMTMgTDE0LDcgTDksMSBaIj48L3BhdGg+PC9tYXJrZXI+PC9kZWZzPjxkZWZzPjxtYXJrZXIgb3JpZW50PSJhdXRvIiBtYXJrZXJIZWlnaHQ9IjQwIiBtYXJrZXJXaWR0aD0iNjAiIHJlZlk9IjE1IiByZWZYPSIxNSIgaWQ9InNlcXVlbmNlbnVtYmVyIj48Y2lyY2xlIHI9IjYiIGN5PSIxNSIgY3g9IjE1Ij48L2NpcmNsZT48L21hcmtlcj48L2RlZnM+PHRleHQgc3R5bGU9ImZvbnQtZmFtaWx5OiAmcXVvdDt0cmVidWNoZXQgbXMmcXVvdDssIHZlcmRhbmEsIGFyaWFsOyBmb250LXNpemU6IDE2cHg7IGZvbnQtd2VpZ2h0OiA0MDA7IiBkeT0iMWVtIiBjbGFzcz0ibWVzc2FnZVRleHQiIGFsaWdubWVudC1iYXNlbGluZT0ibWlkZGxlIiBkb21pbmFudC1iYXNlbGluZT0ibWlkZGxlIiB0ZXh0LWFuY2hvcj0ibWlkZGxlIiB5PSI4MCIgeD0iMjQwIj5yZWFkTWVzc2FnZShtZXNzYWdlSWQpOiBtZXNzYWdlPC90ZXh0PjxsaW5lIHN0eWxlPSJmaWxsOiBub25lOyIgbWFya2VyLXN0YXJ0PSJ1cmwoI3NlcXVlbmNlbnVtYmVyKSIgbWFya2VyLWVuZD0idXJsKCNhcnJvd2hlYWQpIiBzdHJva2U9Im5vbmUiIHN0cm9rZS13aWR0aD0iMiIgY2xhc3M9Im1lc3NhZ2VMaW5lMCIgeTI9IjExMyIgeDI9IjQwNSIgeTE9IjExMyIgeDE9Ijc1Ij48L2xpbmU+PHRleHQgY2xhc3M9InNlcXVlbmNlTnVtYmVyIiB0ZXh0LWFuY2hvcj0ibWlkZGxlIiBmb250LXNpemU9IjEycHgiIGZvbnQtZmFtaWx5PSJzYW5zLXNlcmlmIiB5PSIxMTciIHg9Ijc1Ij4xPC90ZXh0Pjx0ZXh0IHN0eWxlPSJmb250LWZhbWlseTogJnF1b3Q7dHJlYnVjaGV0IG1zJnF1b3Q7LCB2ZXJkYW5hLCBhcmlhbDsgZm9udC1zaXplOiAxNnB4OyBmb250LXdlaWdodDogNDAwOyIgZHk9IjFlbSIgY2xhc3M9Im1lc3NhZ2VUZXh0IiBhbGlnbm1lbnQtYmFzZWxpbmU9Im1pZGRsZSIgZG9taW5hbnQtYmFzZWxpbmU9Im1pZGRsZSIgdGV4dC1hbmNob3I9Im1pZGRsZSIgeT0iMTI4IiB4PSI1NzAiPnJlYWRNZXNzYWdlKG1lc3NhZ2VJZCk6IG1lc3NhZ2U8L3RleHQ+PGxpbmUgc3R5bGU9ImZpbGw6IG5vbmU7IiBtYXJrZXItc3RhcnQ9InVybCgjc2VxdWVuY2VudW1iZXIpIiBtYXJrZXItZW5kPSJ1cmwoI2Fycm93aGVhZCkiIHN0cm9rZT0ibm9uZSIgc3Ryb2tlLXdpZHRoPSIyIiBjbGFzcz0ibWVzc2FnZUxpbmUwIiB5Mj0iMTYxIiB4Mj0iNzM1IiB5MT0iMTYxIiB4MT0iNDA1Ij48L2xpbmU+PHRleHQgY2xhc3M9InNlcXVlbmNlTnVtYmVyIiB0ZXh0LWFuY2hvcj0ibWlkZGxlIiBmb250LXNpemU9IjEycHgiIGZvbnQtZmFtaWx5PSJzYW5zLXNlcmlmIiB5PSIxNjUiIHg9IjQwNSI+MjwvdGV4dD48dGV4dCBzdHlsZT0iZm9udC1mYW1pbHk6ICZxdW90O3RyZWJ1Y2hldCBtcyZxdW90OywgdmVyZGFuYSwgYXJpYWw7IGZvbnQtc2l6ZTogMTZweDsgZm9udC13ZWlnaHQ6IDQwMDsiIGR5PSIxZW0iIGNsYXNzPSJtZXNzYWdlVGV4dCIgYWxpZ25tZW50LWJhc2VsaW5lPSJtaWRkbGUiIGRvbWluYW50LWJhc2VsaW5lPSJtaWRkbGUiIHRleHQtYW5jaG9yPSJtaWRkbGUiIHk9IjE3NiIgeD0iODczIj5ub3RpZnlSZWFkUmVjZWlwdChteUdvdklkLDwvdGV4dD48dGV4dCBzdHlsZT0iZm9udC1mYW1pbHk6ICZxdW90O3RyZWJ1Y2hldCBtcyZxdW90OywgdmVyZGFuYSwgYXJpYWw7IGZvbnQtc2l6ZTogMTZweDsgZm9udC13ZWlnaHQ6IDQwMDsiIGR5PSIxZW0iIGNsYXNzPSJtZXNzYWdlVGV4dCIgYWxpZ25tZW50LWJhc2VsaW5lPSJtaWRkbGUiIGRvbWluYW50LWJhc2VsaW5lPSJtaWRkbGUiIHRleHQtYW5jaG9yPSJtaWRkbGUiIHk9IjE5NCIgeD0iODczIj5tZXNzYWdlSWQpIDogc3RhdHVzPC90ZXh0PjxsaW5lIHN0eWxlPSJmaWxsOiBub25lOyIgbWFya2VyLXN0YXJ0PSJ1cmwoI3NlcXVlbmNlbnVtYmVyKSIgbWFya2VyLWVuZD0idXJsKCNhcnJvd2hlYWQpIiBzdHJva2U9Im5vbmUiIHN0cm9rZS13aWR0aD0iMiIgY2xhc3M9Im1lc3NhZ2VMaW5lMCIgeTI9IjIyNi41IiB4Mj0iMTAxMCIgeTE9IjIyNi41IiB4MT0iNzM1Ij48L2xpbmU+PHRleHQgY2xhc3M9InNlcXVlbmNlTnVtYmVyIiB0ZXh0LWFuY2hvcj0ibWlkZGxlIiBmb250LXNpemU9IjEycHgiIGZvbnQtZmFtaWx5PSJzYW5zLXNlcmlmIiB5PSIyMzAuNSIgeD0iNzM1Ij4zPC90ZXh0Pjx0ZXh0IHN0eWxlPSJmb250LWZhbWlseTogJnF1b3Q7dHJlYnVjaGV0IG1zJnF1b3Q7LCB2ZXJkYW5hLCBhcmlhbDsgZm9udC1zaXplOiAxNnB4OyBmb250LXdlaWdodDogNDAwOyIgZHk9IjFlbSIgY2xhc3M9Im1lc3NhZ2VUZXh0IiBhbGlnbm1lbnQtYmFzZWxpbmU9Im1pZGRsZSIgZG9taW5hbnQtYmFzZWxpbmU9Im1pZGRsZSIgdGV4dC1hbmNob3I9Im1pZGRsZSIgeT0iMjQyIiB4PSIxMTM2Ij5ub3RpZnlSZWFkUmVjZWlwdChtYnVuLDwvdGV4dD48dGV4dCBzdHlsZT0iZm9udC1mYW1pbHk6ICZxdW90O3RyZWJ1Y2hldCBtcyZxdW90OywgdmVyZGFuYSwgYXJpYWw7IGZvbnQtc2l6ZTogMTZweDsgZm9udC13ZWlnaHQ6IDQwMDsiIGR5PSIxZW0iIGNsYXNzPSJtZXNzYWdlVGV4dCIgYWxpZ25tZW50LWJhc2VsaW5lPSJtaWRkbGUiIGRvbWluYW50LWJhc2VsaW5lPSJtaWRkbGUiIHRleHQtYW5jaG9yPSJtaWRkbGUiIHk9IjI2MCIgeD0iMTEzNiI+bWVzc2FnZUlkKSA6IHN0YXR1czwvdGV4dD48bGluZSBzdHlsZT0iZmlsbDogbm9uZTsiIG1hcmtlci1zdGFydD0idXJsKCNzZXF1ZW5jZW51bWJlcikiIG1hcmtlci1lbmQ9InVybCgjYXJyb3doZWFkKSIgc3Ryb2tlPSJub25lIiBzdHJva2Utd2lkdGg9IjIiIGNsYXNzPSJtZXNzYWdlTGluZTAiIHkyPSIyOTAuNSIgeDI9IjEyNjIiIHkxPSIyOTAuNSIgeDE9IjEwMTAiPjwvbGluZT48dGV4dCBjbGFzcz0ic2VxdWVuY2VOdW1iZXIiIHRleHQtYW5jaG9yPSJtaWRkbGUiIGZvbnQtc2l6ZT0iMTJweCIgZm9udC1mYW1pbHk9InNhbnMtc2VyaWYiIHk9IjI5NC41IiB4PSIxMDEwIj40PC90ZXh0PjxnPjxyZWN0IGNsYXNzPSJhY3RvciIgcnk9IjMiIHJ4PSIzIiBoZWlnaHQ9IjY1IiB3aWR0aD0iMTUwIiBzdHJva2U9IiM2NjYiIGZpbGw9IiNlYWVhZWEiIHk9IjMxMC41IiB4PSIwIj48L3JlY3Q+PHRleHQgc3R5bGU9InRleHQtYW5jaG9yOiBtaWRkbGU7IGZvbnQtc2l6ZTogMTRweDsgZm9udC13ZWlnaHQ6IDQwMDsgZm9udC1mYW1pbHk6IE9wZW4tU2FucywgJnF1b3Q7c2Fucy1zZXJpZiZxdW90OzsiIGNsYXNzPSJhY3RvciIgYWxpZ25tZW50LWJhc2VsaW5lPSJjZW50cmFsIiBkb21pbmFudC1iYXNlbGluZT0iY2VudHJhbCIgeT0iMzQzIiB4PSI3NSI+PHRzcGFuIGR5PSIwIiB4PSI3NSI+bXlHb3YgQ3VzdG9tZXI8L3RzcGFuPjwvdGV4dD48L2c+PGc+PHJlY3QgY2xhc3M9ImFjdG9yIiByeT0iMyIgcng9IjMiIGhlaWdodD0iNjUiIHdpZHRoPSIxNTAiIHN0cm9rZT0iIzY2NiIgZmlsbD0iI2VhZWFlYSIgeT0iMzEwLjUiIHg9IjMzMCI+PC9yZWN0Pjx0ZXh0IHN0eWxlPSJ0ZXh0LWFuY2hvcjogbWlkZGxlOyBmb250LXNpemU6IDE0cHg7IGZvbnQtd2VpZ2h0OiA0MDA7IGZvbnQtZmFtaWx5OiBPcGVuLVNhbnMsICZxdW90O3NhbnMtc2VyaWYmcXVvdDs7IiBjbGFzcz0iYWN0b3IiIGFsaWdubWVudC1iYXNlbGluZT0iY2VudHJhbCIgZG9taW5hbnQtYmFzZWxpbmU9ImNlbnRyYWwiIHk9IjM0MyIgeD0iNDA1Ij48dHNwYW4gZHk9IjAiIHg9IjQwNSI+SW5ib3ggUG9ydGFsPC90c3Bhbj48L3RleHQ+PC9nPjxnPjxyZWN0IGNsYXNzPSJhY3RvciIgcnk9IjMiIHJ4PSIzIiBoZWlnaHQ9IjY1IiB3aWR0aD0iMTY3IiBzdHJva2U9IiM2NjYiIGZpbGw9IiNlYWVhZWEiIHk9IjMxMC41IiB4PSI2NTEuNSI+PC9yZWN0Pjx0ZXh0IHN0eWxlPSJ0ZXh0LWFuY2hvcjogbWlkZGxlOyBmb250LXNpemU6IDE0cHg7IGZvbnQtd2VpZ2h0OiA0MDA7IGZvbnQtZmFtaWx5OiBPcGVuLVNhbnMsICZxdW90O3NhbnMtc2VyaWYmcXVvdDs7IiBjbGFzcz0iYWN0b3IiIGFsaWdubWVudC1iYXNlbGluZT0iY2VudHJhbCIgZG9taW5hbnQtYmFzZWxpbmU9ImNlbnRyYWwiIHk9IjM0MyIgeD0iNzM1Ij48dHNwYW4gZHk9IjAiIHg9IjczNSI+bXlHb3YgSW5ib3ggQXBwbGljYXRpb248L3RzcGFuPjwvdGV4dD48L2c+PGc+PHJlY3QgY2xhc3M9ImFjdG9yIiByeT0iMyIgcng9IjMiIGhlaWdodD0iNjUiIHdpZHRoPSIxNTAiIHN0cm9rZT0iIzY2NiIgZmlsbD0iI2VhZWFlYSIgeT0iMzEwLjUiIHg9IjkzNSI+PC9yZWN0Pjx0ZXh0IHN0eWxlPSJ0ZXh0LWFuY2hvcjogbWlkZGxlOyBmb250LXNpemU6IDE0cHg7IGZvbnQtd2VpZ2h0OiA0MDA7IGZvbnQtZmFtaWx5OiBPcGVuLVNhbnMsICZxdW90O3NhbnMtc2VyaWYmcXVvdDs7IiBjbGFzcz0iYWN0b3IiIGFsaWdubWVudC1iYXNlbGluZT0iY2VudHJhbCIgZG9taW5hbnQtYmFzZWxpbmU9ImNlbnRyYWwiIHk9IjM0MyIgeD0iMTAxMCI+PHRzcGFuIGR5PSIwIiB4PSIxMDEwIj5teUdvdiBJbmJveCBBUEk8L3RzcGFuPjwvdGV4dD48L2c+PGc+PHJlY3QgY2xhc3M9ImFjdG9yIiByeT0iMyIgcng9IjMiIGhlaWdodD0iNjUiIHdpZHRoPSIxOTgiIHN0cm9rZT0iIzY2NiIgZmlsbD0iI2VhZWFlYSIgeT0iMzEwLjUiIHg9IjExNjMiPjwvcmVjdD48dGV4dCBzdHlsZT0idGV4dC1hbmNob3I6IG1pZGRsZTsgZm9udC1zaXplOiAxNHB4OyBmb250LXdlaWdodDogNDAwOyBmb250LWZhbWlseTogT3Blbi1TYW5zLCAmcXVvdDtzYW5zLXNlcmlmJnF1b3Q7OyIgY2xhc3M9ImFjdG9yIiBhbGlnbm1lbnQtYmFzZWxpbmU9ImNlbnRyYWwiIGRvbWluYW50LWJhc2VsaW5lPSJjZW50cmFsIiB5PSIzNDMiIHg9IjEyNjIiPjx0c3BhbiBkeT0iMCIgeD0iMTI2MiI+UmVseWluZyBQYXJ0eSBBdHRhY2htZW50IFN0b3JlPC90c3Bhbj48L3RleHQ+PC9nPjwvc3ZnPg==;" parent="EQnTpLThECwJIja0AJ52-1" vertex="1">
                        <mxGeometry x="40" y="-1080" width="760" height="220" as="geometry"/>
                    </mxCell>
                </UserObject>
                <mxCell id="EQnTpLThECwJIja0AJ52-4" value="Components" parent="EQnTpLThECwJIja0AJ52-0"/>
            </root>
        </mxGraphModel>
    </diagram>
    <diagram name="03-retrieveattachment-seq" id="oQIoJYLeneWpCUZ-u2by">
        <mxGraphModel dx="1523" dy="2683" grid="1" gridSize="10" guides="1" tooltips="1" connect="1" arrows="1" fold="1" page="1" pageScale="1" pageWidth="827" pageHeight="1169" background="#ffffff" math="0" shadow="0">
            <root>
                <mxCell id="Sr4nyESnENaQ82weLLqm-0"/>
                <mxCell id="Sr4nyESnENaQ82weLLqm-1" style="" parent="Sr4nyESnENaQ82weLLqm-0"/>
                <mxCell id="r6R8OxWHSRksvojI6LM3-0" value="&lt;span style=&quot;color: rgb(0, 0, 0);&quot;&gt;Digtial Mailbox - Retrieve Attachment&lt;/span&gt;" style="rounded=1;whiteSpace=wrap;html=1;fillColor=#e6e6e6;verticalAlign=top;fontSize=20;fontStyle=1" vertex="1" parent="Sr4nyESnENaQ82weLLqm-1">
                    <mxGeometry x="40" y="-1120" width="690" height="270" as="geometry"/>
                </mxCell>
                <UserObject label="" mermaidData="{&#10;  &quot;data&quot;: &quot;%%{init: {'theme': 'forest', 'themeVariables': { 'primaryColor': '#ffcccc', 'edgeLabelBackground':'#ffffee', 'tertiaryColor': '#fff0f0'}}}%%\nsequenceDiagram\nautonumber\n        participant MGV_CUST as myGov Customer\n        participant MGV_IB_WEB as Inbox Portal\n        participant MGV_IB_APP as myGov Inbox Application\n        participant MGV_RP_ATT_STR as Relying Party Attachment Store\n\n        MGV_CUST -&gt;&gt; MGV_IB_WEB : readMessage(messageId): message\n        MGV_IB_WEB -&gt;&gt; MGV_IB_APP : readMessage(messageId): message\n        MGV_CUST -&gt;&gt; MGV_IB_WEB : readAttachment(messageId, attachmentId):&lt;br&gt; attachment\n        MGV_IB_WEB -&gt;&gt; MGV_IB_APP : readAttachment(messageId, attachmentId):&lt;br&gt; attachment\n        MGV_IB_APP -&gt;&gt; MGV_RP_ATT_STR : retrieveAttachment(mbun, messageId, &lt;br&gt;attachmentId): attachment\n&quot;,&#10;  &quot;config&quot;: {&#10;    &quot;startOnLoad&quot;: false,&#10;    &quot;themeCSS&quot;: &quot;&quot;,&#10;    &quot;theme&quot;: &quot;neutral&quot;,&#10;    &quot;arrowMarkerAbsolute&quot;: false,&#10;    &quot;flowchart&quot;: {&#10;      &quot;diagramPadding&quot;: 8,&#10;      &quot;htmlLabels&quot;: false,&#10;      &quot;nodeSpacing&quot;: 50,&#10;      &quot;rankSpacing&quot;: 50,&#10;      &quot;curve&quot;: &quot;linear&quot;,&#10;      &quot;padding&quot;: 15,&#10;      &quot;useMaxWidth&quot;: true&#10;    },&#10;    &quot;sequence&quot;: {&#10;      &quot;activationWidth&quot;: 10,&#10;      &quot;diagramMarginX&quot;: 50,&#10;      &quot;diagramMarginY&quot;: 10,&#10;      &quot;actorMargin&quot;: 50,&#10;      &quot;width&quot;: 150,&#10;      &quot;height&quot;: 65,&#10;      &quot;boxMargin&quot;: 10,&#10;      &quot;boxTextMargin&quot;: 5,&#10;      &quot;noteMargin&quot;: 10,&#10;      &quot;messageMargin&quot;: 35,&#10;      &quot;messageAlign&quot;: &quot;center&quot;,&#10;      &quot;mirrorActors&quot;: true,&#10;      &quot;bottomMarginAdj&quot;: 1,&#10;      &quot;useMaxWidth&quot;: true,&#10;      &quot;rightAngles&quot;: false,&#10;      &quot;showSequenceNumbers&quot;: false,&#10;      &quot;actorFontSize&quot;: 14,&#10;      &quot;actorFontFamily&quot;: &quot;\&quot;Open-Sans\&quot;, \&quot;sans-serif\&quot;&quot;,&#10;      &quot;actorFontWeight&quot;: 400,&#10;      &quot;noteFontSize&quot;: 14,&#10;      &quot;noteFontFamily&quot;: &quot;\&quot;trebuchet ms\&quot;, verdana, arial&quot;,&#10;      &quot;noteFontWeight&quot;: 400,&#10;      &quot;noteAlign&quot;: &quot;center&quot;,&#10;      &quot;messageFontSize&quot;: 16,&#10;      &quot;messageFontFamily&quot;: &quot;\&quot;trebuchet ms\&quot;, verdana, arial&quot;,&#10;      &quot;messageFontWeight&quot;: 400,&#10;      &quot;wrap&quot;: false,&#10;      &quot;wrapPadding&quot;: 10,&#10;      &quot;labelBoxWidth&quot;: 50,&#10;      &quot;labelBoxHeight&quot;: 20&#10;    },&#10;    &quot;gantt&quot;: {&#10;      &quot;titleTopMargin&quot;: 25,&#10;      &quot;barHeight&quot;: 20,&#10;      &quot;barGap&quot;: 4,&#10;      &quot;topPadding&quot;: 50,&#10;      &quot;leftPadding&quot;: 75,&#10;      &quot;gridLineStartPadding&quot;: 35,&#10;      &quot;fontSize&quot;: 11,&#10;      &quot;fontFamily&quot;: &quot;\&quot;Open-Sans\&quot;, \&quot;sans-serif\&quot;&quot;,&#10;      &quot;numberSectionStyles&quot;: 4,&#10;      &quot;axisFormat&quot;: &quot;%Y-%m-%d&quot;,&#10;      &quot;useMaxWidth&quot;: true&#10;    },&#10;    &quot;journey&quot;: {&#10;      &quot;diagramMarginX&quot;: 50,&#10;      &quot;diagramMarginY&quot;: 10,&#10;      &quot;actorMargin&quot;: 50,&#10;      &quot;width&quot;: 150,&#10;      &quot;height&quot;: 65,&#10;      &quot;boxMargin&quot;: 10,&#10;      &quot;boxTextMargin&quot;: 5,&#10;      &quot;noteMargin&quot;: 10,&#10;      &quot;messageMargin&quot;: 35,&#10;      &quot;messageAlign&quot;: &quot;center&quot;,&#10;      &quot;bottomMarginAdj&quot;: 1,&#10;      &quot;useMaxWidth&quot;: true,&#10;      &quot;rightAngles&quot;: false&#10;    },&#10;    &quot;class&quot;: {&#10;      &quot;arrowMarkerAbsolute&quot;: false,&#10;      &quot;useMaxWidth&quot;: true&#10;    },&#10;    &quot;git&quot;: {&#10;      &quot;arrowMarkerAbsolute&quot;: false,&#10;      &quot;useMaxWidth&quot;: true&#10;    },&#10;    &quot;state&quot;: {&#10;      &quot;dividerMargin&quot;: 10,&#10;      &quot;sizeUnit&quot;: 5,&#10;      &quot;padding&quot;: 8,&#10;      &quot;textHeight&quot;: 10,&#10;      &quot;titleShift&quot;: -15,&#10;      &quot;noteMargin&quot;: 10,&#10;      &quot;forkWidth&quot;: 70,&#10;      &quot;forkHeight&quot;: 7,&#10;      &quot;miniPadding&quot;: 2,&#10;      &quot;fontSizeFactor&quot;: 5.02,&#10;      &quot;fontSize&quot;: 24,&#10;      &quot;labelHeight&quot;: 16,&#10;      &quot;edgeLengthFactor&quot;: &quot;20&quot;,&#10;      &quot;compositTitleSize&quot;: 35,&#10;      &quot;radius&quot;: 5&#10;    },&#10;    &quot;er&quot;: {&#10;      &quot;diagramPadding&quot;: 20,&#10;      &quot;layoutDirection&quot;: &quot;TB&quot;,&#10;      &quot;minEntityWidth&quot;: 100,&#10;      &quot;minEntityHeight&quot;: 75,&#10;      &quot;entityPadding&quot;: 15,&#10;      &quot;stroke&quot;: &quot;grey&quot;,&#10;      &quot;fill&quot;: &quot;honeydew&quot;,&#10;      &quot;fontSize&quot;: 12,&#10;      &quot;useMaxWidth&quot;: true&#10;    },&#10;    &quot;pie&quot;: {&#10;      &quot;useMaxWidth&quot;: true&#10;    }&#10;  }&#10;}" id="0GIcp9vWIyaDQcbhIGVZ-0">
                    <mxCell style="shape=image;noLabel=1;verticalAlign=top;imageAspect=1;image=data:image/svg+xml,PHN2ZyBhcmlhLWxhYmVsbGVkYnk9ImNoYXJ0LXRpdGxlLWdlTWVybWFpZE91dHB1dC0xNzI0ODc2MTkwNDkyIGNoYXJ0LWRlc2MtZ2VNZXJtYWlkT3V0cHV0LTE3MjQ4NzYxOTA0OTIiIHJvbGU9ImltZyIgdmlld0JveD0iLTUwIC0xMCAxMzkxIDQ1OSIgc3R5bGU9Im1heC13aWR0aDogMTM5MXB4OyIgaGVpZ2h0PSI0NTkiIHhtbG5zPSJodHRwOi8vd3d3LnczLm9yZy8yMDAwL3N2ZyIgd2lkdGg9IjEwMCUiIGlkPSJnZU1lcm1haWRPdXRwdXQtMTcyNDg3NjE5MDQ5MiI+PHRpdGxlIGlkPSJjaGFydC10aXRsZS1nZU1lcm1haWRPdXRwdXQtMTcyNDg3NjE5MDQ5MiI+PC90aXRsZT48ZGVzYyBpZD0iY2hhcnQtZGVzYy1nZU1lcm1haWRPdXRwdXQtMTcyNDg3NjE5MDQ5MiI+PC9kZXNjPjxzdHlsZT4jZ2VNZXJtYWlkT3V0cHV0LTE3MjQ4NzYxOTA0OTIge2ZvbnQtZmFtaWx5OiJ0cmVidWNoZXQgbXMiLHZlcmRhbmEsYXJpYWwsc2Fucy1zZXJpZjtmb250LXNpemU6MTZweDtmaWxsOiMwMDAwMDA7fSNnZU1lcm1haWRPdXRwdXQtMTcyNDg3NjE5MDQ5MiAuZXJyb3ItaWNvbntmaWxsOiM1NTIyMjI7fSNnZU1lcm1haWRPdXRwdXQtMTcyNDg3NjE5MDQ5MiAuZXJyb3ItdGV4dHtmaWxsOiM1NTIyMjI7c3Ryb2tlOiM1NTIyMjI7fSNnZU1lcm1haWRPdXRwdXQtMTcyNDg3NjE5MDQ5MiAuZWRnZS10aGlja25lc3Mtbm9ybWFse3N0cm9rZS13aWR0aDoycHg7fSNnZU1lcm1haWRPdXRwdXQtMTcyNDg3NjE5MDQ5MiAuZWRnZS10aGlja25lc3MtdGhpY2t7c3Ryb2tlLXdpZHRoOjMuNXB4O30jZ2VNZXJtYWlkT3V0cHV0LTE3MjQ4NzYxOTA0OTIgLmVkZ2UtcGF0dGVybi1zb2xpZHtzdHJva2UtZGFzaGFycmF5OjA7fSNnZU1lcm1haWRPdXRwdXQtMTcyNDg3NjE5MDQ5MiAuZWRnZS1wYXR0ZXJuLWRhc2hlZHtzdHJva2UtZGFzaGFycmF5OjM7fSNnZU1lcm1haWRPdXRwdXQtMTcyNDg3NjE5MDQ5MiAuZWRnZS1wYXR0ZXJuLWRvdHRlZHtzdHJva2UtZGFzaGFycmF5OjI7fSNnZU1lcm1haWRPdXRwdXQtMTcyNDg3NjE5MDQ5MiAubWFya2Vye2ZpbGw6IzAwMDAwMDtzdHJva2U6IzAwMDAwMDt9I2dlTWVybWFpZE91dHB1dC0xNzI0ODc2MTkwNDkyIC5tYXJrZXIuY3Jvc3N7c3Ryb2tlOiMwMDAwMDA7fSNnZU1lcm1haWRPdXRwdXQtMTcyNDg3NjE5MDQ5MiBzdmd7Zm9udC1mYW1pbHk6InRyZWJ1Y2hldCBtcyIsdmVyZGFuYSxhcmlhbCxzYW5zLXNlcmlmO2ZvbnQtc2l6ZToxNnB4O30jZ2VNZXJtYWlkT3V0cHV0LTE3MjQ4NzYxOTA0OTIgLmFjdG9ye3N0cm9rZTpoc2woNzguMTU3ODk0NzM2OCwgNTguNDYxNTM4NDYxNSUsIDU0LjUwOTgwMzkyMTYlKTtmaWxsOiNjZGU0OTg7fSNnZU1lcm1haWRPdXRwdXQtMTcyNDg3NjE5MDQ5MiB0ZXh0LmFjdG9yJmd0O3RzcGFue2ZpbGw6YmxhY2s7c3Ryb2tlOm5vbmU7fSNnZU1lcm1haWRPdXRwdXQtMTcyNDg3NjE5MDQ5MiAuYWN0b3ItbGluZXtzdHJva2U6Z3JleTt9I2dlTWVybWFpZE91dHB1dC0xNzI0ODc2MTkwNDkyIC5tZXNzYWdlTGluZTB7c3Ryb2tlLXdpZHRoOjEuNTtzdHJva2UtZGFzaGFycmF5Om5vbmU7c3Ryb2tlOiMzMzM7fSNnZU1lcm1haWRPdXRwdXQtMTcyNDg3NjE5MDQ5MiAubWVzc2FnZUxpbmUxe3N0cm9rZS13aWR0aDoxLjU7c3Ryb2tlLWRhc2hhcnJheToyLDI7c3Ryb2tlOiMzMzM7fSNnZU1lcm1haWRPdXRwdXQtMTcyNDg3NjE5MDQ5MiAjYXJyb3doZWFkIHBhdGh7ZmlsbDojMzMzO3N0cm9rZTojMzMzO30jZ2VNZXJtYWlkT3V0cHV0LTE3MjQ4NzYxOTA0OTIgLnNlcXVlbmNlTnVtYmVye2ZpbGw6d2hpdGU7fSNnZU1lcm1haWRPdXRwdXQtMTcyNDg3NjE5MDQ5MiAjc2VxdWVuY2VudW1iZXJ7ZmlsbDojMzMzO30jZ2VNZXJtYWlkT3V0cHV0LTE3MjQ4NzYxOTA0OTIgI2Nyb3NzaGVhZCBwYXRoe2ZpbGw6IzMzMztzdHJva2U6IzMzMzt9I2dlTWVybWFpZE91dHB1dC0xNzI0ODc2MTkwNDkyIC5tZXNzYWdlVGV4dHtmaWxsOiMzMzM7c3Ryb2tlOiMzMzM7fSNnZU1lcm1haWRPdXRwdXQtMTcyNDg3NjE5MDQ5MiAubGFiZWxCb3h7c3Ryb2tlOiMzMjY5MzI7ZmlsbDojY2RlNDk4O30jZ2VNZXJtYWlkT3V0cHV0LTE3MjQ4NzYxOTA0OTIgLmxhYmVsVGV4dCwjZ2VNZXJtYWlkT3V0cHV0LTE3MjQ4NzYxOTA0OTIgLmxhYmVsVGV4dCZndDt0c3BhbntmaWxsOmJsYWNrO3N0cm9rZTpub25lO30jZ2VNZXJtYWlkT3V0cHV0LTE3MjQ4NzYxOTA0OTIgLmxvb3BUZXh0LCNnZU1lcm1haWRPdXRwdXQtMTcyNDg3NjE5MDQ5MiAubG9vcFRleHQmZ3Q7dHNwYW57ZmlsbDpibGFjaztzdHJva2U6bm9uZTt9I2dlTWVybWFpZE91dHB1dC0xNzI0ODc2MTkwNDkyIC5sb29wTGluZXtzdHJva2Utd2lkdGg6MnB4O3N0cm9rZS1kYXNoYXJyYXk6MiwyO3N0cm9rZTojMzI2OTMyO2ZpbGw6IzMyNjkzMjt9I2dlTWVybWFpZE91dHB1dC0xNzI0ODc2MTkwNDkyIC5ub3Rle3N0cm9rZTojNmVhYTQ5O2ZpbGw6I2ZmZjVhZDt9I2dlTWVybWFpZE91dHB1dC0xNzI0ODc2MTkwNDkyIC5ub3RlVGV4dCwjZ2VNZXJtYWlkT3V0cHV0LTE3MjQ4NzYxOTA0OTIgLm5vdGVUZXh0Jmd0O3RzcGFue2ZpbGw6YmxhY2s7c3Ryb2tlOm5vbmU7fSNnZU1lcm1haWRPdXRwdXQtMTcyNDg3NjE5MDQ5MiAuYWN0aXZhdGlvbjB7ZmlsbDojZjRmNGY0O3N0cm9rZTojNjY2O30jZ2VNZXJtYWlkT3V0cHV0LTE3MjQ4NzYxOTA0OTIgLmFjdGl2YXRpb24xe2ZpbGw6I2Y0ZjRmNDtzdHJva2U6IzY2Njt9I2dlTWVybWFpZE91dHB1dC0xNzI0ODc2MTkwNDkyIC5hY3RpdmF0aW9uMntmaWxsOiNmNGY0ZjQ7c3Ryb2tlOiM2NjY7fSNnZU1lcm1haWRPdXRwdXQtMTcyNDg3NjE5MDQ5MiAuYWN0b3JQb3B1cE1lbnV7cG9zaXRpb246YWJzb2x1dGU7fSNnZU1lcm1haWRPdXRwdXQtMTcyNDg3NjE5MDQ5MiAuYWN0b3JQb3B1cE1lbnVQYW5lbHtwb3NpdGlvbjphYnNvbHV0ZTtmaWxsOiNjZGU0OTg7Ym94LXNoYWRvdzowcHggOHB4IDE2cHggMHB4IHJnYmEoMCwwLDAsMC4yKTtmaWx0ZXI6ZHJvcC1zaGFkb3coM3B4IDVweCAycHggcmdiKDAgMCAwIC8gMC40KSk7fSNnZU1lcm1haWRPdXRwdXQtMTcyNDg3NjE5MDQ5MiAuYWN0b3ItbWFuIGxpbmV7c3Ryb2tlOmhzbCg3OC4xNTc4OTQ3MzY4LCA1OC40NjE1Mzg0NjE1JSwgNTQuNTA5ODAzOTIxNiUpO2ZpbGw6I2NkZTQ5ODt9I2dlTWVybWFpZE91dHB1dC0xNzI0ODc2MTkwNDkyIC5hY3Rvci1tYW4gY2lyY2xlLCNnZU1lcm1haWRPdXRwdXQtMTcyNDg3NjE5MDQ5MiBsaW5le3N0cm9rZTpoc2woNzguMTU3ODk0NzM2OCwgNTguNDYxNTM4NDYxNSUsIDU0LjUwOTgwMzkyMTYlKTtmaWxsOiNjZGU0OTg7c3Ryb2tlLXdpZHRoOjJweDt9I2dlTWVybWFpZE91dHB1dC0xNzI0ODc2MTkwNDkyIDpyb290ey0tbWVybWFpZC1mb250LWZhbWlseToidHJlYnVjaGV0IG1zIix2ZXJkYW5hLGFyaWFsLHNhbnMtc2VyaWY7fTwvc3R5bGU+PGc+PC9nPjxkZWZzPjxzeW1ib2wgaGVpZ2h0PSIyNCIgd2lkdGg9IjI0IiBpZD0iY29tcHV0ZXIiPjxwYXRoIGQ9Ik0yIDJ2MTNoMjB2LTEzaC0yMHptMTggMTFoLTE2di05aDE2djl6bS0xMC4yMjggNmwuNDY2LTFoMy41MjRsLjQ2NyAxaC00LjQ1N3ptMTQuMjI4IDNoLTI0bDItNmgyLjEwNGwtMS4zMyA0aDE4LjQ1bC0xLjI5Ny00aDIuMDczbDIgNnptLTUtMTBoLTE0di03aDE0djd6IiB0cmFuc2Zvcm09InNjYWxlKC41KSI+PC9wYXRoPjwvc3ltYm9sPjwvZGVmcz48ZGVmcz48c3ltYm9sIGNsaXAtcnVsZT0iZXZlbm9kZCIgZmlsbC1ydWxlPSJldmVub2RkIiBpZD0iZGF0YWJhc2UiPjxwYXRoIGQ9Ik0xMi4yNTguMDAxbC4yNTYuMDA0LjI1NS4wMDUuMjUzLjAwOC4yNTEuMDEuMjQ5LjAxMi4yNDcuMDE1LjI0Ni4wMTYuMjQyLjAxOS4yNDEuMDIuMjM5LjAyMy4yMzYuMDI0LjIzMy4wMjcuMjMxLjAyOC4yMjkuMDMxLjIyNS4wMzIuMjIzLjAzNC4yMi4wMzYuMjE3LjAzOC4yMTQuMDQuMjExLjA0MS4yMDguMDQzLjIwNS4wNDUuMjAxLjA0Ni4xOTguMDQ4LjE5NC4wNS4xOTEuMDUxLjE4Ny4wNTMuMTgzLjA1NC4xOC4wNTYuMTc1LjA1Ny4xNzIuMDU5LjE2OC4wNi4xNjMuMDYxLjE2LjA2My4xNTUuMDY0LjE1LjA2Ni4wNzQuMDMzLjA3My4wMzMuMDcxLjAzNC4wNy4wMzQuMDY5LjAzNS4wNjguMDM1LjA2Ny4wMzUuMDY2LjAzNS4wNjQuMDM2LjA2NC4wMzYuMDYyLjAzNi4wNi4wMzYuMDYuMDM3LjA1OC4wMzcuMDU4LjAzNy4wNTUuMDM4LjA1NS4wMzguMDUzLjAzOC4wNTIuMDM4LjA1MS4wMzkuMDUuMDM5LjA0OC4wMzkuMDQ3LjAzOS4wNDUuMDQuMDQ0LjA0LjA0My4wNC4wNDEuMDQuMDQuMDQxLjAzOS4wNDEuMDM3LjA0MS4wMzYuMDQxLjAzNC4wNDEuMDMzLjA0Mi4wMzIuMDQyLjAzLjA0Mi4wMjkuMDQyLjAyNy4wNDIuMDI2LjA0My4wMjQuMDQzLjAyMy4wNDMuMDIxLjA0My4wMi4wNDMuMDE4LjA0NC4wMTcuMDQzLjAxNS4wNDQuMDEzLjA0NC4wMTIuMDQ0LjAxMS4wNDUuMDA5LjA0NC4wMDcuMDQ1LjAwNi4wNDUuMDA0LjA0NS4wMDIuMDQ1LjAwMS4wNDV2MTdsLS4wMDEuMDQ1LS4wMDIuMDQ1LS4wMDQuMDQ1LS4wMDYuMDQ1LS4wMDcuMDQ1LS4wMDkuMDQ0LS4wMTEuMDQ1LS4wMTIuMDQ0LS4wMTMuMDQ0LS4wMTUuMDQ0LS4wMTcuMDQzLS4wMTguMDQ0LS4wMi4wNDMtLjAyMS4wNDMtLjAyMy4wNDMtLjAyNC4wNDMtLjAyNi4wNDMtLjAyNy4wNDItLjAyOS4wNDItLjAzLjA0Mi0uMDMyLjA0Mi0uMDMzLjA0Mi0uMDM0LjA0MS0uMDM2LjA0MS0uMDM3LjA0MS0uMDM5LjA0MS0uMDQuMDQxLS4wNDEuMDQtLjA0My4wNC0uMDQ0LjA0LS4wNDUuMDQtLjA0Ny4wMzktLjA0OC4wMzktLjA1LjAzOS0uMDUxLjAzOS0uMDUyLjAzOC0uMDUzLjAzOC0uMDU1LjAzOC0uMDU1LjAzOC0uMDU4LjAzNy0uMDU4LjAzNy0uMDYuMDM3LS4wNi4wMzYtLjA2Mi4wMzYtLjA2NC4wMzYtLjA2NC4wMzYtLjA2Ni4wMzUtLjA2Ny4wMzUtLjA2OC4wMzUtLjA2OS4wMzUtLjA3LjAzNC0uMDcxLjAzNC0uMDczLjAzMy0uMDc0LjAzMy0uMTUuMDY2LS4xNTUuMDY0LS4xNi4wNjMtLjE2My4wNjEtLjE2OC4wNi0uMTcyLjA1OS0uMTc1LjA1Ny0uMTguMDU2LS4xODMuMDU0LS4xODcuMDUzLS4xOTEuMDUxLS4xOTQuMDUtLjE5OC4wNDgtLjIwMS4wNDYtLjIwNS4wNDUtLjIwOC4wNDMtLjIxMS4wNDEtLjIxNC4wNC0uMjE3LjAzOC0uMjIuMDM2LS4yMjMuMDM0LS4yMjUuMDMyLS4yMjkuMDMxLS4yMzEuMDI4LS4yMzMuMDI3LS4yMzYuMDI0LS4yMzkuMDIzLS4yNDEuMDItLjI0Mi4wMTktLjI0Ni4wMTYtLjI0Ny4wMTUtLjI0OS4wMTItLjI1MS4wMS0uMjUzLjAwOC0uMjU1LjAwNS0uMjU2LjAwNC0uMjU4LjAwMS0uMjU4LS4wMDEtLjI1Ni0uMDA0LS4yNTUtLjAwNS0uMjUzLS4wMDgtLjI1MS0uMDEtLjI0OS0uMDEyLS4yNDctLjAxNS0uMjQ1LS4wMTYtLjI0My0uMDE5LS4yNDEtLjAyLS4yMzgtLjAyMy0uMjM2LS4wMjQtLjIzNC0uMDI3LS4yMzEtLjAyOC0uMjI4LS4wMzEtLjIyNi0uMDMyLS4yMjMtLjAzNC0uMjItLjAzNi0uMjE3LS4wMzgtLjIxNC0uMDQtLjIxMS0uMDQxLS4yMDgtLjA0My0uMjA0LS4wNDUtLjIwMS0uMDQ2LS4xOTgtLjA0OC0uMTk1LS4wNS0uMTktLjA1MS0uMTg3LS4wNTMtLjE4NC0uMDU0LS4xNzktLjA1Ni0uMTc2LS4wNTctLjE3Mi0uMDU5LS4xNjctLjA2LS4xNjQtLjA2MS0uMTU5LS4wNjMtLjE1NS0uMDY0LS4xNTEtLjA2Ni0uMDc0LS4wMzMtLjA3Mi0uMDMzLS4wNzItLjAzNC0uMDctLjAzNC0uMDY5LS4wMzUtLjA2OC0uMDM1LS4wNjctLjAzNS0uMDY2LS4wMzUtLjA2NC0uMDM2LS4wNjMtLjAzNi0uMDYyLS4wMzYtLjA2MS0uMDM2LS4wNi0uMDM3LS4wNTgtLjAzNy0uMDU3LS4wMzctLjA1Ni0uMDM4LS4wNTUtLjAzOC0uMDUzLS4wMzgtLjA1Mi0uMDM4LS4wNTEtLjAzOS0uMDQ5LS4wMzktLjA0OS0uMDM5LS4wNDYtLjAzOS0uMDQ2LS4wNC0uMDQ0LS4wNC0uMDQzLS4wNC0uMDQxLS4wNC0uMDQtLjA0MS0uMDM5LS4wNDEtLjAzNy0uMDQxLS4wMzYtLjA0MS0uMDM0LS4wNDEtLjAzMy0uMDQyLS4wMzItLjA0Mi0uMDMtLjA0Mi0uMDI5LS4wNDItLjAyNy0uMDQyLS4wMjYtLjA0My0uMDI0LS4wNDMtLjAyMy0uMDQzLS4wMjEtLjA0My0uMDItLjA0My0uMDE4LS4wNDQtLjAxNy0uMDQzLS4wMTUtLjA0NC0uMDEzLS4wNDQtLjAxMi0uMDQ0LS4wMTEtLjA0NS0uMDA5LS4wNDQtLjAwNy0uMDQ1LS4wMDYtLjA0NS0uMDA0LS4wNDUtLjAwMi0uMDQ1LS4wMDEtLjA0NXYtMTdsLjAwMS0uMDQ1LjAwMi0uMDQ1LjAwNC0uMDQ1LjAwNi0uMDQ1LjAwNy0uMDQ1LjAwOS0uMDQ0LjAxMS0uMDQ1LjAxMi0uMDQ0LjAxMy0uMDQ0LjAxNS0uMDQ0LjAxNy0uMDQzLjAxOC0uMDQ0LjAyLS4wNDMuMDIxLS4wNDMuMDIzLS4wNDMuMDI0LS4wNDMuMDI2LS4wNDMuMDI3LS4wNDIuMDI5LS4wNDIuMDMtLjA0Mi4wMzItLjA0Mi4wMzMtLjA0Mi4wMzQtLjA0MS4wMzYtLjA0MS4wMzctLjA0MS4wMzktLjA0MS4wNC0uMDQxLjA0MS0uMDQuMDQzLS4wNC4wNDQtLjA0LjA0Ni0uMDQuMDQ2LS4wMzkuMDQ5LS4wMzkuMDQ5LS4wMzkuMDUxLS4wMzkuMDUyLS4wMzguMDUzLS4wMzguMDU1LS4wMzguMDU2LS4wMzguMDU3LS4wMzcuMDU4LS4wMzcuMDYtLjAzNy4wNjEtLjAzNi4wNjItLjAzNi4wNjMtLjAzNi4wNjQtLjAzNi4wNjYtLjAzNS4wNjctLjAzNS4wNjgtLjAzNS4wNjktLjAzNS4wNy0uMDM0LjA3Mi0uMDM0LjA3Mi0uMDMzLjA3NC0uMDMzLjE1MS0uMDY2LjE1NS0uMDY0LjE1OS0uMDYzLjE2NC0uMDYxLjE2Ny0uMDYuMTcyLS4wNTkuMTc2LS4wNTcuMTc5LS4wNTYuMTg0LS4wNTQuMTg3LS4wNTMuMTktLjA1MS4xOTUtLjA1LjE5OC0uMDQ4LjIwMS0uMDQ2LjIwNC0uMDQ1LjIwOC0uMDQzLjIxMS0uMDQxLjIxNC0uMDQuMjE3LS4wMzguMjItLjAzNi4yMjMtLjAzNC4yMjYtLjAzMi4yMjgtLjAzMS4yMzEtLjAyOC4yMzQtLjAyNy4yMzYtLjAyNC4yMzgtLjAyMy4yNDEtLjAyLjI0My0uMDE5LjI0NS0uMDE2LjI0Ny0uMDE1LjI0OS0uMDEyLjI1MS0uMDEuMjUzLS4wMDguMjU1LS4wMDUuMjU2LS4wMDQuMjU4LS4wMDEuMjU4LjAwMXptLTkuMjU4IDIwLjQ5OXYuMDFsLjAwMS4wMjEuMDAzLjAyMS4wMDQuMDIyLjAwNS4wMjEuMDA2LjAyMi4wMDcuMDIyLjAwOS4wMjMuMDEuMDIyLjAxMS4wMjMuMDEyLjAyMy4wMTMuMDIzLjAxNS4wMjMuMDE2LjAyNC4wMTcuMDIzLjAxOC4wMjQuMDE5LjAyNC4wMjEuMDI0LjAyMi4wMjUuMDIzLjAyNC4wMjQuMDI1LjA1Mi4wNDkuMDU2LjA1LjA2MS4wNTEuMDY2LjA1MS4wNy4wNTEuMDc1LjA1MS4wNzkuMDUyLjA4NC4wNTIuMDg4LjA1Mi4wOTIuMDUyLjA5Ny4wNTIuMTAyLjA1MS4xMDUuMDUyLjExLjA1Mi4xMTQuMDUxLjExOS4wNTEuMTIzLjA1MS4xMjcuMDUuMTMxLjA1LjEzNS4wNS4xMzkuMDQ4LjE0NC4wNDkuMTQ3LjA0Ny4xNTIuMDQ3LjE1NS4wNDcuMTYuMDQ1LjE2My4wNDUuMTY3LjA0My4xNzEuMDQzLjE3Ni4wNDEuMTc4LjA0MS4xODMuMDM5LjE4Ny4wMzkuMTkuMDM3LjE5NC4wMzUuMTk3LjAzNS4yMDIuMDMzLjIwNC4wMzEuMjA5LjAzLjIxMi4wMjkuMjE2LjAyNy4yMTkuMDI1LjIyMi4wMjQuMjI2LjAyMS4yMy4wMi4yMzMuMDE4LjIzNi4wMTYuMjQuMDE1LjI0My4wMTIuMjQ2LjAxLjI0OS4wMDguMjUzLjAwNS4yNTYuMDA0LjI1OS4wMDEuMjYtLjAwMS4yNTctLjAwNC4yNTQtLjAwNS4yNS0uMDA4LjI0Ny0uMDExLjI0NC0uMDEyLjI0MS0uMDE0LjIzNy0uMDE2LjIzMy0uMDE4LjIzMS0uMDIxLjIyNi0uMDIxLjIyNC0uMDI0LjIyLS4wMjYuMjE2LS4wMjcuMjEyLS4wMjguMjEtLjAzMS4yMDUtLjAzMS4yMDItLjAzNC4xOTgtLjAzNC4xOTQtLjAzNi4xOTEtLjAzNy4xODctLjAzOS4xODMtLjA0LjE3OS0uMDQuMTc1LS4wNDIuMTcyLS4wNDMuMTY4LS4wNDQuMTYzLS4wNDUuMTYtLjA0Ni4xNTUtLjA0Ni4xNTItLjA0Ny4xNDgtLjA0OC4xNDMtLjA0OS4xMzktLjA0OS4xMzYtLjA1LjEzMS0uMDUuMTI2LS4wNS4xMjMtLjA1MS4xMTgtLjA1Mi4xMTQtLjA1MS4xMS0uMDUyLjEwNi0uMDUyLjEwMS0uMDUyLjA5Ni0uMDUyLjA5Mi0uMDUyLjA4OC0uMDUzLjA4My0uMDUxLjA3OS0uMDUyLjA3NC0uMDUyLjA3LS4wNTEuMDY1LS4wNTEuMDYtLjA1MS4wNTYtLjA1LjA1MS0uMDUuMDIzLS4wMjQuMDIzLS4wMjUuMDIxLS4wMjQuMDItLjAyNC4wMTktLjAyNC4wMTgtLjAyNC4wMTctLjAyNC4wMTUtLjAyMy4wMTQtLjAyNC4wMTMtLjAyMy4wMTItLjAyMy4wMS0uMDIzLjAxLS4wMjIuMDA4LS4wMjIuMDA2LS4wMjIuMDA2LS4wMjIuMDA0LS4wMjIuMDA0LS4wMjEuMDAxLS4wMjEuMDAxLS4wMjF2LTQuMTI3bC0uMDc3LjA1NS0uMDguMDUzLS4wODMuMDU0LS4wODUuMDUzLS4wODcuMDUyLS4wOS4wNTItLjA5My4wNTEtLjA5NS4wNS0uMDk3LjA1LS4xLjA0OS0uMTAyLjA0OS0uMTA1LjA0OC0uMTA2LjA0Ny0uMTA5LjA0Ny0uMTExLjA0Ni0uMTE0LjA0NS0uMTE1LjA0NS0uMTE4LjA0NC0uMTIuMDQzLS4xMjIuMDQyLS4xMjQuMDQyLS4xMjYuMDQxLS4xMjguMDQtLjEzLjA0LS4xMzIuMDM4LS4xMzQuMDM4LS4xMzUuMDM3LS4xMzguMDM3LS4xMzkuMDM1LS4xNDIuMDM1LS4xNDMuMDM0LS4xNDQuMDMzLS4xNDcuMDMyLS4xNDguMDMxLS4xNS4wMy0uMTUxLjAzLS4xNTMuMDI5LS4xNTQuMDI3LS4xNTYuMDI3LS4xNTguMDI2LS4xNTkuMDI1LS4xNjEuMDI0LS4xNjIuMDIzLS4xNjMuMDIyLS4xNjUuMDIxLS4xNjYuMDItLjE2Ny4wMTktLjE2OS4wMTgtLjE2OS4wMTctLjE3MS4wMTYtLjE3My4wMTUtLjE3My4wMTQtLjE3NS4wMTMtLjE3NS4wMTItLjE3Ny4wMTEtLjE3OC4wMS0uMTc5LjAwOC0uMTc5LjAwOC0uMTgxLjAwNi0uMTgyLjAwNS0uMTgyLjAwNC0uMTg0LjAwMy0uMTg0LjAwMmgtLjM3bC0uMTg0LS4wMDItLjE4NC0uMDAzLS4xODItLjAwNC0uMTgyLS4wMDUtLjE4MS0uMDA2LS4xNzktLjAwOC0uMTc5LS4wMDgtLjE3OC0uMDEtLjE3Ni0uMDExLS4xNzYtLjAxMi0uMTc1LS4wMTMtLjE3My0uMDE0LS4xNzItLjAxNS0uMTcxLS4wMTYtLjE3LS4wMTctLjE2OS0uMDE4LS4xNjctLjAxOS0uMTY2LS4wMi0uMTY1LS4wMjEtLjE2My0uMDIyLS4xNjItLjAyMy0uMTYxLS4wMjQtLjE1OS0uMDI1LS4xNTctLjAyNi0uMTU2LS4wMjctLjE1NS0uMDI3LS4xNTMtLjAyOS0uMTUxLS4wMy0uMTUtLjAzLS4xNDgtLjAzMS0uMTQ2LS4wMzItLjE0NS0uMDMzLS4xNDMtLjAzNC0uMTQxLS4wMzUtLjE0LS4wMzUtLjEzNy0uMDM3LS4xMzYtLjAzNy0uMTM0LS4wMzgtLjEzMi0uMDM4LS4xMy0uMDQtLjEyOC0uMDQtLjEyNi0uMDQxLS4xMjQtLjA0Mi0uMTIyLS4wNDItLjEyLS4wNDQtLjExNy0uMDQzLS4xMTYtLjA0NS0uMTEzLS4wNDUtLjExMi0uMDQ2LS4xMDktLjA0Ny0uMTA2LS4wNDctLjEwNS0uMDQ4LS4xMDItLjA0OS0uMS0uMDQ5LS4wOTctLjA1LS4wOTUtLjA1LS4wOTMtLjA1Mi0uMDktLjA1MS0uMDg3LS4wNTItLjA4NS0uMDUzLS4wODMtLjA1NC0uMDgtLjA1NC0uMDc3LS4wNTR2NC4xMjd6bTAtNS42NTR2LjAxMWwuMDAxLjAyMS4wMDMuMDIxLjAwNC4wMjEuMDA1LjAyMi4wMDYuMDIyLjAwNy4wMjIuMDA5LjAyMi4wMS4wMjIuMDExLjAyMy4wMTIuMDIzLjAxMy4wMjMuMDE1LjAyNC4wMTYuMDIzLjAxNy4wMjQuMDE4LjAyNC4wMTkuMDI0LjAyMS4wMjQuMDIyLjAyNC4wMjMuMDI1LjAyNC4wMjQuMDUyLjA1LjA1Ni4wNS4wNjEuMDUuMDY2LjA1MS4wNy4wNTEuMDc1LjA1Mi4wNzkuMDUxLjA4NC4wNTIuMDg4LjA1Mi4wOTIuMDUyLjA5Ny4wNTIuMTAyLjA1Mi4xMDUuMDUyLjExLjA1MS4xMTQuMDUxLjExOS4wNTIuMTIzLjA1LjEyNy4wNTEuMTMxLjA1LjEzNS4wNDkuMTM5LjA0OS4xNDQuMDQ4LjE0Ny4wNDguMTUyLjA0Ny4xNTUuMDQ2LjE2LjA0NS4xNjMuMDQ1LjE2Ny4wNDQuMTcxLjA0Mi4xNzYuMDQyLjE3OC4wNC4xODMuMDQuMTg3LjAzOC4xOS4wMzcuMTk0LjAzNi4xOTcuMDM0LjIwMi4wMzMuMjA0LjAzMi4yMDkuMDMuMjEyLjAyOC4yMTYuMDI3LjIxOS4wMjUuMjIyLjAyNC4yMjYuMDIyLjIzLjAyLjIzMy4wMTguMjM2LjAxNi4yNC4wMTQuMjQzLjAxMi4yNDYuMDEuMjQ5LjAwOC4yNTMuMDA2LjI1Ni4wMDMuMjU5LjAwMS4yNi0uMDAxLjI1Ny0uMDAzLjI1NC0uMDA2LjI1LS4wMDguMjQ3LS4wMS4yNDQtLjAxMi4yNDEtLjAxNS4yMzctLjAxNi4yMzMtLjAxOC4yMzEtLjAyLjIyNi0uMDIyLjIyNC0uMDI0LjIyLS4wMjUuMjE2LS4wMjcuMjEyLS4wMjkuMjEtLjAzLjIwNS0uMDMyLjIwMi0uMDMzLjE5OC0uMDM1LjE5NC0uMDM2LjE5MS0uMDM3LjE4Ny0uMDM5LjE4My0uMDM5LjE3OS0uMDQxLjE3NS0uMDQyLjE3Mi0uMDQzLjE2OC0uMDQ0LjE2My0uMDQ1LjE2LS4wNDUuMTU1LS4wNDcuMTUyLS4wNDcuMTQ4LS4wNDguMTQzLS4wNDguMTM5LS4wNS4xMzYtLjA0OS4xMzEtLjA1LjEyNi0uMDUxLjEyMy0uMDUxLjExOC0uMDUxLjExNC0uMDUyLjExLS4wNTIuMTA2LS4wNTIuMTAxLS4wNTIuMDk2LS4wNTIuMDkyLS4wNTIuMDg4LS4wNTIuMDgzLS4wNTIuMDc5LS4wNTIuMDc0LS4wNTEuMDctLjA1Mi4wNjUtLjA1MS4wNi0uMDUuMDU2LS4wNTEuMDUxLS4wNDkuMDIzLS4wMjUuMDIzLS4wMjQuMDIxLS4wMjUuMDItLjAyNC4wMTktLjAyNC4wMTgtLjAyNC4wMTctLjAyNC4wMTUtLjAyMy4wMTQtLjAyMy4wMTMtLjAyNC4wMTItLjAyMi4wMS0uMDIzLjAxLS4wMjMuMDA4LS4wMjIuMDA2LS4wMjIuMDA2LS4wMjIuMDA0LS4wMjEuMDA0LS4wMjIuMDAxLS4wMjEuMDAxLS4wMjF2LTQuMTM5bC0uMDc3LjA1NC0uMDguMDU0LS4wODMuMDU0LS4wODUuMDUyLS4wODcuMDUzLS4wOS4wNTEtLjA5My4wNTEtLjA5NS4wNTEtLjA5Ny4wNS0uMS4wNDktLjEwMi4wNDktLjEwNS4wNDgtLjEwNi4wNDctLjEwOS4wNDctLjExMS4wNDYtLjExNC4wNDUtLjExNS4wNDQtLjExOC4wNDQtLjEyLjA0NC0uMTIyLjA0Mi0uMTI0LjA0Mi0uMTI2LjA0MS0uMTI4LjA0LS4xMy4wMzktLjEzMi4wMzktLjEzNC4wMzgtLjEzNS4wMzctLjEzOC4wMzYtLjEzOS4wMzYtLjE0Mi4wMzUtLjE0My4wMzMtLjE0NC4wMzMtLjE0Ny4wMzMtLjE0OC4wMzEtLjE1LjAzLS4xNTEuMDMtLjE1My4wMjgtLjE1NC4wMjgtLjE1Ni4wMjctLjE1OC4wMjYtLjE1OS4wMjUtLjE2MS4wMjQtLjE2Mi4wMjMtLjE2My4wMjItLjE2NS4wMjEtLjE2Ni4wMi0uMTY3LjAxOS0uMTY5LjAxOC0uMTY5LjAxNy0uMTcxLjAxNi0uMTczLjAxNS0uMTczLjAxNC0uMTc1LjAxMy0uMTc1LjAxMi0uMTc3LjAxMS0uMTc4LjAwOS0uMTc5LjAwOS0uMTc5LjAwNy0uMTgxLjAwNy0uMTgyLjAwNS0uMTgyLjAwNC0uMTg0LjAwMy0uMTg0LjAwMmgtLjM3bC0uMTg0LS4wMDItLjE4NC0uMDAzLS4xODItLjAwNC0uMTgyLS4wMDUtLjE4MS0uMDA3LS4xNzktLjAwNy0uMTc5LS4wMDktLjE3OC0uMDA5LS4xNzYtLjAxMS0uMTc2LS4wMTItLjE3NS0uMDEzLS4xNzMtLjAxNC0uMTcyLS4wMTUtLjE3MS0uMDE2LS4xNy0uMDE3LS4xNjktLjAxOC0uMTY3LS4wMTktLjE2Ni0uMDItLjE2NS0uMDIxLS4xNjMtLjAyMi0uMTYyLS4wMjMtLjE2MS0uMDI0LS4xNTktLjAyNS0uMTU3LS4wMjYtLjE1Ni0uMDI3LS4xNTUtLjAyOC0uMTUzLS4wMjgtLjE1MS0uMDMtLjE1LS4wMy0uMTQ4LS4wMzEtLjE0Ni0uMDMzLS4xNDUtLjAzMy0uMTQzLS4wMzMtLjE0MS0uMDM1LS4xNC0uMDM2LS4xMzctLjAzNi0uMTM2LS4wMzctLjEzNC0uMDM4LS4xMzItLjAzOS0uMTMtLjAzOS0uMTI4LS4wNC0uMTI2LS4wNDEtLjEyNC0uMDQyLS4xMjItLjA0My0uMTItLjA0My0uMTE3LS4wNDQtLjExNi0uMDQ0LS4xMTMtLjA0Ni0uMTEyLS4wNDYtLjEwOS0uMDQ2LS4xMDYtLjA0Ny0uMTA1LS4wNDgtLjEwMi0uMDQ5LS4xLS4wNDktLjA5Ny0uMDUtLjA5NS0uMDUxLS4wOTMtLjA1MS0uMDktLjA1MS0uMDg3LS4wNTMtLjA4NS0uMDUyLS4wODMtLjA1NC0uMDgtLjA1NC0uMDc3LS4wNTR2NC4xMzl6bTAtNS42NjZ2LjAxMWwuMDAxLjAyLjAwMy4wMjIuMDA0LjAyMS4wMDUuMDIyLjAwNi4wMjEuMDA3LjAyMi4wMDkuMDIzLjAxLjAyMi4wMTEuMDIzLjAxMi4wMjMuMDEzLjAyMy4wMTUuMDIzLjAxNi4wMjQuMDE3LjAyNC4wMTguMDIzLjAxOS4wMjQuMDIxLjAyNS4wMjIuMDI0LjAyMy4wMjQuMDI0LjAyNS4wNTIuMDUuMDU2LjA1LjA2MS4wNS4wNjYuMDUxLjA3LjA1MS4wNzUuMDUyLjA3OS4wNTEuMDg0LjA1Mi4wODguMDUyLjA5Mi4wNTIuMDk3LjA1Mi4xMDIuMDUyLjEwNS4wNTEuMTEuMDUyLjExNC4wNTEuMTE5LjA1MS4xMjMuMDUxLjEyNy4wNS4xMzEuMDUuMTM1LjA1LjEzOS4wNDkuMTQ0LjA0OC4xNDcuMDQ4LjE1Mi4wNDcuMTU1LjA0Ni4xNi4wNDUuMTYzLjA0NS4xNjcuMDQzLjE3MS4wNDMuMTc2LjA0Mi4xNzguMDQuMTgzLjA0LjE4Ny4wMzguMTkuMDM3LjE5NC4wMzYuMTk3LjAzNC4yMDIuMDMzLjIwNC4wMzIuMjA5LjAzLjIxMi4wMjguMjE2LjAyNy4yMTkuMDI1LjIyMi4wMjQuMjI2LjAyMS4yMy4wMi4yMzMuMDE4LjIzNi4wMTcuMjQuMDE0LjI0My4wMTIuMjQ2LjAxLjI0OS4wMDguMjUzLjAwNi4yNTYuMDAzLjI1OS4wMDEuMjYtLjAwMS4yNTctLjAwMy4yNTQtLjAwNi4yNS0uMDA4LjI0Ny0uMDEuMjQ0LS4wMTMuMjQxLS4wMTQuMjM3LS4wMTYuMjMzLS4wMTguMjMxLS4wMi4yMjYtLjAyMi4yMjQtLjAyNC4yMi0uMDI1LjIxNi0uMDI3LjIxMi0uMDI5LjIxLS4wMy4yMDUtLjAzMi4yMDItLjAzMy4xOTgtLjAzNS4xOTQtLjAzNi4xOTEtLjAzNy4xODctLjAzOS4xODMtLjAzOS4xNzktLjA0MS4xNzUtLjA0Mi4xNzItLjA0My4xNjgtLjA0NC4xNjMtLjA0NS4xNi0uMDQ1LjE1NS0uMDQ3LjE1Mi0uMDQ3LjE0OC0uMDQ4LjE0My0uMDQ5LjEzOS0uMDQ5LjEzNi0uMDQ5LjEzMS0uMDUxLjEyNi0uMDUuMTIzLS4wNTEuMTE4LS4wNTIuMTE0LS4wNTEuMTEtLjA1Mi4xMDYtLjA1Mi4xMDEtLjA1Mi4wOTYtLjA1Mi4wOTItLjA1Mi4wODgtLjA1Mi4wODMtLjA1Mi4wNzktLjA1Mi4wNzQtLjA1Mi4wNy0uMDUxLjA2NS0uMDUxLjA2LS4wNTEuMDU2LS4wNS4wNTEtLjA0OS4wMjMtLjAyNS4wMjMtLjAyNS4wMjEtLjAyNC4wMi0uMDI0LjAxOS0uMDI0LjAxOC0uMDI0LjAxNy0uMDI0LjAxNS0uMDIzLjAxNC0uMDI0LjAxMy0uMDIzLjAxMi0uMDIzLjAxLS4wMjIuMDEtLjAyMy4wMDgtLjAyMi4wMDYtLjAyMi4wMDYtLjAyMi4wMDQtLjAyMi4wMDQtLjAyMS4wMDEtLjAyMS4wMDEtLjAyMXYtNC4xNTNsLS4wNzcuMDU0LS4wOC4wNTQtLjA4My4wNTMtLjA4NS4wNTMtLjA4Ny4wNTMtLjA5LjA1MS0uMDkzLjA1MS0uMDk1LjA1MS0uMDk3LjA1LS4xLjA0OS0uMTAyLjA0OC0uMTA1LjA0OC0uMTA2LjA0OC0uMTA5LjA0Ni0uMTExLjA0Ni0uMTE0LjA0Ni0uMTE1LjA0NC0uMTE4LjA0NC0uMTIuMDQzLS4xMjIuMDQzLS4xMjQuMDQyLS4xMjYuMDQxLS4xMjguMDQtLjEzLjAzOS0uMTMyLjAzOS0uMTM0LjAzOC0uMTM1LjAzNy0uMTM4LjAzNi0uMTM5LjAzNi0uMTQyLjAzNC0uMTQzLjAzNC0uMTQ0LjAzMy0uMTQ3LjAzMi0uMTQ4LjAzMi0uMTUuMDMtLjE1MS4wMy0uMTUzLjAyOC0uMTU0LjAyOC0uMTU2LjAyNy0uMTU4LjAyNi0uMTU5LjAyNC0uMTYxLjAyNC0uMTYyLjAyMy0uMTYzLjAyMy0uMTY1LjAyMS0uMTY2LjAyLS4xNjcuMDE5LS4xNjkuMDE4LS4xNjkuMDE3LS4xNzEuMDE2LS4xNzMuMDE1LS4xNzMuMDE0LS4xNzUuMDEzLS4xNzUuMDEyLS4xNzcuMDEtLjE3OC4wMS0uMTc5LjAwOS0uMTc5LjAwNy0uMTgxLjAwNi0uMTgyLjAwNi0uMTgyLjAwNC0uMTg0LjAwMy0uMTg0LjAwMS0uMTg1LjAwMS0uMTg1LS4wMDEtLjE4NC0uMDAxLS4xODQtLjAwMy0uMTgyLS4wMDQtLjE4Mi0uMDA2LS4xODEtLjAwNi0uMTc5LS4wMDctLjE3OS0uMDA5LS4xNzgtLjAxLS4xNzYtLjAxLS4xNzYtLjAxMi0uMTc1LS4wMTMtLjE3My0uMDE0LS4xNzItLjAxNS0uMTcxLS4wMTYtLjE3LS4wMTctLjE2OS0uMDE4LS4xNjctLjAxOS0uMTY2LS4wMi0uMTY1LS4wMjEtLjE2My0uMDIzLS4xNjItLjAyMy0uMTYxLS4wMjQtLjE1OS0uMDI0LS4xNTctLjAyNi0uMTU2LS4wMjctLjE1NS0uMDI4LS4xNTMtLjAyOC0uMTUxLS4wMy0uMTUtLjAzLS4xNDgtLjAzMi0uMTQ2LS4wMzItLjE0NS0uMDMzLS4xNDMtLjAzNC0uMTQxLS4wMzQtLjE0LS4wMzYtLjEzNy0uMDM2LS4xMzYtLjAzNy0uMTM0LS4wMzgtLjEzMi0uMDM5LS4xMy0uMDM5LS4xMjgtLjA0MS0uMTI2LS4wNDEtLjEyNC0uMDQxLS4xMjItLjA0My0uMTItLjA0My0uMTE3LS4wNDQtLjExNi0uMDQ0LS4xMTMtLjA0Ni0uMTEyLS4wNDYtLjEwOS0uMDQ2LS4xMDYtLjA0OC0uMTA1LS4wNDgtLjEwMi0uMDQ4LS4xLS4wNS0uMDk3LS4wNDktLjA5NS0uMDUxLS4wOTMtLjA1MS0uMDktLjA1Mi0uMDg3LS4wNTItLjA4NS0uMDUzLS4wODMtLjA1My0uMDgtLjA1NC0uMDc3LS4wNTR2NC4xNTN6bTguNzQtOC4xNzlsLS4yNTcuMDA0LS4yNTQuMDA1LS4yNS4wMDgtLjI0Ny4wMTEtLjI0NC4wMTItLjI0MS4wMTQtLjIzNy4wMTYtLjIzMy4wMTgtLjIzMS4wMjEtLjIyNi4wMjItLjIyNC4wMjMtLjIyLjAyNi0uMjE2LjAyNy0uMjEyLjAyOC0uMjEuMDMxLS4yMDUuMDMyLS4yMDIuMDMzLS4xOTguMDM0LS4xOTQuMDM2LS4xOTEuMDM4LS4xODcuMDM4LS4xODMuMDQtLjE3OS4wNDEtLjE3NS4wNDItLjE3Mi4wNDMtLjE2OC4wNDMtLjE2My4wNDUtLjE2LjA0Ni0uMTU1LjA0Ni0uMTUyLjA0OC0uMTQ4LjA0OC0uMTQzLjA0OC0uMTM5LjA0OS0uMTM2LjA1LS4xMzEuMDUtLjEyNi4wNTEtLjEyMy4wNTEtLjExOC4wNTEtLjExNC4wNTItLjExLjA1Mi0uMTA2LjA1Mi0uMTAxLjA1Mi0uMDk2LjA1Mi0uMDkyLjA1Mi0uMDg4LjA1Mi0uMDgzLjA1Mi0uMDc5LjA1Mi0uMDc0LjA1MS0uMDcuMDUyLS4wNjUuMDUxLS4wNi4wNS0uMDU2LjA1LS4wNTEuMDUtLjAyMy4wMjUtLjAyMy4wMjQtLjAyMS4wMjQtLjAyLjAyNS0uMDE5LjAyNC0uMDE4LjAyNC0uMDE3LjAyMy0uMDE1LjAyNC0uMDE0LjAyMy0uMDEzLjAyMy0uMDEyLjAyMy0uMDEuMDIzLS4wMS4wMjItLjAwOC4wMjItLjAwNi4wMjMtLjAwNi4wMjEtLjAwNC4wMjItLjAwNC4wMjEtLjAwMS4wMjEtLjAwMS4wMjEuMDAxLjAyMS4wMDEuMDIxLjAwNC4wMjEuMDA0LjAyMi4wMDYuMDIxLjAwNi4wMjMuMDA4LjAyMi4wMS4wMjIuMDEuMDIzLjAxMi4wMjMuMDEzLjAyMy4wMTQuMDIzLjAxNS4wMjQuMDE3LjAyMy4wMTguMDI0LjAxOS4wMjQuMDIuMDI1LjAyMS4wMjQuMDIzLjAyNC4wMjMuMDI1LjA1MS4wNS4wNTYuMDUuMDYuMDUuMDY1LjA1MS4wNy4wNTIuMDc0LjA1MS4wNzkuMDUyLjA4My4wNTIuMDg4LjA1Mi4wOTIuMDUyLjA5Ni4wNTIuMTAxLjA1Mi4xMDYuMDUyLjExLjA1Mi4xMTQuMDUyLjExOC4wNTEuMTIzLjA1MS4xMjYuMDUxLjEzMS4wNS4xMzYuMDUuMTM5LjA0OS4xNDMuMDQ4LjE0OC4wNDguMTUyLjA0OC4xNTUuMDQ2LjE2LjA0Ni4xNjMuMDQ1LjE2OC4wNDMuMTcyLjA0My4xNzUuMDQyLjE3OS4wNDEuMTgzLjA0LjE4Ny4wMzguMTkxLjAzOC4xOTQuMDM2LjE5OC4wMzQuMjAyLjAzMy4yMDUuMDMyLjIxLjAzMS4yMTIuMDI4LjIxNi4wMjcuMjIuMDI2LjIyNC4wMjMuMjI2LjAyMi4yMzEuMDIxLjIzMy4wMTguMjM3LjAxNi4yNDEuMDE0LjI0NC4wMTIuMjQ3LjAxMS4yNS4wMDguMjU0LjAwNS4yNTcuMDA0LjI2LjAwMS4yNi0uMDAxLjI1Ny0uMDA0LjI1NC0uMDA1LjI1LS4wMDguMjQ3LS4wMTEuMjQ0LS4wMTIuMjQxLS4wMTQuMjM3LS4wMTYuMjMzLS4wMTguMjMxLS4wMjEuMjI2LS4wMjIuMjI0LS4wMjMuMjItLjAyNi4yMTYtLjAyNy4yMTItLjAyOC4yMS0uMDMxLjIwNS0uMDMyLjIwMi0uMDMzLjE5OC0uMDM0LjE5NC0uMDM2LjE5MS0uMDM4LjE4Ny0uMDM4LjE4My0uMDQuMTc5LS4wNDEuMTc1LS4wNDIuMTcyLS4wNDMuMTY4LS4wNDMuMTYzLS4wNDUuMTYtLjA0Ni4xNTUtLjA0Ni4xNTItLjA0OC4xNDgtLjA0OC4xNDMtLjA0OC4xMzktLjA0OS4xMzYtLjA1LjEzMS0uMDUuMTI2LS4wNTEuMTIzLS4wNTEuMTE4LS4wNTEuMTE0LS4wNTIuMTEtLjA1Mi4xMDYtLjA1Mi4xMDEtLjA1Mi4wOTYtLjA1Mi4wOTItLjA1Mi4wODgtLjA1Mi4wODMtLjA1Mi4wNzktLjA1Mi4wNzQtLjA1MS4wNy0uMDUyLjA2NS0uMDUxLjA2LS4wNS4wNTYtLjA1LjA1MS0uMDUuMDIzLS4wMjUuMDIzLS4wMjQuMDIxLS4wMjQuMDItLjAyNS4wMTktLjAyNC4wMTgtLjAyNC4wMTctLjAyMy4wMTUtLjAyNC4wMTQtLjAyMy4wMTMtLjAyMy4wMTItLjAyMy4wMS0uMDIzLjAxLS4wMjIuMDA4LS4wMjIuMDA2LS4wMjMuMDA2LS4wMjEuMDA0LS4wMjIuMDA0LS4wMjEuMDAxLS4wMjEuMDAxLS4wMjEtLjAwMS0uMDIxLS4wMDEtLjAyMS0uMDA0LS4wMjEtLjAwNC0uMDIyLS4wMDYtLjAyMS0uMDA2LS4wMjMtLjAwOC0uMDIyLS4wMS0uMDIyLS4wMS0uMDIzLS4wMTItLjAyMy0uMDEzLS4wMjMtLjAxNC0uMDIzLS4wMTUtLjAyNC0uMDE3LS4wMjMtLjAxOC0uMDI0LS4wMTktLjAyNC0uMDItLjAyNS0uMDIxLS4wMjQtLjAyMy0uMDI0LS4wMjMtLjAyNS0uMDUxLS4wNS0uMDU2LS4wNS0uMDYtLjA1LS4wNjUtLjA1MS0uMDctLjA1Mi0uMDc0LS4wNTEtLjA3OS0uMDUyLS4wODMtLjA1Mi0uMDg4LS4wNTItLjA5Mi0uMDUyLS4wOTYtLjA1Mi0uMTAxLS4wNTItLjEwNi0uMDUyLS4xMS0uMDUyLS4xMTQtLjA1Mi0uMTE4LS4wNTEtLjEyMy0uMDUxLS4xMjYtLjA1MS0uMTMxLS4wNS0uMTM2LS4wNS0uMTM5LS4wNDktLjE0My0uMDQ4LS4xNDgtLjA0OC0uMTUyLS4wNDgtLjE1NS0uMDQ2LS4xNi0uMDQ2LS4xNjMtLjA0NS0uMTY4LS4wNDMtLjE3Mi0uMDQzLS4xNzUtLjA0Mi0uMTc5LS4wNDEtLjE4My0uMDQtLjE4Ny0uMDM4LS4xOTEtLjAzOC0uMTk0LS4wMzYtLjE5OC0uMDM0LS4yMDItLjAzMy0uMjA1LS4wMzItLjIxLS4wMzEtLjIxMi0uMDI4LS4yMTYtLjAyNy0uMjItLjAyNi0uMjI0LS4wMjMtLjIyNi0uMDIyLS4yMzEtLjAyMS0uMjMzLS4wMTgtLjIzNy0uMDE2LS4yNDEtLjAxNC0uMjQ0LS4wMTItLjI0Ny0uMDExLS4yNS0uMDA4LS4yNTQtLjAwNS0uMjU3LS4wMDQtLjI2LS4wMDEtLjI2LjAwMXoiIHRyYW5zZm9ybT0ic2NhbGUoLjUpIj48L3BhdGg+PC9zeW1ib2w+PC9kZWZzPjxkZWZzPjxzeW1ib2wgaGVpZ2h0PSIyNCIgd2lkdGg9IjI0IiBpZD0iY2xvY2siPjxwYXRoIGQ9Ik0xMiAyYzUuNTE0IDAgMTAgNC40ODYgMTAgMTBzLTQuNDg2IDEwLTEwIDEwLTEwLTQuNDg2LTEwLTEwIDQuNDg2LTEwIDEwLTEwem0wLTJjLTYuNjI3IDAtMTIgNS4zNzMtMTIgMTJzNS4zNzMgMTIgMTIgMTIgMTItNS4zNzMgMTItMTItNS4zNzMtMTItMTItMTJ6bTUuODQ4IDEyLjQ1OWMuMjAyLjAzOC4yMDIuMzMzLjAwMS4zNzItMS45MDcuMzYxLTYuMDQ1IDEuMTExLTYuNTQ3IDEuMTExLS43MTkgMC0xLjMwMS0uNTgyLTEuMzAxLTEuMzAxIDAtLjUxMi43Ny01LjQ0NyAxLjEyNS03LjQ0NS4wMzQtLjE5Mi4zMTItLjE4MS4zNDMuMDE0bC45ODUgNi4yMzggNS4zOTQgMS4wMTF6IiB0cmFuc2Zvcm09InNjYWxlKC41KSI+PC9wYXRoPjwvc3ltYm9sPjwvZGVmcz48Zz48bGluZSBzdHJva2U9IiM5OTkiIHN0cm9rZS13aWR0aD0iMC41cHgiIGNsYXNzPSIyMDAiIHkyPSIzOTMiIHgyPSI3NSIgeTE9IjUiIHgxPSI3NSIgaWQ9ImFjdG9yNSI+PC9saW5lPjxnIGlkPSJyb290LTUiPjxyZWN0IGNsYXNzPSJhY3RvciIgcnk9IjMiIHJ4PSIzIiBoZWlnaHQ9IjY1IiB3aWR0aD0iMTUwIiBzdHJva2U9IiM2NjYiIGZpbGw9IiNlYWVhZWEiIHk9IjAiIHg9IjAiPjwvcmVjdD48dGV4dCBzdHlsZT0idGV4dC1hbmNob3I6IG1pZGRsZTsgZm9udC1zaXplOiAxNHB4OyBmb250LXdlaWdodDogNDAwOyBmb250LWZhbWlseTogT3Blbi1TYW5zLCAmcXVvdDtzYW5zLXNlcmlmJnF1b3Q7OyIgY2xhc3M9ImFjdG9yIiBhbGlnbm1lbnQtYmFzZWxpbmU9ImNlbnRyYWwiIGRvbWluYW50LWJhc2VsaW5lPSJjZW50cmFsIiB5PSIzMi41IiB4PSI3NSI+PHRzcGFuIGR5PSIwIiB4PSI3NSI+bXlHb3YgQ3VzdG9tZXI8L3RzcGFuPjwvdGV4dD48L2c+PC9nPjxnPjxsaW5lIHN0cm9rZT0iIzk5OSIgc3Ryb2tlLXdpZHRoPSIwLjVweCIgY2xhc3M9IjIwMCIgeTI9IjM5MyIgeDI9IjQ2MCIgeTE9IjUiIHgxPSI0NjAiIGlkPSJhY3RvcjYiPjwvbGluZT48ZyBpZD0icm9vdC02Ij48cmVjdCBjbGFzcz0iYWN0b3IiIHJ5PSIzIiByeD0iMyIgaGVpZ2h0PSI2NSIgd2lkdGg9IjE1MCIgc3Ryb2tlPSIjNjY2IiBmaWxsPSIjZWFlYWVhIiB5PSIwIiB4PSIzODUiPjwvcmVjdD48dGV4dCBzdHlsZT0idGV4dC1hbmNob3I6IG1pZGRsZTsgZm9udC1zaXplOiAxNHB4OyBmb250LXdlaWdodDogNDAwOyBmb250LWZhbWlseTogT3Blbi1TYW5zLCAmcXVvdDtzYW5zLXNlcmlmJnF1b3Q7OyIgY2xhc3M9ImFjdG9yIiBhbGlnbm1lbnQtYmFzZWxpbmU9ImNlbnRyYWwiIGRvbWluYW50LWJhc2VsaW5lPSJjZW50cmFsIiB5PSIzMi41IiB4PSI0NjAiPjx0c3BhbiBkeT0iMCIgeD0iNDYwIj5JbmJveCBQb3J0YWw8L3RzcGFuPjwvdGV4dD48L2c+PC9nPjxnPjxsaW5lIHN0cm9rZT0iIzk5OSIgc3Ryb2tlLXdpZHRoPSIwLjVweCIgY2xhc3M9IjIwMCIgeTI9IjM5MyIgeDI9Ijg0NSIgeTE9IjUiIHgxPSI4NDUiIGlkPSJhY3RvcjciPjwvbGluZT48ZyBpZD0icm9vdC03Ij48cmVjdCBjbGFzcz0iYWN0b3IiIHJ5PSIzIiByeD0iMyIgaGVpZ2h0PSI2NSIgd2lkdGg9IjE2NyIgc3Ryb2tlPSIjNjY2IiBmaWxsPSIjZWFlYWVhIiB5PSIwIiB4PSI3NjEuNSI+PC9yZWN0Pjx0ZXh0IHN0eWxlPSJ0ZXh0LWFuY2hvcjogbWlkZGxlOyBmb250LXNpemU6IDE0cHg7IGZvbnQtd2VpZ2h0OiA0MDA7IGZvbnQtZmFtaWx5OiBPcGVuLVNhbnMsICZxdW90O3NhbnMtc2VyaWYmcXVvdDs7IiBjbGFzcz0iYWN0b3IiIGFsaWdubWVudC1iYXNlbGluZT0iY2VudHJhbCIgZG9taW5hbnQtYmFzZWxpbmU9ImNlbnRyYWwiIHk9IjMyLjUiIHg9Ijg0NSI+PHRzcGFuIGR5PSIwIiB4PSI4NDUiPm15R292IEluYm94IEFwcGxpY2F0aW9uPC90c3Bhbj48L3RleHQ+PC9nPjwvZz48Zz48bGluZSBzdHJva2U9IiM5OTkiIHN0cm9rZS13aWR0aD0iMC41cHgiIGNsYXNzPSIyMDAiIHkyPSIzOTMiIHgyPSIxMTkyIiB5MT0iNSIgeDE9IjExOTIiIGlkPSJhY3RvcjgiPjwvbGluZT48ZyBpZD0icm9vdC04Ij48cmVjdCBjbGFzcz0iYWN0b3IiIHJ5PSIzIiByeD0iMyIgaGVpZ2h0PSI2NSIgd2lkdGg9IjE5OCIgc3Ryb2tlPSIjNjY2IiBmaWxsPSIjZWFlYWVhIiB5PSIwIiB4PSIxMDkzIj48L3JlY3Q+PHRleHQgc3R5bGU9InRleHQtYW5jaG9yOiBtaWRkbGU7IGZvbnQtc2l6ZTogMTRweDsgZm9udC13ZWlnaHQ6IDQwMDsgZm9udC1mYW1pbHk6IE9wZW4tU2FucywgJnF1b3Q7c2Fucy1zZXJpZiZxdW90OzsiIGNsYXNzPSJhY3RvciIgYWxpZ25tZW50LWJhc2VsaW5lPSJjZW50cmFsIiBkb21pbmFudC1iYXNlbGluZT0iY2VudHJhbCIgeT0iMzIuNSIgeD0iMTE5MiI+PHRzcGFuIGR5PSIwIiB4PSIxMTkyIj5SZWx5aW5nIFBhcnR5IEF0dGFjaG1lbnQgU3RvcmU8L3RzcGFuPjwvdGV4dD48L2c+PC9nPjxkZWZzPjxtYXJrZXIgb3JpZW50PSJhdXRvIiBtYXJrZXJIZWlnaHQ9IjEyIiBtYXJrZXJXaWR0aD0iMTIiIG1hcmtlclVuaXRzPSJ1c2VyU3BhY2VPblVzZSIgcmVmWT0iNSIgcmVmWD0iOSIgaWQ9ImFycm93aGVhZCI+PHBhdGggZD0iTSAwIDAgTCAxMCA1IEwgMCAxMCB6Ij48L3BhdGg+PC9tYXJrZXI+PC9kZWZzPjxkZWZzPjxtYXJrZXIgcmVmWT0iNCIgcmVmWD0iMTYiIG9yaWVudD0iYXV0byIgbWFya2VySGVpZ2h0PSI4IiBtYXJrZXJXaWR0aD0iMTUiIGlkPSJjcm9zc2hlYWQiPjxwYXRoIHN0eWxlPSJzdHJva2UtZGFzaGFycmF5OiAwLCAwOyIgZD0iTSA5LDIgViA2IEwxNiw0IFoiIHN0cm9rZS13aWR0aD0iMXB4IiBzdHJva2U9IiMwMDAwMDAiIGZpbGw9ImJsYWNrIj48L3BhdGg+PHBhdGggc3R5bGU9InN0cm9rZS1kYXNoYXJyYXk6IDAsIDA7IiBkPSJNIDAsMSBMIDYsNyBNIDYsMSBMIDAsNyIgc3Ryb2tlLXdpZHRoPSIxcHgiIHN0cm9rZT0iIzAwMDAwMCIgZmlsbD0ibm9uZSI+PC9wYXRoPjwvbWFya2VyPjwvZGVmcz48ZGVmcz48bWFya2VyIG9yaWVudD0iYXV0byIgbWFya2VySGVpZ2h0PSIyOCIgbWFya2VyV2lkdGg9IjIwIiByZWZZPSI3IiByZWZYPSIxOCIgaWQ9ImZpbGxlZC1oZWFkIj48cGF0aCBkPSJNIDE4LDcgTDksMTMgTDE0LDcgTDksMSBaIj48L3BhdGg+PC9tYXJrZXI+PC9kZWZzPjxkZWZzPjxtYXJrZXIgb3JpZW50PSJhdXRvIiBtYXJrZXJIZWlnaHQ9IjQwIiBtYXJrZXJXaWR0aD0iNjAiIHJlZlk9IjE1IiByZWZYPSIxNSIgaWQ9InNlcXVlbmNlbnVtYmVyIj48Y2lyY2xlIHI9IjYiIGN5PSIxNSIgY3g9IjE1Ij48L2NpcmNsZT48L21hcmtlcj48L2RlZnM+PHRleHQgc3R5bGU9ImZvbnQtZmFtaWx5OiAmcXVvdDt0cmVidWNoZXQgbXMmcXVvdDssIHZlcmRhbmEsIGFyaWFsOyBmb250LXNpemU6IDE2cHg7IGZvbnQtd2VpZ2h0OiA0MDA7IiBkeT0iMWVtIiBjbGFzcz0ibWVzc2FnZVRleHQiIGFsaWdubWVudC1iYXNlbGluZT0ibWlkZGxlIiBkb21pbmFudC1iYXNlbGluZT0ibWlkZGxlIiB0ZXh0LWFuY2hvcj0ibWlkZGxlIiB5PSI4MCIgeD0iMjY4Ij5yZWFkTWVzc2FnZShtZXNzYWdlSWQpOiBtZXNzYWdlPC90ZXh0PjxsaW5lIHN0eWxlPSJmaWxsOiBub25lOyIgbWFya2VyLXN0YXJ0PSJ1cmwoI3NlcXVlbmNlbnVtYmVyKSIgbWFya2VyLWVuZD0idXJsKCNhcnJvd2hlYWQpIiBzdHJva2U9Im5vbmUiIHN0cm9rZS13aWR0aD0iMiIgY2xhc3M9Im1lc3NhZ2VMaW5lMCIgeTI9IjExMyIgeDI9IjQ2MCIgeTE9IjExMyIgeDE9Ijc1Ij48L2xpbmU+PHRleHQgY2xhc3M9InNlcXVlbmNlTnVtYmVyIiB0ZXh0LWFuY2hvcj0ibWlkZGxlIiBmb250LXNpemU9IjEycHgiIGZvbnQtZmFtaWx5PSJzYW5zLXNlcmlmIiB5PSIxMTciIHg9Ijc1Ij4xPC90ZXh0Pjx0ZXh0IHN0eWxlPSJmb250LWZhbWlseTogJnF1b3Q7dHJlYnVjaGV0IG1zJnF1b3Q7LCB2ZXJkYW5hLCBhcmlhbDsgZm9udC1zaXplOiAxNnB4OyBmb250LXdlaWdodDogNDAwOyIgZHk9IjFlbSIgY2xhc3M9Im1lc3NhZ2VUZXh0IiBhbGlnbm1lbnQtYmFzZWxpbmU9Im1pZGRsZSIgZG9taW5hbnQtYmFzZWxpbmU9Im1pZGRsZSIgdGV4dC1hbmNob3I9Im1pZGRsZSIgeT0iMTI4IiB4PSI2NTMiPnJlYWRNZXNzYWdlKG1lc3NhZ2VJZCk6IG1lc3NhZ2U8L3RleHQ+PGxpbmUgc3R5bGU9ImZpbGw6IG5vbmU7IiBtYXJrZXItc3RhcnQ9InVybCgjc2VxdWVuY2VudW1iZXIpIiBtYXJrZXItZW5kPSJ1cmwoI2Fycm93aGVhZCkiIHN0cm9rZT0ibm9uZSIgc3Ryb2tlLXdpZHRoPSIyIiBjbGFzcz0ibWVzc2FnZUxpbmUwIiB5Mj0iMTYxIiB4Mj0iODQ1IiB5MT0iMTYxIiB4MT0iNDYwIj48L2xpbmU+PHRleHQgY2xhc3M9InNlcXVlbmNlTnVtYmVyIiB0ZXh0LWFuY2hvcj0ibWlkZGxlIiBmb250LXNpemU9IjEycHgiIGZvbnQtZmFtaWx5PSJzYW5zLXNlcmlmIiB5PSIxNjUiIHg9IjQ2MCI+MjwvdGV4dD48dGV4dCBzdHlsZT0iZm9udC1mYW1pbHk6ICZxdW90O3RyZWJ1Y2hldCBtcyZxdW90OywgdmVyZGFuYSwgYXJpYWw7IGZvbnQtc2l6ZTogMTZweDsgZm9udC13ZWlnaHQ6IDQwMDsiIGR5PSIxZW0iIGNsYXNzPSJtZXNzYWdlVGV4dCIgYWxpZ25tZW50LWJhc2VsaW5lPSJtaWRkbGUiIGRvbWluYW50LWJhc2VsaW5lPSJtaWRkbGUiIHRleHQtYW5jaG9yPSJtaWRkbGUiIHk9IjE3NiIgeD0iMjY4Ij5yZWFkQXR0YWNobWVudChtZXNzYWdlSWQsIGF0dGFjaG1lbnRJZCk6PC90ZXh0Pjx0ZXh0IHN0eWxlPSJmb250LWZhbWlseTogJnF1b3Q7dHJlYnVjaGV0IG1zJnF1b3Q7LCB2ZXJkYW5hLCBhcmlhbDsgZm9udC1zaXplOiAxNnB4OyBmb250LXdlaWdodDogNDAwOyIgZHk9IjFlbSIgY2xhc3M9Im1lc3NhZ2VUZXh0IiBhbGlnbm1lbnQtYmFzZWxpbmU9Im1pZGRsZSIgZG9taW5hbnQtYmFzZWxpbmU9Im1pZGRsZSIgdGV4dC1hbmNob3I9Im1pZGRsZSIgeT0iMTk0IiB4PSIyNjgiPiBhdHRhY2htZW50PC90ZXh0PjxsaW5lIHN0eWxlPSJmaWxsOiBub25lOyIgbWFya2VyLXN0YXJ0PSJ1cmwoI3NlcXVlbmNlbnVtYmVyKSIgbWFya2VyLWVuZD0idXJsKCNhcnJvd2hlYWQpIiBzdHJva2U9Im5vbmUiIHN0cm9rZS13aWR0aD0iMiIgY2xhc3M9Im1lc3NhZ2VMaW5lMCIgeTI9IjIyNSIgeDI9IjQ2MCIgeTE9IjIyNSIgeDE9Ijc1Ij48L2xpbmU+PHRleHQgY2xhc3M9InNlcXVlbmNlTnVtYmVyIiB0ZXh0LWFuY2hvcj0ibWlkZGxlIiBmb250LXNpemU9IjEycHgiIGZvbnQtZmFtaWx5PSJzYW5zLXNlcmlmIiB5PSIyMjkiIHg9Ijc1Ij4zPC90ZXh0Pjx0ZXh0IHN0eWxlPSJmb250LWZhbWlseTogJnF1b3Q7dHJlYnVjaGV0IG1zJnF1b3Q7LCB2ZXJkYW5hLCBhcmlhbDsgZm9udC1zaXplOiAxNnB4OyBmb250LXdlaWdodDogNDAwOyIgZHk9IjFlbSIgY2xhc3M9Im1lc3NhZ2VUZXh0IiBhbGlnbm1lbnQtYmFzZWxpbmU9Im1pZGRsZSIgZG9taW5hbnQtYmFzZWxpbmU9Im1pZGRsZSIgdGV4dC1hbmNob3I9Im1pZGRsZSIgeT0iMjQwIiB4PSI2NTMiPnJlYWRBdHRhY2htZW50KG1lc3NhZ2VJZCwgYXR0YWNobWVudElkKTo8L3RleHQ+PHRleHQgc3R5bGU9ImZvbnQtZmFtaWx5OiAmcXVvdDt0cmVidWNoZXQgbXMmcXVvdDssIHZlcmRhbmEsIGFyaWFsOyBmb250LXNpemU6IDE2cHg7IGZvbnQtd2VpZ2h0OiA0MDA7IiBkeT0iMWVtIiBjbGFzcz0ibWVzc2FnZVRleHQiIGFsaWdubWVudC1iYXNlbGluZT0ibWlkZGxlIiBkb21pbmFudC1iYXNlbGluZT0ibWlkZGxlIiB0ZXh0LWFuY2hvcj0ibWlkZGxlIiB5PSIyNTgiIHg9IjY1MyI+IGF0dGFjaG1lbnQ8L3RleHQ+PGxpbmUgc3R5bGU9ImZpbGw6IG5vbmU7IiBtYXJrZXItc3RhcnQ9InVybCgjc2VxdWVuY2VudW1iZXIpIiBtYXJrZXItZW5kPSJ1cmwoI2Fycm93aGVhZCkiIHN0cm9rZT0ibm9uZSIgc3Ryb2tlLXdpZHRoPSIyIiBjbGFzcz0ibWVzc2FnZUxpbmUwIiB5Mj0iMjg5IiB4Mj0iODQ1IiB5MT0iMjg5IiB4MT0iNDYwIj48L2xpbmU+PHRleHQgY2xhc3M9InNlcXVlbmNlTnVtYmVyIiB0ZXh0LWFuY2hvcj0ibWlkZGxlIiBmb250LXNpemU9IjEycHgiIGZvbnQtZmFtaWx5PSJzYW5zLXNlcmlmIiB5PSIyOTMiIHg9IjQ2MCI+NDwvdGV4dD48dGV4dCBzdHlsZT0iZm9udC1mYW1pbHk6ICZxdW90O3RyZWJ1Y2hldCBtcyZxdW90OywgdmVyZGFuYSwgYXJpYWw7IGZvbnQtc2l6ZTogMTZweDsgZm9udC13ZWlnaHQ6IDQwMDsiIGR5PSIxZW0iIGNsYXNzPSJtZXNzYWdlVGV4dCIgYWxpZ25tZW50LWJhc2VsaW5lPSJtaWRkbGUiIGRvbWluYW50LWJhc2VsaW5lPSJtaWRkbGUiIHRleHQtYW5jaG9yPSJtaWRkbGUiIHk9IjMwNCIgeD0iMTAxOSI+cmV0cmlldmVBdHRhY2htZW50KG1idW4sIG1lc3NhZ2VJZCwgPC90ZXh0Pjx0ZXh0IHN0eWxlPSJmb250LWZhbWlseTogJnF1b3Q7dHJlYnVjaGV0IG1zJnF1b3Q7LCB2ZXJkYW5hLCBhcmlhbDsgZm9udC1zaXplOiAxNnB4OyBmb250LXdlaWdodDogNDAwOyIgZHk9IjFlbSIgY2xhc3M9Im1lc3NhZ2VUZXh0IiBhbGlnbm1lbnQtYmFzZWxpbmU9Im1pZGRsZSIgZG9taW5hbnQtYmFzZWxpbmU9Im1pZGRsZSIgdGV4dC1hbmNob3I9Im1pZGRsZSIgeT0iMzIyIiB4PSIxMDE5Ij5hdHRhY2htZW50SWQpOiBhdHRhY2htZW50PC90ZXh0PjxsaW5lIHN0eWxlPSJmaWxsOiBub25lOyIgbWFya2VyLXN0YXJ0PSJ1cmwoI3NlcXVlbmNlbnVtYmVyKSIgbWFya2VyLWVuZD0idXJsKCNhcnJvd2hlYWQpIiBzdHJva2U9Im5vbmUiIHN0cm9rZS13aWR0aD0iMiIgY2xhc3M9Im1lc3NhZ2VMaW5lMCIgeTI9IjM1MyIgeDI9IjExOTIiIHkxPSIzNTMiIHgxPSI4NDUiPjwvbGluZT48dGV4dCBjbGFzcz0ic2VxdWVuY2VOdW1iZXIiIHRleHQtYW5jaG9yPSJtaWRkbGUiIGZvbnQtc2l6ZT0iMTJweCIgZm9udC1mYW1pbHk9InNhbnMtc2VyaWYiIHk9IjM1NyIgeD0iODQ1Ij41PC90ZXh0PjxnPjxyZWN0IGNsYXNzPSJhY3RvciIgcnk9IjMiIHJ4PSIzIiBoZWlnaHQ9IjY1IiB3aWR0aD0iMTUwIiBzdHJva2U9IiM2NjYiIGZpbGw9IiNlYWVhZWEiIHk9IjM3MyIgeD0iMCI+PC9yZWN0Pjx0ZXh0IHN0eWxlPSJ0ZXh0LWFuY2hvcjogbWlkZGxlOyBmb250LXNpemU6IDE0cHg7IGZvbnQtd2VpZ2h0OiA0MDA7IGZvbnQtZmFtaWx5OiBPcGVuLVNhbnMsICZxdW90O3NhbnMtc2VyaWYmcXVvdDs7IiBjbGFzcz0iYWN0b3IiIGFsaWdubWVudC1iYXNlbGluZT0iY2VudHJhbCIgZG9taW5hbnQtYmFzZWxpbmU9ImNlbnRyYWwiIHk9IjQwNS41IiB4PSI3NSI+PHRzcGFuIGR5PSIwIiB4PSI3NSI+bXlHb3YgQ3VzdG9tZXI8L3RzcGFuPjwvdGV4dD48L2c+PGc+PHJlY3QgY2xhc3M9ImFjdG9yIiByeT0iMyIgcng9IjMiIGhlaWdodD0iNjUiIHdpZHRoPSIxNTAiIHN0cm9rZT0iIzY2NiIgZmlsbD0iI2VhZWFlYSIgeT0iMzczIiB4PSIzODUiPjwvcmVjdD48dGV4dCBzdHlsZT0idGV4dC1hbmNob3I6IG1pZGRsZTsgZm9udC1zaXplOiAxNHB4OyBmb250LXdlaWdodDogNDAwOyBmb250LWZhbWlseTogT3Blbi1TYW5zLCAmcXVvdDtzYW5zLXNlcmlmJnF1b3Q7OyIgY2xhc3M9ImFjdG9yIiBhbGlnbm1lbnQtYmFzZWxpbmU9ImNlbnRyYWwiIGRvbWluYW50LWJhc2VsaW5lPSJjZW50cmFsIiB5PSI0MDUuNSIgeD0iNDYwIj48dHNwYW4gZHk9IjAiIHg9IjQ2MCI+SW5ib3ggUG9ydGFsPC90c3Bhbj48L3RleHQ+PC9nPjxnPjxyZWN0IGNsYXNzPSJhY3RvciIgcnk9IjMiIHJ4PSIzIiBoZWlnaHQ9IjY1IiB3aWR0aD0iMTY3IiBzdHJva2U9IiM2NjYiIGZpbGw9IiNlYWVhZWEiIHk9IjM3MyIgeD0iNzYxLjUiPjwvcmVjdD48dGV4dCBzdHlsZT0idGV4dC1hbmNob3I6IG1pZGRsZTsgZm9udC1zaXplOiAxNHB4OyBmb250LXdlaWdodDogNDAwOyBmb250LWZhbWlseTogT3Blbi1TYW5zLCAmcXVvdDtzYW5zLXNlcmlmJnF1b3Q7OyIgY2xhc3M9ImFjdG9yIiBhbGlnbm1lbnQtYmFzZWxpbmU9ImNlbnRyYWwiIGRvbWluYW50LWJhc2VsaW5lPSJjZW50cmFsIiB5PSI0MDUuNSIgeD0iODQ1Ij48dHNwYW4gZHk9IjAiIHg9Ijg0NSI+bXlHb3YgSW5ib3ggQXBwbGljYXRpb248L3RzcGFuPjwvdGV4dD48L2c+PGc+PHJlY3QgY2xhc3M9ImFjdG9yIiByeT0iMyIgcng9IjMiIGhlaWdodD0iNjUiIHdpZHRoPSIxOTgiIHN0cm9rZT0iIzY2NiIgZmlsbD0iI2VhZWFlYSIgeT0iMzczIiB4PSIxMDkzIj48L3JlY3Q+PHRleHQgc3R5bGU9InRleHQtYW5jaG9yOiBtaWRkbGU7IGZvbnQtc2l6ZTogMTRweDsgZm9udC13ZWlnaHQ6IDQwMDsgZm9udC1mYW1pbHk6IE9wZW4tU2FucywgJnF1b3Q7c2Fucy1zZXJpZiZxdW90OzsiIGNsYXNzPSJhY3RvciIgYWxpZ25tZW50LWJhc2VsaW5lPSJjZW50cmFsIiBkb21pbmFudC1iYXNlbGluZT0iY2VudHJhbCIgeT0iNDA1LjUiIHg9IjExOTIiPjx0c3BhbiBkeT0iMCIgeD0iMTE5MiI+UmVseWluZyBQYXJ0eSBBdHRhY2htZW50IFN0b3JlPC90c3Bhbj48L3RleHQ+PC9nPjwvc3ZnPg==;" parent="Sr4nyESnENaQ82weLLqm-1" vertex="1">
                        <mxGeometry x="40" y="-1085" width="689" height="232" as="geometry"/>
                    </mxCell>
                </UserObject>
                <mxCell id="Sr4nyESnENaQ82weLLqm-4" value="Components" parent="Sr4nyESnENaQ82weLLqm-0"/>
            </root>
        </mxGraphModel>
    </diagram>
    <diagram name="02-publishmessage-seq" id="2mNiYjSB96_8ls-yiAys">
        <mxGraphModel dx="853" dy="2017" grid="1" gridSize="10" guides="1" tooltips="1" connect="1" arrows="1" fold="1" page="1" pageScale="1" pageWidth="827" pageHeight="1169" background="#ffffff" math="0" shadow="0">
            <root>
                <mxCell id="WWikm3p9Dk6OQMaylpYj-0"/>
                <mxCell id="WWikm3p9Dk6OQMaylpYj-1" style="" parent="WWikm3p9Dk6OQMaylpYj-0"/>
                <mxCell id="PVa-ZdX7CvC7n8YUhCwX-0" value="&lt;span style=&quot;color: rgb(0, 0, 0);&quot;&gt;Digtial Mailbox - Publish Message&lt;/span&gt;" style="rounded=1;whiteSpace=wrap;html=1;fillColor=#e6e6e6;verticalAlign=top;fontSize=20;fontStyle=1" vertex="1" parent="WWikm3p9Dk6OQMaylpYj-1">
                    <mxGeometry x="40" y="-1120" width="690" height="260" as="geometry"/>
                </mxCell>
                <UserObject label="" mermaidData="{&#10;  &quot;data&quot;: &quot;%%{init: {'theme': 'forest', 'themeVariables': { 'primaryColor': '#ffcccc', 'edgeLabelBackground':'#ffffee', 'tertiaryColor': '#fff0f0'}}}%%\nsequenceDiagram\nautonumber\n        participant MGV_RP as Relying Parties\n        participant MGV_IB_API as myGov Inbox API\n        participant MGV_IB_APP as myGov Inbox APP\n        MGV_RP -&gt;&gt; MGV_IB_API : publishMessage(mbun, msg): status\n        MGV_IB_API -&gt;&gt; MGV_IB_APP : publishMessage(mygovId, msg): status&quot;,&#10;  &quot;config&quot;: {&#10;    &quot;startOnLoad&quot;: false,&#10;    &quot;themeCSS&quot;: &quot;&quot;,&#10;    &quot;theme&quot;: &quot;neutral&quot;,&#10;    &quot;arrowMarkerAbsolute&quot;: false,&#10;    &quot;flowchart&quot;: {&#10;      &quot;diagramPadding&quot;: 8,&#10;      &quot;htmlLabels&quot;: false,&#10;      &quot;nodeSpacing&quot;: 50,&#10;      &quot;rankSpacing&quot;: 50,&#10;      &quot;curve&quot;: &quot;linear&quot;,&#10;      &quot;padding&quot;: 15,&#10;      &quot;useMaxWidth&quot;: true&#10;    },&#10;    &quot;sequence&quot;: {&#10;      &quot;activationWidth&quot;: 10,&#10;      &quot;diagramMarginX&quot;: 50,&#10;      &quot;diagramMarginY&quot;: 10,&#10;      &quot;actorMargin&quot;: 50,&#10;      &quot;width&quot;: 150,&#10;      &quot;height&quot;: 65,&#10;      &quot;boxMargin&quot;: 10,&#10;      &quot;boxTextMargin&quot;: 5,&#10;      &quot;noteMargin&quot;: 10,&#10;      &quot;messageMargin&quot;: 35,&#10;      &quot;messageAlign&quot;: &quot;center&quot;,&#10;      &quot;mirrorActors&quot;: true,&#10;      &quot;bottomMarginAdj&quot;: 1,&#10;      &quot;useMaxWidth&quot;: true,&#10;      &quot;rightAngles&quot;: false,&#10;      &quot;showSequenceNumbers&quot;: false,&#10;      &quot;actorFontSize&quot;: 14,&#10;      &quot;actorFontFamily&quot;: &quot;\&quot;Open-Sans\&quot;, \&quot;sans-serif\&quot;&quot;,&#10;      &quot;actorFontWeight&quot;: 400,&#10;      &quot;noteFontSize&quot;: 14,&#10;      &quot;noteFontFamily&quot;: &quot;\&quot;trebuchet ms\&quot;, verdana, arial&quot;,&#10;      &quot;noteFontWeight&quot;: 400,&#10;      &quot;noteAlign&quot;: &quot;center&quot;,&#10;      &quot;messageFontSize&quot;: 16,&#10;      &quot;messageFontFamily&quot;: &quot;\&quot;trebuchet ms\&quot;, verdana, arial&quot;,&#10;      &quot;messageFontWeight&quot;: 400,&#10;      &quot;wrap&quot;: false,&#10;      &quot;wrapPadding&quot;: 10,&#10;      &quot;labelBoxWidth&quot;: 50,&#10;      &quot;labelBoxHeight&quot;: 20&#10;    },&#10;    &quot;gantt&quot;: {&#10;      &quot;titleTopMargin&quot;: 25,&#10;      &quot;barHeight&quot;: 20,&#10;      &quot;barGap&quot;: 4,&#10;      &quot;topPadding&quot;: 50,&#10;      &quot;leftPadding&quot;: 75,&#10;      &quot;gridLineStartPadding&quot;: 35,&#10;      &quot;fontSize&quot;: 11,&#10;      &quot;fontFamily&quot;: &quot;\&quot;Open-Sans\&quot;, \&quot;sans-serif\&quot;&quot;,&#10;      &quot;numberSectionStyles&quot;: 4,&#10;      &quot;axisFormat&quot;: &quot;%Y-%m-%d&quot;,&#10;      &quot;useMaxWidth&quot;: true&#10;    },&#10;    &quot;journey&quot;: {&#10;      &quot;diagramMarginX&quot;: 50,&#10;      &quot;diagramMarginY&quot;: 10,&#10;      &quot;actorMargin&quot;: 50,&#10;      &quot;width&quot;: 150,&#10;      &quot;height&quot;: 65,&#10;      &quot;boxMargin&quot;: 10,&#10;      &quot;boxTextMargin&quot;: 5,&#10;      &quot;noteMargin&quot;: 10,&#10;      &quot;messageMargin&quot;: 35,&#10;      &quot;messageAlign&quot;: &quot;center&quot;,&#10;      &quot;bottomMarginAdj&quot;: 1,&#10;      &quot;useMaxWidth&quot;: true,&#10;      &quot;rightAngles&quot;: false&#10;    },&#10;    &quot;class&quot;: {&#10;      &quot;arrowMarkerAbsolute&quot;: false,&#10;      &quot;useMaxWidth&quot;: true&#10;    },&#10;    &quot;git&quot;: {&#10;      &quot;arrowMarkerAbsolute&quot;: false,&#10;      &quot;useMaxWidth&quot;: true&#10;    },&#10;    &quot;state&quot;: {&#10;      &quot;dividerMargin&quot;: 10,&#10;      &quot;sizeUnit&quot;: 5,&#10;      &quot;padding&quot;: 8,&#10;      &quot;textHeight&quot;: 10,&#10;      &quot;titleShift&quot;: -15,&#10;      &quot;noteMargin&quot;: 10,&#10;      &quot;forkWidth&quot;: 70,&#10;      &quot;forkHeight&quot;: 7,&#10;      &quot;miniPadding&quot;: 2,&#10;      &quot;fontSizeFactor&quot;: 5.02,&#10;      &quot;fontSize&quot;: 24,&#10;      &quot;labelHeight&quot;: 16,&#10;      &quot;edgeLengthFactor&quot;: &quot;20&quot;,&#10;      &quot;compositTitleSize&quot;: 35,&#10;      &quot;radius&quot;: 5&#10;    },&#10;    &quot;er&quot;: {&#10;      &quot;diagramPadding&quot;: 20,&#10;      &quot;layoutDirection&quot;: &quot;TB&quot;,&#10;      &quot;minEntityWidth&quot;: 100,&#10;      &quot;minEntityHeight&quot;: 75,&#10;      &quot;entityPadding&quot;: 15,&#10;      &quot;stroke&quot;: &quot;grey&quot;,&#10;      &quot;fill&quot;: &quot;honeydew&quot;,&#10;      &quot;fontSize&quot;: 12,&#10;      &quot;useMaxWidth&quot;: true&#10;    },&#10;    &quot;pie&quot;: {&#10;      &quot;useMaxWidth&quot;: true&#10;    }&#10;  }&#10;}" id="5TrvWVB_XYz0cHUc_dph-0">
                    <mxCell style="shape=image;noLabel=1;verticalAlign=top;imageAspect=1;image=data:image/svg+xml,PHN2ZyBhcmlhLWxhYmVsbGVkYnk9ImNoYXJ0LXRpdGxlLWdlTWVybWFpZE91dHB1dC0xNzI0ODc2MjUyMDA3IGNoYXJ0LWRlc2MtZ2VNZXJtYWlkT3V0cHV0LTE3MjQ4NzYyNTIwMDciIHJvbGU9ImltZyIgdmlld0JveD0iLTUwIC0xMCA5MjQgMjY3IiBzdHlsZT0ibWF4LXdpZHRoOiA5MjRweDsiIGhlaWdodD0iMjY3IiB4bWxucz0iaHR0cDovL3d3dy53My5vcmcvMjAwMC9zdmciIHdpZHRoPSIxMDAlIiBpZD0iZ2VNZXJtYWlkT3V0cHV0LTE3MjQ4NzYyNTIwMDciPjx0aXRsZSBpZD0iY2hhcnQtdGl0bGUtZ2VNZXJtYWlkT3V0cHV0LTE3MjQ4NzYyNTIwMDciPjwvdGl0bGU+PGRlc2MgaWQ9ImNoYXJ0LWRlc2MtZ2VNZXJtYWlkT3V0cHV0LTE3MjQ4NzYyNTIwMDciPjwvZGVzYz48c3R5bGU+I2dlTWVybWFpZE91dHB1dC0xNzI0ODc2MjUyMDA3IHtmb250LWZhbWlseToidHJlYnVjaGV0IG1zIix2ZXJkYW5hLGFyaWFsLHNhbnMtc2VyaWY7Zm9udC1zaXplOjE2cHg7ZmlsbDojMDAwMDAwO30jZ2VNZXJtYWlkT3V0cHV0LTE3MjQ4NzYyNTIwMDcgLmVycm9yLWljb257ZmlsbDojNTUyMjIyO30jZ2VNZXJtYWlkT3V0cHV0LTE3MjQ4NzYyNTIwMDcgLmVycm9yLXRleHR7ZmlsbDojNTUyMjIyO3N0cm9rZTojNTUyMjIyO30jZ2VNZXJtYWlkT3V0cHV0LTE3MjQ4NzYyNTIwMDcgLmVkZ2UtdGhpY2tuZXNzLW5vcm1hbHtzdHJva2Utd2lkdGg6MnB4O30jZ2VNZXJtYWlkT3V0cHV0LTE3MjQ4NzYyNTIwMDcgLmVkZ2UtdGhpY2tuZXNzLXRoaWNre3N0cm9rZS13aWR0aDozLjVweDt9I2dlTWVybWFpZE91dHB1dC0xNzI0ODc2MjUyMDA3IC5lZGdlLXBhdHRlcm4tc29saWR7c3Ryb2tlLWRhc2hhcnJheTowO30jZ2VNZXJtYWlkT3V0cHV0LTE3MjQ4NzYyNTIwMDcgLmVkZ2UtcGF0dGVybi1kYXNoZWR7c3Ryb2tlLWRhc2hhcnJheTozO30jZ2VNZXJtYWlkT3V0cHV0LTE3MjQ4NzYyNTIwMDcgLmVkZ2UtcGF0dGVybi1kb3R0ZWR7c3Ryb2tlLWRhc2hhcnJheToyO30jZ2VNZXJtYWlkT3V0cHV0LTE3MjQ4NzYyNTIwMDcgLm1hcmtlcntmaWxsOiMwMDAwMDA7c3Ryb2tlOiMwMDAwMDA7fSNnZU1lcm1haWRPdXRwdXQtMTcyNDg3NjI1MjAwNyAubWFya2VyLmNyb3Nze3N0cm9rZTojMDAwMDAwO30jZ2VNZXJtYWlkT3V0cHV0LTE3MjQ4NzYyNTIwMDcgc3Zne2ZvbnQtZmFtaWx5OiJ0cmVidWNoZXQgbXMiLHZlcmRhbmEsYXJpYWwsc2Fucy1zZXJpZjtmb250LXNpemU6MTZweDt9I2dlTWVybWFpZE91dHB1dC0xNzI0ODc2MjUyMDA3IC5hY3RvcntzdHJva2U6aHNsKDc4LjE1Nzg5NDczNjgsIDU4LjQ2MTUzODQ2MTUlLCA1NC41MDk4MDM5MjE2JSk7ZmlsbDojY2RlNDk4O30jZ2VNZXJtYWlkT3V0cHV0LTE3MjQ4NzYyNTIwMDcgdGV4dC5hY3RvciZndDt0c3BhbntmaWxsOmJsYWNrO3N0cm9rZTpub25lO30jZ2VNZXJtYWlkT3V0cHV0LTE3MjQ4NzYyNTIwMDcgLmFjdG9yLWxpbmV7c3Ryb2tlOmdyZXk7fSNnZU1lcm1haWRPdXRwdXQtMTcyNDg3NjI1MjAwNyAubWVzc2FnZUxpbmUwe3N0cm9rZS13aWR0aDoxLjU7c3Ryb2tlLWRhc2hhcnJheTpub25lO3N0cm9rZTojMzMzO30jZ2VNZXJtYWlkT3V0cHV0LTE3MjQ4NzYyNTIwMDcgLm1lc3NhZ2VMaW5lMXtzdHJva2Utd2lkdGg6MS41O3N0cm9rZS1kYXNoYXJyYXk6MiwyO3N0cm9rZTojMzMzO30jZ2VNZXJtYWlkT3V0cHV0LTE3MjQ4NzYyNTIwMDcgI2Fycm93aGVhZCBwYXRoe2ZpbGw6IzMzMztzdHJva2U6IzMzMzt9I2dlTWVybWFpZE91dHB1dC0xNzI0ODc2MjUyMDA3IC5zZXF1ZW5jZU51bWJlcntmaWxsOndoaXRlO30jZ2VNZXJtYWlkT3V0cHV0LTE3MjQ4NzYyNTIwMDcgI3NlcXVlbmNlbnVtYmVye2ZpbGw6IzMzMzt9I2dlTWVybWFpZE91dHB1dC0xNzI0ODc2MjUyMDA3ICNjcm9zc2hlYWQgcGF0aHtmaWxsOiMzMzM7c3Ryb2tlOiMzMzM7fSNnZU1lcm1haWRPdXRwdXQtMTcyNDg3NjI1MjAwNyAubWVzc2FnZVRleHR7ZmlsbDojMzMzO3N0cm9rZTojMzMzO30jZ2VNZXJtYWlkT3V0cHV0LTE3MjQ4NzYyNTIwMDcgLmxhYmVsQm94e3N0cm9rZTojMzI2OTMyO2ZpbGw6I2NkZTQ5ODt9I2dlTWVybWFpZE91dHB1dC0xNzI0ODc2MjUyMDA3IC5sYWJlbFRleHQsI2dlTWVybWFpZE91dHB1dC0xNzI0ODc2MjUyMDA3IC5sYWJlbFRleHQmZ3Q7dHNwYW57ZmlsbDpibGFjaztzdHJva2U6bm9uZTt9I2dlTWVybWFpZE91dHB1dC0xNzI0ODc2MjUyMDA3IC5sb29wVGV4dCwjZ2VNZXJtYWlkT3V0cHV0LTE3MjQ4NzYyNTIwMDcgLmxvb3BUZXh0Jmd0O3RzcGFue2ZpbGw6YmxhY2s7c3Ryb2tlOm5vbmU7fSNnZU1lcm1haWRPdXRwdXQtMTcyNDg3NjI1MjAwNyAubG9vcExpbmV7c3Ryb2tlLXdpZHRoOjJweDtzdHJva2UtZGFzaGFycmF5OjIsMjtzdHJva2U6IzMyNjkzMjtmaWxsOiMzMjY5MzI7fSNnZU1lcm1haWRPdXRwdXQtMTcyNDg3NjI1MjAwNyAubm90ZXtzdHJva2U6IzZlYWE0OTtmaWxsOiNmZmY1YWQ7fSNnZU1lcm1haWRPdXRwdXQtMTcyNDg3NjI1MjAwNyAubm90ZVRleHQsI2dlTWVybWFpZE91dHB1dC0xNzI0ODc2MjUyMDA3IC5ub3RlVGV4dCZndDt0c3BhbntmaWxsOmJsYWNrO3N0cm9rZTpub25lO30jZ2VNZXJtYWlkT3V0cHV0LTE3MjQ4NzYyNTIwMDcgLmFjdGl2YXRpb24we2ZpbGw6I2Y0ZjRmNDtzdHJva2U6IzY2Njt9I2dlTWVybWFpZE91dHB1dC0xNzI0ODc2MjUyMDA3IC5hY3RpdmF0aW9uMXtmaWxsOiNmNGY0ZjQ7c3Ryb2tlOiM2NjY7fSNnZU1lcm1haWRPdXRwdXQtMTcyNDg3NjI1MjAwNyAuYWN0aXZhdGlvbjJ7ZmlsbDojZjRmNGY0O3N0cm9rZTojNjY2O30jZ2VNZXJtYWlkT3V0cHV0LTE3MjQ4NzYyNTIwMDcgLmFjdG9yUG9wdXBNZW51e3Bvc2l0aW9uOmFic29sdXRlO30jZ2VNZXJtYWlkT3V0cHV0LTE3MjQ4NzYyNTIwMDcgLmFjdG9yUG9wdXBNZW51UGFuZWx7cG9zaXRpb246YWJzb2x1dGU7ZmlsbDojY2RlNDk4O2JveC1zaGFkb3c6MHB4IDhweCAxNnB4IDBweCByZ2JhKDAsMCwwLDAuMik7ZmlsdGVyOmRyb3Atc2hhZG93KDNweCA1cHggMnB4IHJnYigwIDAgMCAvIDAuNCkpO30jZ2VNZXJtYWlkT3V0cHV0LTE3MjQ4NzYyNTIwMDcgLmFjdG9yLW1hbiBsaW5le3N0cm9rZTpoc2woNzguMTU3ODk0NzM2OCwgNTguNDYxNTM4NDYxNSUsIDU0LjUwOTgwMzkyMTYlKTtmaWxsOiNjZGU0OTg7fSNnZU1lcm1haWRPdXRwdXQtMTcyNDg3NjI1MjAwNyAuYWN0b3ItbWFuIGNpcmNsZSwjZ2VNZXJtYWlkT3V0cHV0LTE3MjQ4NzYyNTIwMDcgbGluZXtzdHJva2U6aHNsKDc4LjE1Nzg5NDczNjgsIDU4LjQ2MTUzODQ2MTUlLCA1NC41MDk4MDM5MjE2JSk7ZmlsbDojY2RlNDk4O3N0cm9rZS13aWR0aDoycHg7fSNnZU1lcm1haWRPdXRwdXQtMTcyNDg3NjI1MjAwNyA6cm9vdHstLW1lcm1haWQtZm9udC1mYW1pbHk6InRyZWJ1Y2hldCBtcyIsdmVyZGFuYSxhcmlhbCxzYW5zLXNlcmlmO308L3N0eWxlPjxnPjwvZz48ZGVmcz48c3ltYm9sIGhlaWdodD0iMjQiIHdpZHRoPSIyNCIgaWQ9ImNvbXB1dGVyIj48cGF0aCBkPSJNMiAydjEzaDIwdi0xM2gtMjB6bTE4IDExaC0xNnYtOWgxNnY5em0tMTAuMjI4IDZsLjQ2Ni0xaDMuNTI0bC40NjcgMWgtNC40NTd6bTE0LjIyOCAzaC0yNGwyLTZoMi4xMDRsLTEuMzMgNGgxOC40NWwtMS4yOTctNGgyLjA3M2wyIDZ6bS01LTEwaC0xNHYtN2gxNHY3eiIgdHJhbnNmb3JtPSJzY2FsZSguNSkiPjwvcGF0aD48L3N5bWJvbD48L2RlZnM+PGRlZnM+PHN5bWJvbCBjbGlwLXJ1bGU9ImV2ZW5vZGQiIGZpbGwtcnVsZT0iZXZlbm9kZCIgaWQ9ImRhdGFiYXNlIj48cGF0aCBkPSJNMTIuMjU4LjAwMWwuMjU2LjAwNC4yNTUuMDA1LjI1My4wMDguMjUxLjAxLjI0OS4wMTIuMjQ3LjAxNS4yNDYuMDE2LjI0Mi4wMTkuMjQxLjAyLjIzOS4wMjMuMjM2LjAyNC4yMzMuMDI3LjIzMS4wMjguMjI5LjAzMS4yMjUuMDMyLjIyMy4wMzQuMjIuMDM2LjIxNy4wMzguMjE0LjA0LjIxMS4wNDEuMjA4LjA0My4yMDUuMDQ1LjIwMS4wNDYuMTk4LjA0OC4xOTQuMDUuMTkxLjA1MS4xODcuMDUzLjE4My4wNTQuMTguMDU2LjE3NS4wNTcuMTcyLjA1OS4xNjguMDYuMTYzLjA2MS4xNi4wNjMuMTU1LjA2NC4xNS4wNjYuMDc0LjAzMy4wNzMuMDMzLjA3MS4wMzQuMDcuMDM0LjA2OS4wMzUuMDY4LjAzNS4wNjcuMDM1LjA2Ni4wMzUuMDY0LjAzNi4wNjQuMDM2LjA2Mi4wMzYuMDYuMDM2LjA2LjAzNy4wNTguMDM3LjA1OC4wMzcuMDU1LjAzOC4wNTUuMDM4LjA1My4wMzguMDUyLjAzOC4wNTEuMDM5LjA1LjAzOS4wNDguMDM5LjA0Ny4wMzkuMDQ1LjA0LjA0NC4wNC4wNDMuMDQuMDQxLjA0LjA0LjA0MS4wMzkuMDQxLjAzNy4wNDEuMDM2LjA0MS4wMzQuMDQxLjAzMy4wNDIuMDMyLjA0Mi4wMy4wNDIuMDI5LjA0Mi4wMjcuMDQyLjAyNi4wNDMuMDI0LjA0My4wMjMuMDQzLjAyMS4wNDMuMDIuMDQzLjAxOC4wNDQuMDE3LjA0My4wMTUuMDQ0LjAxMy4wNDQuMDEyLjA0NC4wMTEuMDQ1LjAwOS4wNDQuMDA3LjA0NS4wMDYuMDQ1LjAwNC4wNDUuMDAyLjA0NS4wMDEuMDQ1djE3bC0uMDAxLjA0NS0uMDAyLjA0NS0uMDA0LjA0NS0uMDA2LjA0NS0uMDA3LjA0NS0uMDA5LjA0NC0uMDExLjA0NS0uMDEyLjA0NC0uMDEzLjA0NC0uMDE1LjA0NC0uMDE3LjA0My0uMDE4LjA0NC0uMDIuMDQzLS4wMjEuMDQzLS4wMjMuMDQzLS4wMjQuMDQzLS4wMjYuMDQzLS4wMjcuMDQyLS4wMjkuMDQyLS4wMy4wNDItLjAzMi4wNDItLjAzMy4wNDItLjAzNC4wNDEtLjAzNi4wNDEtLjAzNy4wNDEtLjAzOS4wNDEtLjA0LjA0MS0uMDQxLjA0LS4wNDMuMDQtLjA0NC4wNC0uMDQ1LjA0LS4wNDcuMDM5LS4wNDguMDM5LS4wNS4wMzktLjA1MS4wMzktLjA1Mi4wMzgtLjA1My4wMzgtLjA1NS4wMzgtLjA1NS4wMzgtLjA1OC4wMzctLjA1OC4wMzctLjA2LjAzNy0uMDYuMDM2LS4wNjIuMDM2LS4wNjQuMDM2LS4wNjQuMDM2LS4wNjYuMDM1LS4wNjcuMDM1LS4wNjguMDM1LS4wNjkuMDM1LS4wNy4wMzQtLjA3MS4wMzQtLjA3My4wMzMtLjA3NC4wMzMtLjE1LjA2Ni0uMTU1LjA2NC0uMTYuMDYzLS4xNjMuMDYxLS4xNjguMDYtLjE3Mi4wNTktLjE3NS4wNTctLjE4LjA1Ni0uMTgzLjA1NC0uMTg3LjA1My0uMTkxLjA1MS0uMTk0LjA1LS4xOTguMDQ4LS4yMDEuMDQ2LS4yMDUuMDQ1LS4yMDguMDQzLS4yMTEuMDQxLS4yMTQuMDQtLjIxNy4wMzgtLjIyLjAzNi0uMjIzLjAzNC0uMjI1LjAzMi0uMjI5LjAzMS0uMjMxLjAyOC0uMjMzLjAyNy0uMjM2LjAyNC0uMjM5LjAyMy0uMjQxLjAyLS4yNDIuMDE5LS4yNDYuMDE2LS4yNDcuMDE1LS4yNDkuMDEyLS4yNTEuMDEtLjI1My4wMDgtLjI1NS4wMDUtLjI1Ni4wMDQtLjI1OC4wMDEtLjI1OC0uMDAxLS4yNTYtLjAwNC0uMjU1LS4wMDUtLjI1My0uMDA4LS4yNTEtLjAxLS4yNDktLjAxMi0uMjQ3LS4wMTUtLjI0NS0uMDE2LS4yNDMtLjAxOS0uMjQxLS4wMi0uMjM4LS4wMjMtLjIzNi0uMDI0LS4yMzQtLjAyNy0uMjMxLS4wMjgtLjIyOC0uMDMxLS4yMjYtLjAzMi0uMjIzLS4wMzQtLjIyLS4wMzYtLjIxNy0uMDM4LS4yMTQtLjA0LS4yMTEtLjA0MS0uMjA4LS4wNDMtLjIwNC0uMDQ1LS4yMDEtLjA0Ni0uMTk4LS4wNDgtLjE5NS0uMDUtLjE5LS4wNTEtLjE4Ny0uMDUzLS4xODQtLjA1NC0uMTc5LS4wNTYtLjE3Ni0uMDU3LS4xNzItLjA1OS0uMTY3LS4wNi0uMTY0LS4wNjEtLjE1OS0uMDYzLS4xNTUtLjA2NC0uMTUxLS4wNjYtLjA3NC0uMDMzLS4wNzItLjAzMy0uMDcyLS4wMzQtLjA3LS4wMzQtLjA2OS0uMDM1LS4wNjgtLjAzNS0uMDY3LS4wMzUtLjA2Ni0uMDM1LS4wNjQtLjAzNi0uMDYzLS4wMzYtLjA2Mi0uMDM2LS4wNjEtLjAzNi0uMDYtLjAzNy0uMDU4LS4wMzctLjA1Ny0uMDM3LS4wNTYtLjAzOC0uMDU1LS4wMzgtLjA1My0uMDM4LS4wNTItLjAzOC0uMDUxLS4wMzktLjA0OS0uMDM5LS4wNDktLjAzOS0uMDQ2LS4wMzktLjA0Ni0uMDQtLjA0NC0uMDQtLjA0My0uMDQtLjA0MS0uMDQtLjA0LS4wNDEtLjAzOS0uMDQxLS4wMzctLjA0MS0uMDM2LS4wNDEtLjAzNC0uMDQxLS4wMzMtLjA0Mi0uMDMyLS4wNDItLjAzLS4wNDItLjAyOS0uMDQyLS4wMjctLjA0Mi0uMDI2LS4wNDMtLjAyNC0uMDQzLS4wMjMtLjA0My0uMDIxLS4wNDMtLjAyLS4wNDMtLjAxOC0uMDQ0LS4wMTctLjA0My0uMDE1LS4wNDQtLjAxMy0uMDQ0LS4wMTItLjA0NC0uMDExLS4wNDUtLjAwOS0uMDQ0LS4wMDctLjA0NS0uMDA2LS4wNDUtLjAwNC0uMDQ1LS4wMDItLjA0NS0uMDAxLS4wNDV2LTE3bC4wMDEtLjA0NS4wMDItLjA0NS4wMDQtLjA0NS4wMDYtLjA0NS4wMDctLjA0NS4wMDktLjA0NC4wMTEtLjA0NS4wMTItLjA0NC4wMTMtLjA0NC4wMTUtLjA0NC4wMTctLjA0My4wMTgtLjA0NC4wMi0uMDQzLjAyMS0uMDQzLjAyMy0uMDQzLjAyNC0uMDQzLjAyNi0uMDQzLjAyNy0uMDQyLjAyOS0uMDQyLjAzLS4wNDIuMDMyLS4wNDIuMDMzLS4wNDIuMDM0LS4wNDEuMDM2LS4wNDEuMDM3LS4wNDEuMDM5LS4wNDEuMDQtLjA0MS4wNDEtLjA0LjA0My0uMDQuMDQ0LS4wNC4wNDYtLjA0LjA0Ni0uMDM5LjA0OS0uMDM5LjA0OS0uMDM5LjA1MS0uMDM5LjA1Mi0uMDM4LjA1My0uMDM4LjA1NS0uMDM4LjA1Ni0uMDM4LjA1Ny0uMDM3LjA1OC0uMDM3LjA2LS4wMzcuMDYxLS4wMzYuMDYyLS4wMzYuMDYzLS4wMzYuMDY0LS4wMzYuMDY2LS4wMzUuMDY3LS4wMzUuMDY4LS4wMzUuMDY5LS4wMzUuMDctLjAzNC4wNzItLjAzNC4wNzItLjAzMy4wNzQtLjAzMy4xNTEtLjA2Ni4xNTUtLjA2NC4xNTktLjA2My4xNjQtLjA2MS4xNjctLjA2LjE3Mi0uMDU5LjE3Ni0uMDU3LjE3OS0uMDU2LjE4NC0uMDU0LjE4Ny0uMDUzLjE5LS4wNTEuMTk1LS4wNS4xOTgtLjA0OC4yMDEtLjA0Ni4yMDQtLjA0NS4yMDgtLjA0My4yMTEtLjA0MS4yMTQtLjA0LjIxNy0uMDM4LjIyLS4wMzYuMjIzLS4wMzQuMjI2LS4wMzIuMjI4LS4wMzEuMjMxLS4wMjguMjM0LS4wMjcuMjM2LS4wMjQuMjM4LS4wMjMuMjQxLS4wMi4yNDMtLjAxOS4yNDUtLjAxNi4yNDctLjAxNS4yNDktLjAxMi4yNTEtLjAxLjI1My0uMDA4LjI1NS0uMDA1LjI1Ni0uMDA0LjI1OC0uMDAxLjI1OC4wMDF6bS05LjI1OCAyMC40OTl2LjAxbC4wMDEuMDIxLjAwMy4wMjEuMDA0LjAyMi4wMDUuMDIxLjAwNi4wMjIuMDA3LjAyMi4wMDkuMDIzLjAxLjAyMi4wMTEuMDIzLjAxMi4wMjMuMDEzLjAyMy4wMTUuMDIzLjAxNi4wMjQuMDE3LjAyMy4wMTguMDI0LjAxOS4wMjQuMDIxLjAyNC4wMjIuMDI1LjAyMy4wMjQuMDI0LjAyNS4wNTIuMDQ5LjA1Ni4wNS4wNjEuMDUxLjA2Ni4wNTEuMDcuMDUxLjA3NS4wNTEuMDc5LjA1Mi4wODQuMDUyLjA4OC4wNTIuMDkyLjA1Mi4wOTcuMDUyLjEwMi4wNTEuMTA1LjA1Mi4xMS4wNTIuMTE0LjA1MS4xMTkuMDUxLjEyMy4wNTEuMTI3LjA1LjEzMS4wNS4xMzUuMDUuMTM5LjA0OC4xNDQuMDQ5LjE0Ny4wNDcuMTUyLjA0Ny4xNTUuMDQ3LjE2LjA0NS4xNjMuMDQ1LjE2Ny4wNDMuMTcxLjA0My4xNzYuMDQxLjE3OC4wNDEuMTgzLjAzOS4xODcuMDM5LjE5LjAzNy4xOTQuMDM1LjE5Ny4wMzUuMjAyLjAzMy4yMDQuMDMxLjIwOS4wMy4yMTIuMDI5LjIxNi4wMjcuMjE5LjAyNS4yMjIuMDI0LjIyNi4wMjEuMjMuMDIuMjMzLjAxOC4yMzYuMDE2LjI0LjAxNS4yNDMuMDEyLjI0Ni4wMS4yNDkuMDA4LjI1My4wMDUuMjU2LjAwNC4yNTkuMDAxLjI2LS4wMDEuMjU3LS4wMDQuMjU0LS4wMDUuMjUtLjAwOC4yNDctLjAxMS4yNDQtLjAxMi4yNDEtLjAxNC4yMzctLjAxNi4yMzMtLjAxOC4yMzEtLjAyMS4yMjYtLjAyMS4yMjQtLjAyNC4yMi0uMDI2LjIxNi0uMDI3LjIxMi0uMDI4LjIxLS4wMzEuMjA1LS4wMzEuMjAyLS4wMzQuMTk4LS4wMzQuMTk0LS4wMzYuMTkxLS4wMzcuMTg3LS4wMzkuMTgzLS4wNC4xNzktLjA0LjE3NS0uMDQyLjE3Mi0uMDQzLjE2OC0uMDQ0LjE2My0uMDQ1LjE2LS4wNDYuMTU1LS4wNDYuMTUyLS4wNDcuMTQ4LS4wNDguMTQzLS4wNDkuMTM5LS4wNDkuMTM2LS4wNS4xMzEtLjA1LjEyNi0uMDUuMTIzLS4wNTEuMTE4LS4wNTIuMTE0LS4wNTEuMTEtLjA1Mi4xMDYtLjA1Mi4xMDEtLjA1Mi4wOTYtLjA1Mi4wOTItLjA1Mi4wODgtLjA1My4wODMtLjA1MS4wNzktLjA1Mi4wNzQtLjA1Mi4wNy0uMDUxLjA2NS0uMDUxLjA2LS4wNTEuMDU2LS4wNS4wNTEtLjA1LjAyMy0uMDI0LjAyMy0uMDI1LjAyMS0uMDI0LjAyLS4wMjQuMDE5LS4wMjQuMDE4LS4wMjQuMDE3LS4wMjQuMDE1LS4wMjMuMDE0LS4wMjQuMDEzLS4wMjMuMDEyLS4wMjMuMDEtLjAyMy4wMS0uMDIyLjAwOC0uMDIyLjAwNi0uMDIyLjAwNi0uMDIyLjAwNC0uMDIyLjAwNC0uMDIxLjAwMS0uMDIxLjAwMS0uMDIxdi00LjEyN2wtLjA3Ny4wNTUtLjA4LjA1My0uMDgzLjA1NC0uMDg1LjA1My0uMDg3LjA1Mi0uMDkuMDUyLS4wOTMuMDUxLS4wOTUuMDUtLjA5Ny4wNS0uMS4wNDktLjEwMi4wNDktLjEwNS4wNDgtLjEwNi4wNDctLjEwOS4wNDctLjExMS4wNDYtLjExNC4wNDUtLjExNS4wNDUtLjExOC4wNDQtLjEyLjA0My0uMTIyLjA0Mi0uMTI0LjA0Mi0uMTI2LjA0MS0uMTI4LjA0LS4xMy4wNC0uMTMyLjAzOC0uMTM0LjAzOC0uMTM1LjAzNy0uMTM4LjAzNy0uMTM5LjAzNS0uMTQyLjAzNS0uMTQzLjAzNC0uMTQ0LjAzMy0uMTQ3LjAzMi0uMTQ4LjAzMS0uMTUuMDMtLjE1MS4wMy0uMTUzLjAyOS0uMTU0LjAyNy0uMTU2LjAyNy0uMTU4LjAyNi0uMTU5LjAyNS0uMTYxLjAyNC0uMTYyLjAyMy0uMTYzLjAyMi0uMTY1LjAyMS0uMTY2LjAyLS4xNjcuMDE5LS4xNjkuMDE4LS4xNjkuMDE3LS4xNzEuMDE2LS4xNzMuMDE1LS4xNzMuMDE0LS4xNzUuMDEzLS4xNzUuMDEyLS4xNzcuMDExLS4xNzguMDEtLjE3OS4wMDgtLjE3OS4wMDgtLjE4MS4wMDYtLjE4Mi4wMDUtLjE4Mi4wMDQtLjE4NC4wMDMtLjE4NC4wMDJoLS4zN2wtLjE4NC0uMDAyLS4xODQtLjAwMy0uMTgyLS4wMDQtLjE4Mi0uMDA1LS4xODEtLjAwNi0uMTc5LS4wMDgtLjE3OS0uMDA4LS4xNzgtLjAxLS4xNzYtLjAxMS0uMTc2LS4wMTItLjE3NS0uMDEzLS4xNzMtLjAxNC0uMTcyLS4wMTUtLjE3MS0uMDE2LS4xNy0uMDE3LS4xNjktLjAxOC0uMTY3LS4wMTktLjE2Ni0uMDItLjE2NS0uMDIxLS4xNjMtLjAyMi0uMTYyLS4wMjMtLjE2MS0uMDI0LS4xNTktLjAyNS0uMTU3LS4wMjYtLjE1Ni0uMDI3LS4xNTUtLjAyNy0uMTUzLS4wMjktLjE1MS0uMDMtLjE1LS4wMy0uMTQ4LS4wMzEtLjE0Ni0uMDMyLS4xNDUtLjAzMy0uMTQzLS4wMzQtLjE0MS0uMDM1LS4xNC0uMDM1LS4xMzctLjAzNy0uMTM2LS4wMzctLjEzNC0uMDM4LS4xMzItLjAzOC0uMTMtLjA0LS4xMjgtLjA0LS4xMjYtLjA0MS0uMTI0LS4wNDItLjEyMi0uMDQyLS4xMi0uMDQ0LS4xMTctLjA0My0uMTE2LS4wNDUtLjExMy0uMDQ1LS4xMTItLjA0Ni0uMTA5LS4wNDctLjEwNi0uMDQ3LS4xMDUtLjA0OC0uMTAyLS4wNDktLjEtLjA0OS0uMDk3LS4wNS0uMDk1LS4wNS0uMDkzLS4wNTItLjA5LS4wNTEtLjA4Ny0uMDUyLS4wODUtLjA1My0uMDgzLS4wNTQtLjA4LS4wNTQtLjA3Ny0uMDU0djQuMTI3em0wLTUuNjU0di4wMTFsLjAwMS4wMjEuMDAzLjAyMS4wMDQuMDIxLjAwNS4wMjIuMDA2LjAyMi4wMDcuMDIyLjAwOS4wMjIuMDEuMDIyLjAxMS4wMjMuMDEyLjAyMy4wMTMuMDIzLjAxNS4wMjQuMDE2LjAyMy4wMTcuMDI0LjAxOC4wMjQuMDE5LjAyNC4wMjEuMDI0LjAyMi4wMjQuMDIzLjAyNS4wMjQuMDI0LjA1Mi4wNS4wNTYuMDUuMDYxLjA1LjA2Ni4wNTEuMDcuMDUxLjA3NS4wNTIuMDc5LjA1MS4wODQuMDUyLjA4OC4wNTIuMDkyLjA1Mi4wOTcuMDUyLjEwMi4wNTIuMTA1LjA1Mi4xMS4wNTEuMTE0LjA1MS4xMTkuMDUyLjEyMy4wNS4xMjcuMDUxLjEzMS4wNS4xMzUuMDQ5LjEzOS4wNDkuMTQ0LjA0OC4xNDcuMDQ4LjE1Mi4wNDcuMTU1LjA0Ni4xNi4wNDUuMTYzLjA0NS4xNjcuMDQ0LjE3MS4wNDIuMTc2LjA0Mi4xNzguMDQuMTgzLjA0LjE4Ny4wMzguMTkuMDM3LjE5NC4wMzYuMTk3LjAzNC4yMDIuMDMzLjIwNC4wMzIuMjA5LjAzLjIxMi4wMjguMjE2LjAyNy4yMTkuMDI1LjIyMi4wMjQuMjI2LjAyMi4yMy4wMi4yMzMuMDE4LjIzNi4wMTYuMjQuMDE0LjI0My4wMTIuMjQ2LjAxLjI0OS4wMDguMjUzLjAwNi4yNTYuMDAzLjI1OS4wMDEuMjYtLjAwMS4yNTctLjAwMy4yNTQtLjAwNi4yNS0uMDA4LjI0Ny0uMDEuMjQ0LS4wMTIuMjQxLS4wMTUuMjM3LS4wMTYuMjMzLS4wMTguMjMxLS4wMi4yMjYtLjAyMi4yMjQtLjAyNC4yMi0uMDI1LjIxNi0uMDI3LjIxMi0uMDI5LjIxLS4wMy4yMDUtLjAzMi4yMDItLjAzMy4xOTgtLjAzNS4xOTQtLjAzNi4xOTEtLjAzNy4xODctLjAzOS4xODMtLjAzOS4xNzktLjA0MS4xNzUtLjA0Mi4xNzItLjA0My4xNjgtLjA0NC4xNjMtLjA0NS4xNi0uMDQ1LjE1NS0uMDQ3LjE1Mi0uMDQ3LjE0OC0uMDQ4LjE0My0uMDQ4LjEzOS0uMDUuMTM2LS4wNDkuMTMxLS4wNS4xMjYtLjA1MS4xMjMtLjA1MS4xMTgtLjA1MS4xMTQtLjA1Mi4xMS0uMDUyLjEwNi0uMDUyLjEwMS0uMDUyLjA5Ni0uMDUyLjA5Mi0uMDUyLjA4OC0uMDUyLjA4My0uMDUyLjA3OS0uMDUyLjA3NC0uMDUxLjA3LS4wNTIuMDY1LS4wNTEuMDYtLjA1LjA1Ni0uMDUxLjA1MS0uMDQ5LjAyMy0uMDI1LjAyMy0uMDI0LjAyMS0uMDI1LjAyLS4wMjQuMDE5LS4wMjQuMDE4LS4wMjQuMDE3LS4wMjQuMDE1LS4wMjMuMDE0LS4wMjMuMDEzLS4wMjQuMDEyLS4wMjIuMDEtLjAyMy4wMS0uMDIzLjAwOC0uMDIyLjAwNi0uMDIyLjAwNi0uMDIyLjAwNC0uMDIxLjAwNC0uMDIyLjAwMS0uMDIxLjAwMS0uMDIxdi00LjEzOWwtLjA3Ny4wNTQtLjA4LjA1NC0uMDgzLjA1NC0uMDg1LjA1Mi0uMDg3LjA1My0uMDkuMDUxLS4wOTMuMDUxLS4wOTUuMDUxLS4wOTcuMDUtLjEuMDQ5LS4xMDIuMDQ5LS4xMDUuMDQ4LS4xMDYuMDQ3LS4xMDkuMDQ3LS4xMTEuMDQ2LS4xMTQuMDQ1LS4xMTUuMDQ0LS4xMTguMDQ0LS4xMi4wNDQtLjEyMi4wNDItLjEyNC4wNDItLjEyNi4wNDEtLjEyOC4wNC0uMTMuMDM5LS4xMzIuMDM5LS4xMzQuMDM4LS4xMzUuMDM3LS4xMzguMDM2LS4xMzkuMDM2LS4xNDIuMDM1LS4xNDMuMDMzLS4xNDQuMDMzLS4xNDcuMDMzLS4xNDguMDMxLS4xNS4wMy0uMTUxLjAzLS4xNTMuMDI4LS4xNTQuMDI4LS4xNTYuMDI3LS4xNTguMDI2LS4xNTkuMDI1LS4xNjEuMDI0LS4xNjIuMDIzLS4xNjMuMDIyLS4xNjUuMDIxLS4xNjYuMDItLjE2Ny4wMTktLjE2OS4wMTgtLjE2OS4wMTctLjE3MS4wMTYtLjE3My4wMTUtLjE3My4wMTQtLjE3NS4wMTMtLjE3NS4wMTItLjE3Ny4wMTEtLjE3OC4wMDktLjE3OS4wMDktLjE3OS4wMDctLjE4MS4wMDctLjE4Mi4wMDUtLjE4Mi4wMDQtLjE4NC4wMDMtLjE4NC4wMDJoLS4zN2wtLjE4NC0uMDAyLS4xODQtLjAwMy0uMTgyLS4wMDQtLjE4Mi0uMDA1LS4xODEtLjAwNy0uMTc5LS4wMDctLjE3OS0uMDA5LS4xNzgtLjAwOS0uMTc2LS4wMTEtLjE3Ni0uMDEyLS4xNzUtLjAxMy0uMTczLS4wMTQtLjE3Mi0uMDE1LS4xNzEtLjAxNi0uMTctLjAxNy0uMTY5LS4wMTgtLjE2Ny0uMDE5LS4xNjYtLjAyLS4xNjUtLjAyMS0uMTYzLS4wMjItLjE2Mi0uMDIzLS4xNjEtLjAyNC0uMTU5LS4wMjUtLjE1Ny0uMDI2LS4xNTYtLjAyNy0uMTU1LS4wMjgtLjE1My0uMDI4LS4xNTEtLjAzLS4xNS0uMDMtLjE0OC0uMDMxLS4xNDYtLjAzMy0uMTQ1LS4wMzMtLjE0My0uMDMzLS4xNDEtLjAzNS0uMTQtLjAzNi0uMTM3LS4wMzYtLjEzNi0uMDM3LS4xMzQtLjAzOC0uMTMyLS4wMzktLjEzLS4wMzktLjEyOC0uMDQtLjEyNi0uMDQxLS4xMjQtLjA0Mi0uMTIyLS4wNDMtLjEyLS4wNDMtLjExNy0uMDQ0LS4xMTYtLjA0NC0uMTEzLS4wNDYtLjExMi0uMDQ2LS4xMDktLjA0Ni0uMTA2LS4wNDctLjEwNS0uMDQ4LS4xMDItLjA0OS0uMS0uMDQ5LS4wOTctLjA1LS4wOTUtLjA1MS0uMDkzLS4wNTEtLjA5LS4wNTEtLjA4Ny0uMDUzLS4wODUtLjA1Mi0uMDgzLS4wNTQtLjA4LS4wNTQtLjA3Ny0uMDU0djQuMTM5em0wLTUuNjY2di4wMTFsLjAwMS4wMi4wMDMuMDIyLjAwNC4wMjEuMDA1LjAyMi4wMDYuMDIxLjAwNy4wMjIuMDA5LjAyMy4wMS4wMjIuMDExLjAyMy4wMTIuMDIzLjAxMy4wMjMuMDE1LjAyMy4wMTYuMDI0LjAxNy4wMjQuMDE4LjAyMy4wMTkuMDI0LjAyMS4wMjUuMDIyLjAyNC4wMjMuMDI0LjAyNC4wMjUuMDUyLjA1LjA1Ni4wNS4wNjEuMDUuMDY2LjA1MS4wNy4wNTEuMDc1LjA1Mi4wNzkuMDUxLjA4NC4wNTIuMDg4LjA1Mi4wOTIuMDUyLjA5Ny4wNTIuMTAyLjA1Mi4xMDUuMDUxLjExLjA1Mi4xMTQuMDUxLjExOS4wNTEuMTIzLjA1MS4xMjcuMDUuMTMxLjA1LjEzNS4wNS4xMzkuMDQ5LjE0NC4wNDguMTQ3LjA0OC4xNTIuMDQ3LjE1NS4wNDYuMTYuMDQ1LjE2My4wNDUuMTY3LjA0My4xNzEuMDQzLjE3Ni4wNDIuMTc4LjA0LjE4My4wNC4xODcuMDM4LjE5LjAzNy4xOTQuMDM2LjE5Ny4wMzQuMjAyLjAzMy4yMDQuMDMyLjIwOS4wMy4yMTIuMDI4LjIxNi4wMjcuMjE5LjAyNS4yMjIuMDI0LjIyNi4wMjEuMjMuMDIuMjMzLjAxOC4yMzYuMDE3LjI0LjAxNC4yNDMuMDEyLjI0Ni4wMS4yNDkuMDA4LjI1My4wMDYuMjU2LjAwMy4yNTkuMDAxLjI2LS4wMDEuMjU3LS4wMDMuMjU0LS4wMDYuMjUtLjAwOC4yNDctLjAxLjI0NC0uMDEzLjI0MS0uMDE0LjIzNy0uMDE2LjIzMy0uMDE4LjIzMS0uMDIuMjI2LS4wMjIuMjI0LS4wMjQuMjItLjAyNS4yMTYtLjAyNy4yMTItLjAyOS4yMS0uMDMuMjA1LS4wMzIuMjAyLS4wMzMuMTk4LS4wMzUuMTk0LS4wMzYuMTkxLS4wMzcuMTg3LS4wMzkuMTgzLS4wMzkuMTc5LS4wNDEuMTc1LS4wNDIuMTcyLS4wNDMuMTY4LS4wNDQuMTYzLS4wNDUuMTYtLjA0NS4xNTUtLjA0Ny4xNTItLjA0Ny4xNDgtLjA0OC4xNDMtLjA0OS4xMzktLjA0OS4xMzYtLjA0OS4xMzEtLjA1MS4xMjYtLjA1LjEyMy0uMDUxLjExOC0uMDUyLjExNC0uMDUxLjExLS4wNTIuMTA2LS4wNTIuMTAxLS4wNTIuMDk2LS4wNTIuMDkyLS4wNTIuMDg4LS4wNTIuMDgzLS4wNTIuMDc5LS4wNTIuMDc0LS4wNTIuMDctLjA1MS4wNjUtLjA1MS4wNi0uMDUxLjA1Ni0uMDUuMDUxLS4wNDkuMDIzLS4wMjUuMDIzLS4wMjUuMDIxLS4wMjQuMDItLjAyNC4wMTktLjAyNC4wMTgtLjAyNC4wMTctLjAyNC4wMTUtLjAyMy4wMTQtLjAyNC4wMTMtLjAyMy4wMTItLjAyMy4wMS0uMDIyLjAxLS4wMjMuMDA4LS4wMjIuMDA2LS4wMjIuMDA2LS4wMjIuMDA0LS4wMjIuMDA0LS4wMjEuMDAxLS4wMjEuMDAxLS4wMjF2LTQuMTUzbC0uMDc3LjA1NC0uMDguMDU0LS4wODMuMDUzLS4wODUuMDUzLS4wODcuMDUzLS4wOS4wNTEtLjA5My4wNTEtLjA5NS4wNTEtLjA5Ny4wNS0uMS4wNDktLjEwMi4wNDgtLjEwNS4wNDgtLjEwNi4wNDgtLjEwOS4wNDYtLjExMS4wNDYtLjExNC4wNDYtLjExNS4wNDQtLjExOC4wNDQtLjEyLjA0My0uMTIyLjA0My0uMTI0LjA0Mi0uMTI2LjA0MS0uMTI4LjA0LS4xMy4wMzktLjEzMi4wMzktLjEzNC4wMzgtLjEzNS4wMzctLjEzOC4wMzYtLjEzOS4wMzYtLjE0Mi4wMzQtLjE0My4wMzQtLjE0NC4wMzMtLjE0Ny4wMzItLjE0OC4wMzItLjE1LjAzLS4xNTEuMDMtLjE1My4wMjgtLjE1NC4wMjgtLjE1Ni4wMjctLjE1OC4wMjYtLjE1OS4wMjQtLjE2MS4wMjQtLjE2Mi4wMjMtLjE2My4wMjMtLjE2NS4wMjEtLjE2Ni4wMi0uMTY3LjAxOS0uMTY5LjAxOC0uMTY5LjAxNy0uMTcxLjAxNi0uMTczLjAxNS0uMTczLjAxNC0uMTc1LjAxMy0uMTc1LjAxMi0uMTc3LjAxLS4xNzguMDEtLjE3OS4wMDktLjE3OS4wMDctLjE4MS4wMDYtLjE4Mi4wMDYtLjE4Mi4wMDQtLjE4NC4wMDMtLjE4NC4wMDEtLjE4NS4wMDEtLjE4NS0uMDAxLS4xODQtLjAwMS0uMTg0LS4wMDMtLjE4Mi0uMDA0LS4xODItLjAwNi0uMTgxLS4wMDYtLjE3OS0uMDA3LS4xNzktLjAwOS0uMTc4LS4wMS0uMTc2LS4wMS0uMTc2LS4wMTItLjE3NS0uMDEzLS4xNzMtLjAxNC0uMTcyLS4wMTUtLjE3MS0uMDE2LS4xNy0uMDE3LS4xNjktLjAxOC0uMTY3LS4wMTktLjE2Ni0uMDItLjE2NS0uMDIxLS4xNjMtLjAyMy0uMTYyLS4wMjMtLjE2MS0uMDI0LS4xNTktLjAyNC0uMTU3LS4wMjYtLjE1Ni0uMDI3LS4xNTUtLjAyOC0uMTUzLS4wMjgtLjE1MS0uMDMtLjE1LS4wMy0uMTQ4LS4wMzItLjE0Ni0uMDMyLS4xNDUtLjAzMy0uMTQzLS4wMzQtLjE0MS0uMDM0LS4xNC0uMDM2LS4xMzctLjAzNi0uMTM2LS4wMzctLjEzNC0uMDM4LS4xMzItLjAzOS0uMTMtLjAzOS0uMTI4LS4wNDEtLjEyNi0uMDQxLS4xMjQtLjA0MS0uMTIyLS4wNDMtLjEyLS4wNDMtLjExNy0uMDQ0LS4xMTYtLjA0NC0uMTEzLS4wNDYtLjExMi0uMDQ2LS4xMDktLjA0Ni0uMTA2LS4wNDgtLjEwNS0uMDQ4LS4xMDItLjA0OC0uMS0uMDUtLjA5Ny0uMDQ5LS4wOTUtLjA1MS0uMDkzLS4wNTEtLjA5LS4wNTItLjA4Ny0uMDUyLS4wODUtLjA1My0uMDgzLS4wNTMtLjA4LS4wNTQtLjA3Ny0uMDU0djQuMTUzem04Ljc0LTguMTc5bC0uMjU3LjAwNC0uMjU0LjAwNS0uMjUuMDA4LS4yNDcuMDExLS4yNDQuMDEyLS4yNDEuMDE0LS4yMzcuMDE2LS4yMzMuMDE4LS4yMzEuMDIxLS4yMjYuMDIyLS4yMjQuMDIzLS4yMi4wMjYtLjIxNi4wMjctLjIxMi4wMjgtLjIxLjAzMS0uMjA1LjAzMi0uMjAyLjAzMy0uMTk4LjAzNC0uMTk0LjAzNi0uMTkxLjAzOC0uMTg3LjAzOC0uMTgzLjA0LS4xNzkuMDQxLS4xNzUuMDQyLS4xNzIuMDQzLS4xNjguMDQzLS4xNjMuMDQ1LS4xNi4wNDYtLjE1NS4wNDYtLjE1Mi4wNDgtLjE0OC4wNDgtLjE0My4wNDgtLjEzOS4wNDktLjEzNi4wNS0uMTMxLjA1LS4xMjYuMDUxLS4xMjMuMDUxLS4xMTguMDUxLS4xMTQuMDUyLS4xMS4wNTItLjEwNi4wNTItLjEwMS4wNTItLjA5Ni4wNTItLjA5Mi4wNTItLjA4OC4wNTItLjA4My4wNTItLjA3OS4wNTItLjA3NC4wNTEtLjA3LjA1Mi0uMDY1LjA1MS0uMDYuMDUtLjA1Ni4wNS0uMDUxLjA1LS4wMjMuMDI1LS4wMjMuMDI0LS4wMjEuMDI0LS4wMi4wMjUtLjAxOS4wMjQtLjAxOC4wMjQtLjAxNy4wMjMtLjAxNS4wMjQtLjAxNC4wMjMtLjAxMy4wMjMtLjAxMi4wMjMtLjAxLjAyMy0uMDEuMDIyLS4wMDguMDIyLS4wMDYuMDIzLS4wMDYuMDIxLS4wMDQuMDIyLS4wMDQuMDIxLS4wMDEuMDIxLS4wMDEuMDIxLjAwMS4wMjEuMDAxLjAyMS4wMDQuMDIxLjAwNC4wMjIuMDA2LjAyMS4wMDYuMDIzLjAwOC4wMjIuMDEuMDIyLjAxLjAyMy4wMTIuMDIzLjAxMy4wMjMuMDE0LjAyMy4wMTUuMDI0LjAxNy4wMjMuMDE4LjAyNC4wMTkuMDI0LjAyLjAyNS4wMjEuMDI0LjAyMy4wMjQuMDIzLjAyNS4wNTEuMDUuMDU2LjA1LjA2LjA1LjA2NS4wNTEuMDcuMDUyLjA3NC4wNTEuMDc5LjA1Mi4wODMuMDUyLjA4OC4wNTIuMDkyLjA1Mi4wOTYuMDUyLjEwMS4wNTIuMTA2LjA1Mi4xMS4wNTIuMTE0LjA1Mi4xMTguMDUxLjEyMy4wNTEuMTI2LjA1MS4xMzEuMDUuMTM2LjA1LjEzOS4wNDkuMTQzLjA0OC4xNDguMDQ4LjE1Mi4wNDguMTU1LjA0Ni4xNi4wNDYuMTYzLjA0NS4xNjguMDQzLjE3Mi4wNDMuMTc1LjA0Mi4xNzkuMDQxLjE4My4wNC4xODcuMDM4LjE5MS4wMzguMTk0LjAzNi4xOTguMDM0LjIwMi4wMzMuMjA1LjAzMi4yMS4wMzEuMjEyLjAyOC4yMTYuMDI3LjIyLjAyNi4yMjQuMDIzLjIyNi4wMjIuMjMxLjAyMS4yMzMuMDE4LjIzNy4wMTYuMjQxLjAxNC4yNDQuMDEyLjI0Ny4wMTEuMjUuMDA4LjI1NC4wMDUuMjU3LjAwNC4yNi4wMDEuMjYtLjAwMS4yNTctLjAwNC4yNTQtLjAwNS4yNS0uMDA4LjI0Ny0uMDExLjI0NC0uMDEyLjI0MS0uMDE0LjIzNy0uMDE2LjIzMy0uMDE4LjIzMS0uMDIxLjIyNi0uMDIyLjIyNC0uMDIzLjIyLS4wMjYuMjE2LS4wMjcuMjEyLS4wMjguMjEtLjAzMS4yMDUtLjAzMi4yMDItLjAzMy4xOTgtLjAzNC4xOTQtLjAzNi4xOTEtLjAzOC4xODctLjAzOC4xODMtLjA0LjE3OS0uMDQxLjE3NS0uMDQyLjE3Mi0uMDQzLjE2OC0uMDQzLjE2My0uMDQ1LjE2LS4wNDYuMTU1LS4wNDYuMTUyLS4wNDguMTQ4LS4wNDguMTQzLS4wNDguMTM5LS4wNDkuMTM2LS4wNS4xMzEtLjA1LjEyNi0uMDUxLjEyMy0uMDUxLjExOC0uMDUxLjExNC0uMDUyLjExLS4wNTIuMTA2LS4wNTIuMTAxLS4wNTIuMDk2LS4wNTIuMDkyLS4wNTIuMDg4LS4wNTIuMDgzLS4wNTIuMDc5LS4wNTIuMDc0LS4wNTEuMDctLjA1Mi4wNjUtLjA1MS4wNi0uMDUuMDU2LS4wNS4wNTEtLjA1LjAyMy0uMDI1LjAyMy0uMDI0LjAyMS0uMDI0LjAyLS4wMjUuMDE5LS4wMjQuMDE4LS4wMjQuMDE3LS4wMjMuMDE1LS4wMjQuMDE0LS4wMjMuMDEzLS4wMjMuMDEyLS4wMjMuMDEtLjAyMy4wMS0uMDIyLjAwOC0uMDIyLjAwNi0uMDIzLjAwNi0uMDIxLjAwNC0uMDIyLjAwNC0uMDIxLjAwMS0uMDIxLjAwMS0uMDIxLS4wMDEtLjAyMS0uMDAxLS4wMjEtLjAwNC0uMDIxLS4wMDQtLjAyMi0uMDA2LS4wMjEtLjAwNi0uMDIzLS4wMDgtLjAyMi0uMDEtLjAyMi0uMDEtLjAyMy0uMDEyLS4wMjMtLjAxMy0uMDIzLS4wMTQtLjAyMy0uMDE1LS4wMjQtLjAxNy0uMDIzLS4wMTgtLjAyNC0uMDE5LS4wMjQtLjAyLS4wMjUtLjAyMS0uMDI0LS4wMjMtLjAyNC0uMDIzLS4wMjUtLjA1MS0uMDUtLjA1Ni0uMDUtLjA2LS4wNS0uMDY1LS4wNTEtLjA3LS4wNTItLjA3NC0uMDUxLS4wNzktLjA1Mi0uMDgzLS4wNTItLjA4OC0uMDUyLS4wOTItLjA1Mi0uMDk2LS4wNTItLjEwMS0uMDUyLS4xMDYtLjA1Mi0uMTEtLjA1Mi0uMTE0LS4wNTItLjExOC0uMDUxLS4xMjMtLjA1MS0uMTI2LS4wNTEtLjEzMS0uMDUtLjEzNi0uMDUtLjEzOS0uMDQ5LS4xNDMtLjA0OC0uMTQ4LS4wNDgtLjE1Mi0uMDQ4LS4xNTUtLjA0Ni0uMTYtLjA0Ni0uMTYzLS4wNDUtLjE2OC0uMDQzLS4xNzItLjA0My0uMTc1LS4wNDItLjE3OS0uMDQxLS4xODMtLjA0LS4xODctLjAzOC0uMTkxLS4wMzgtLjE5NC0uMDM2LS4xOTgtLjAzNC0uMjAyLS4wMzMtLjIwNS0uMDMyLS4yMS0uMDMxLS4yMTItLjAyOC0uMjE2LS4wMjctLjIyLS4wMjYtLjIyNC0uMDIzLS4yMjYtLjAyMi0uMjMxLS4wMjEtLjIzMy0uMDE4LS4yMzctLjAxNi0uMjQxLS4wMTQtLjI0NC0uMDEyLS4yNDctLjAxMS0uMjUtLjAwOC0uMjU0LS4wMDUtLjI1Ny0uMDA0LS4yNi0uMDAxLS4yNi4wMDF6IiB0cmFuc2Zvcm09InNjYWxlKC41KSI+PC9wYXRoPjwvc3ltYm9sPjwvZGVmcz48ZGVmcz48c3ltYm9sIGhlaWdodD0iMjQiIHdpZHRoPSIyNCIgaWQ9ImNsb2NrIj48cGF0aCBkPSJNMTIgMmM1LjUxNCAwIDEwIDQuNDg2IDEwIDEwcy00LjQ4NiAxMC0xMCAxMC0xMC00LjQ4Ni0xMC0xMCA0LjQ4Ni0xMCAxMC0xMHptMC0yYy02LjYyNyAwLTEyIDUuMzczLTEyIDEyczUuMzczIDEyIDEyIDEyIDEyLTUuMzczIDEyLTEyLTUuMzczLTEyLTEyLTEyem01Ljg0OCAxMi40NTljLjIwMi4wMzguMjAyLjMzMy4wMDEuMzcyLTEuOTA3LjM2MS02LjA0NSAxLjExMS02LjU0NyAxLjExMS0uNzE5IDAtMS4zMDEtLjU4Mi0xLjMwMS0xLjMwMSAwLS41MTIuNzctNS40NDcgMS4xMjUtNy40NDUuMDM0LS4xOTIuMzEyLS4xODEuMzQzLjAxNGwuOTg1IDYuMjM4IDUuMzk0IDEuMDExeiIgdHJhbnNmb3JtPSJzY2FsZSguNSkiPjwvcGF0aD48L3N5bWJvbD48L2RlZnM+PGc+PGxpbmUgc3Ryb2tlPSIjOTk5IiBzdHJva2Utd2lkdGg9IjAuNXB4IiBjbGFzcz0iMjAwIiB5Mj0iMjAxIiB4Mj0iNzUiIHkxPSI1IiB4MT0iNzUiIGlkPSJhY3RvcjkiPjwvbGluZT48ZyBpZD0icm9vdC05Ij48cmVjdCBjbGFzcz0iYWN0b3IiIHJ5PSIzIiByeD0iMyIgaGVpZ2h0PSI2NSIgd2lkdGg9IjE1MCIgc3Ryb2tlPSIjNjY2IiBmaWxsPSIjZWFlYWVhIiB5PSIwIiB4PSIwIj48L3JlY3Q+PHRleHQgc3R5bGU9InRleHQtYW5jaG9yOiBtaWRkbGU7IGZvbnQtc2l6ZTogMTRweDsgZm9udC13ZWlnaHQ6IDQwMDsgZm9udC1mYW1pbHk6IE9wZW4tU2FucywgJnF1b3Q7c2Fucy1zZXJpZiZxdW90OzsiIGNsYXNzPSJhY3RvciIgYWxpZ25tZW50LWJhc2VsaW5lPSJjZW50cmFsIiBkb21pbmFudC1iYXNlbGluZT0iY2VudHJhbCIgeT0iMzIuNSIgeD0iNzUiPjx0c3BhbiBkeT0iMCIgeD0iNzUiPlJlbHlpbmcgUGFydGllczwvdHNwYW4+PC90ZXh0PjwvZz48L2c+PGc+PGxpbmUgc3Ryb2tlPSIjOTk5IiBzdHJva2Utd2lkdGg9IjAuNXB4IiBjbGFzcz0iMjAwIiB5Mj0iMjAxIiB4Mj0iNDAyIiB5MT0iNSIgeDE9IjQwMiIgaWQ9ImFjdG9yMTAiPjwvbGluZT48ZyBpZD0icm9vdC0xMCI+PHJlY3QgY2xhc3M9ImFjdG9yIiByeT0iMyIgcng9IjMiIGhlaWdodD0iNjUiIHdpZHRoPSIxNTAiIHN0cm9rZT0iIzY2NiIgZmlsbD0iI2VhZWFlYSIgeT0iMCIgeD0iMzI3Ij48L3JlY3Q+PHRleHQgc3R5bGU9InRleHQtYW5jaG9yOiBtaWRkbGU7IGZvbnQtc2l6ZTogMTRweDsgZm9udC13ZWlnaHQ6IDQwMDsgZm9udC1mYW1pbHk6IE9wZW4tU2FucywgJnF1b3Q7c2Fucy1zZXJpZiZxdW90OzsiIGNsYXNzPSJhY3RvciIgYWxpZ25tZW50LWJhc2VsaW5lPSJjZW50cmFsIiBkb21pbmFudC1iYXNlbGluZT0iY2VudHJhbCIgeT0iMzIuNSIgeD0iNDAyIj48dHNwYW4gZHk9IjAiIHg9IjQwMiI+bXlHb3YgSW5ib3ggQVBJPC90c3Bhbj48L3RleHQ+PC9nPjwvZz48Zz48bGluZSBzdHJva2U9IiM5OTkiIHN0cm9rZS13aWR0aD0iMC41cHgiIGNsYXNzPSIyMDAiIHkyPSIyMDEiIHgyPSI3NDkiIHkxPSI1IiB4MT0iNzQ5IiBpZD0iYWN0b3IxMSI+PC9saW5lPjxnIGlkPSJyb290LTExIj48cmVjdCBjbGFzcz0iYWN0b3IiIHJ5PSIzIiByeD0iMyIgaGVpZ2h0PSI2NSIgd2lkdGg9IjE1MCIgc3Ryb2tlPSIjNjY2IiBmaWxsPSIjZWFlYWVhIiB5PSIwIiB4PSI2NzQiPjwvcmVjdD48dGV4dCBzdHlsZT0idGV4dC1hbmNob3I6IG1pZGRsZTsgZm9udC1zaXplOiAxNHB4OyBmb250LXdlaWdodDogNDAwOyBmb250LWZhbWlseTogT3Blbi1TYW5zLCAmcXVvdDtzYW5zLXNlcmlmJnF1b3Q7OyIgY2xhc3M9ImFjdG9yIiBhbGlnbm1lbnQtYmFzZWxpbmU9ImNlbnRyYWwiIGRvbWluYW50LWJhc2VsaW5lPSJjZW50cmFsIiB5PSIzMi41IiB4PSI3NDkiPjx0c3BhbiBkeT0iMCIgeD0iNzQ5Ij5teUdvdiBJbmJveCBBUFA8L3RzcGFuPjwvdGV4dD48L2c+PC9nPjxkZWZzPjxtYXJrZXIgb3JpZW50PSJhdXRvIiBtYXJrZXJIZWlnaHQ9IjEyIiBtYXJrZXJXaWR0aD0iMTIiIG1hcmtlclVuaXRzPSJ1c2VyU3BhY2VPblVzZSIgcmVmWT0iNSIgcmVmWD0iOSIgaWQ9ImFycm93aGVhZCI+PHBhdGggZD0iTSAwIDAgTCAxMCA1IEwgMCAxMCB6Ij48L3BhdGg+PC9tYXJrZXI+PC9kZWZzPjxkZWZzPjxtYXJrZXIgcmVmWT0iNCIgcmVmWD0iMTYiIG9yaWVudD0iYXV0byIgbWFya2VySGVpZ2h0PSI4IiBtYXJrZXJXaWR0aD0iMTUiIGlkPSJjcm9zc2hlYWQiPjxwYXRoIHN0eWxlPSJzdHJva2UtZGFzaGFycmF5OiAwLCAwOyIgZD0iTSA5LDIgViA2IEwxNiw0IFoiIHN0cm9rZS13aWR0aD0iMXB4IiBzdHJva2U9IiMwMDAwMDAiIGZpbGw9ImJsYWNrIj48L3BhdGg+PHBhdGggc3R5bGU9InN0cm9rZS1kYXNoYXJyYXk6IDAsIDA7IiBkPSJNIDAsMSBMIDYsNyBNIDYsMSBMIDAsNyIgc3Ryb2tlLXdpZHRoPSIxcHgiIHN0cm9rZT0iIzAwMDAwMCIgZmlsbD0ibm9uZSI+PC9wYXRoPjwvbWFya2VyPjwvZGVmcz48ZGVmcz48bWFya2VyIG9yaWVudD0iYXV0byIgbWFya2VySGVpZ2h0PSIyOCIgbWFya2VyV2lkdGg9IjIwIiByZWZZPSI3IiByZWZYPSIxOCIgaWQ9ImZpbGxlZC1oZWFkIj48cGF0aCBkPSJNIDE4LDcgTDksMTMgTDE0LDcgTDksMSBaIj48L3BhdGg+PC9tYXJrZXI+PC9kZWZzPjxkZWZzPjxtYXJrZXIgb3JpZW50PSJhdXRvIiBtYXJrZXJIZWlnaHQ9IjQwIiBtYXJrZXJXaWR0aD0iNjAiIHJlZlk9IjE1IiByZWZYPSIxNSIgaWQ9InNlcXVlbmNlbnVtYmVyIj48Y2lyY2xlIHI9IjYiIGN5PSIxNSIgY3g9IjE1Ij48L2NpcmNsZT48L21hcmtlcj48L2RlZnM+PHRleHQgc3R5bGU9ImZvbnQtZmFtaWx5OiAmcXVvdDt0cmVidWNoZXQgbXMmcXVvdDssIHZlcmRhbmEsIGFyaWFsOyBmb250LXNpemU6IDE2cHg7IGZvbnQtd2VpZ2h0OiA0MDA7IiBkeT0iMWVtIiBjbGFzcz0ibWVzc2FnZVRleHQiIGFsaWdubWVudC1iYXNlbGluZT0ibWlkZGxlIiBkb21pbmFudC1iYXNlbGluZT0ibWlkZGxlIiB0ZXh0LWFuY2hvcj0ibWlkZGxlIiB5PSI4MCIgeD0iMjM5Ij5wdWJsaXNoTWVzc2FnZShtYnVuLCBtc2cpOiBzdGF0dXM8L3RleHQ+PGxpbmUgc3R5bGU9ImZpbGw6IG5vbmU7IiBtYXJrZXItc3RhcnQ9InVybCgjc2VxdWVuY2VudW1iZXIpIiBtYXJrZXItZW5kPSJ1cmwoI2Fycm93aGVhZCkiIHN0cm9rZT0ibm9uZSIgc3Ryb2tlLXdpZHRoPSIyIiBjbGFzcz0ibWVzc2FnZUxpbmUwIiB5Mj0iMTEzIiB4Mj0iNDAyIiB5MT0iMTEzIiB4MT0iNzUiPjwvbGluZT48dGV4dCBjbGFzcz0ic2VxdWVuY2VOdW1iZXIiIHRleHQtYW5jaG9yPSJtaWRkbGUiIGZvbnQtc2l6ZT0iMTJweCIgZm9udC1mYW1pbHk9InNhbnMtc2VyaWYiIHk9IjExNyIgeD0iNzUiPjE8L3RleHQ+PHRleHQgc3R5bGU9ImZvbnQtZmFtaWx5OiAmcXVvdDt0cmVidWNoZXQgbXMmcXVvdDssIHZlcmRhbmEsIGFyaWFsOyBmb250LXNpemU6IDE2cHg7IGZvbnQtd2VpZ2h0OiA0MDA7IiBkeT0iMWVtIiBjbGFzcz0ibWVzc2FnZVRleHQiIGFsaWdubWVudC1iYXNlbGluZT0ibWlkZGxlIiBkb21pbmFudC1iYXNlbGluZT0ibWlkZGxlIiB0ZXh0LWFuY2hvcj0ibWlkZGxlIiB5PSIxMjgiIHg9IjU3NiI+cHVibGlzaE1lc3NhZ2UobXlnb3ZJZCwgbXNnKTogc3RhdHVzPC90ZXh0PjxsaW5lIHN0eWxlPSJmaWxsOiBub25lOyIgbWFya2VyLXN0YXJ0PSJ1cmwoI3NlcXVlbmNlbnVtYmVyKSIgbWFya2VyLWVuZD0idXJsKCNhcnJvd2hlYWQpIiBzdHJva2U9Im5vbmUiIHN0cm9rZS13aWR0aD0iMiIgY2xhc3M9Im1lc3NhZ2VMaW5lMCIgeTI9IjE2MSIgeDI9Ijc0OSIgeTE9IjE2MSIgeDE9IjQwMiI+PC9saW5lPjx0ZXh0IGNsYXNzPSJzZXF1ZW5jZU51bWJlciIgdGV4dC1hbmNob3I9Im1pZGRsZSIgZm9udC1zaXplPSIxMnB4IiBmb250LWZhbWlseT0ic2Fucy1zZXJpZiIgeT0iMTY1IiB4PSI0MDIiPjI8L3RleHQ+PGc+PHJlY3QgY2xhc3M9ImFjdG9yIiByeT0iMyIgcng9IjMiIGhlaWdodD0iNjUiIHdpZHRoPSIxNTAiIHN0cm9rZT0iIzY2NiIgZmlsbD0iI2VhZWFlYSIgeT0iMTgxIiB4PSIwIj48L3JlY3Q+PHRleHQgc3R5bGU9InRleHQtYW5jaG9yOiBtaWRkbGU7IGZvbnQtc2l6ZTogMTRweDsgZm9udC13ZWlnaHQ6IDQwMDsgZm9udC1mYW1pbHk6IE9wZW4tU2FucywgJnF1b3Q7c2Fucy1zZXJpZiZxdW90OzsiIGNsYXNzPSJhY3RvciIgYWxpZ25tZW50LWJhc2VsaW5lPSJjZW50cmFsIiBkb21pbmFudC1iYXNlbGluZT0iY2VudHJhbCIgeT0iMjEzLjUiIHg9Ijc1Ij48dHNwYW4gZHk9IjAiIHg9Ijc1Ij5SZWx5aW5nIFBhcnRpZXM8L3RzcGFuPjwvdGV4dD48L2c+PGc+PHJlY3QgY2xhc3M9ImFjdG9yIiByeT0iMyIgcng9IjMiIGhlaWdodD0iNjUiIHdpZHRoPSIxNTAiIHN0cm9rZT0iIzY2NiIgZmlsbD0iI2VhZWFlYSIgeT0iMTgxIiB4PSIzMjciPjwvcmVjdD48dGV4dCBzdHlsZT0idGV4dC1hbmNob3I6IG1pZGRsZTsgZm9udC1zaXplOiAxNHB4OyBmb250LXdlaWdodDogNDAwOyBmb250LWZhbWlseTogT3Blbi1TYW5zLCAmcXVvdDtzYW5zLXNlcmlmJnF1b3Q7OyIgY2xhc3M9ImFjdG9yIiBhbGlnbm1lbnQtYmFzZWxpbmU9ImNlbnRyYWwiIGRvbWluYW50LWJhc2VsaW5lPSJjZW50cmFsIiB5PSIyMTMuNSIgeD0iNDAyIj48dHNwYW4gZHk9IjAiIHg9IjQwMiI+bXlHb3YgSW5ib3ggQVBJPC90c3Bhbj48L3RleHQ+PC9nPjxnPjxyZWN0IGNsYXNzPSJhY3RvciIgcnk9IjMiIHJ4PSIzIiBoZWlnaHQ9IjY1IiB3aWR0aD0iMTUwIiBzdHJva2U9IiM2NjYiIGZpbGw9IiNlYWVhZWEiIHk9IjE4MSIgeD0iNjc0Ij48L3JlY3Q+PHRleHQgc3R5bGU9InRleHQtYW5jaG9yOiBtaWRkbGU7IGZvbnQtc2l6ZTogMTRweDsgZm9udC13ZWlnaHQ6IDQwMDsgZm9udC1mYW1pbHk6IE9wZW4tU2FucywgJnF1b3Q7c2Fucy1zZXJpZiZxdW90OzsiIGNsYXNzPSJhY3RvciIgYWxpZ25tZW50LWJhc2VsaW5lPSJjZW50cmFsIiBkb21pbmFudC1iYXNlbGluZT0iY2VudHJhbCIgeT0iMjEzLjUiIHg9Ijc0OSI+PHRzcGFuIGR5PSIwIiB4PSI3NDkiPm15R292IEluYm94IEFQUDwvdHNwYW4+PC90ZXh0PjwvZz48L3N2Zz4=;" parent="WWikm3p9Dk6OQMaylpYj-1" vertex="1">
                        <mxGeometry x="40" y="-1080" width="690" height="220" as="geometry"/>
                    </mxCell>
                </UserObject>
                <mxCell id="WWikm3p9Dk6OQMaylpYj-4" value="Components" parent="WWikm3p9Dk6OQMaylpYj-0"/>
            </root>
        </mxGraphModel>
    </diagram>
    <diagram id="n6JUznCpkLYIIa2AfjBv" name="01-digitalmail-usecases">
        <mxGraphModel dx="1066" dy="1060" grid="1" gridSize="10" guides="1" tooltips="1" connect="1" arrows="1" fold="1" page="1" pageScale="1" pageWidth="827" pageHeight="1169" background="#ffffff" math="0" shadow="0">
            <root>
                <mxCell id="0"/>
                <mxCell id="1" style="locked=1;" parent="0"/>
                <mxCell id="2" value="Notify Customer Details Change" style="rounded=1;whiteSpace=wrap;html=1;labelPosition=center;verticalLabelPosition=top;align=center;verticalAlign=bottom;fontSize=20;labelBackgroundColor=none;fontColor=#000000;fontStyle=1;fillColor=#E6E6E6;strokeColor=#000000;" parent="1" vertex="1">
                    <mxGeometry x="50" y="50" width="570" height="250" as="geometry"/>
                </mxCell>
                <mxCell id="3" value="Components" style="locked=1;" parent="0"/>
                <mxCell id="4MnuF7OWBN95qTk2liSO-13" value="Relying Parties" style="rounded=1;whiteSpace=wrap;html=1;fontColor=#000000;strokeColor=#000000;strokeWidth=2;fillColor=none;" parent="3" vertex="1">
                    <mxGeometry x="60" y="150" width="120" height="60" as="geometry"/>
                </mxCell>
                <mxCell id="4MnuF7OWBN95qTk2liSO-15" value="" style="whiteSpace=wrap;html=1;aspect=fixed;fontColor=#000000;strokeColor=#000000;strokeWidth=2;fillColor=none;" parent="3" vertex="1">
                    <mxGeometry x="225" y="70" width="220" height="220" as="geometry"/>
                </mxCell>
                <mxCell id="4MnuF7OWBN95qTk2liSO-16" value="publishMessage" style="ellipse;whiteSpace=wrap;html=1;fontColor=#000000;strokeColor=#000000;strokeWidth=2;fillColor=none;" parent="3" vertex="1">
                    <mxGeometry x="266" y="85" width="120" height="50" as="geometry"/>
                </mxCell>
                <mxCell id="4MnuF7OWBN95qTk2liSO-17" value="retrieveAttachment" style="ellipse;whiteSpace=wrap;html=1;fontColor=#000000;strokeColor=#000000;strokeWidth=2;fillColor=none;" parent="3" vertex="1">
                    <mxGeometry x="266" y="152" width="120" height="50" as="geometry"/>
                </mxCell>
                <mxCell id="4MnuF7OWBN95qTk2liSO-18" value="notifyReadReceipt" style="ellipse;whiteSpace=wrap;html=1;fontColor=#000000;strokeColor=#000000;strokeWidth=2;fillColor=none;" parent="3" vertex="1">
                    <mxGeometry x="265" y="217" width="120" height="53" as="geometry"/>
                </mxCell>
                <mxCell id="4MnuF7OWBN95qTk2liSO-14" value="Digtial Mailbox" style="rounded=1;whiteSpace=wrap;html=1;fontColor=#000000;strokeColor=#000000;strokeWidth=2;fillColor=none;" parent="3" vertex="1">
                    <mxGeometry x="490" y="150" width="120" height="60" as="geometry"/>
                </mxCell>
                <mxCell id="4MnuF7OWBN95qTk2liSO-20" style="html=1;entryX=0;entryY=0.5;entryDx=0;entryDy=0;fontColor=#000000;strokeColor=#000000;strokeWidth=2;" parent="3" source="4MnuF7OWBN95qTk2liSO-13" target="4MnuF7OWBN95qTk2liSO-16" edge="1">
                    <mxGeometry relative="1" as="geometry"/>
                </mxCell>
                <mxCell id="4MnuF7OWBN95qTk2liSO-23" value="calls" style="edgeLabel;html=1;align=center;verticalAlign=middle;resizable=0;points=[];fontColor=#000000;labelBackgroundColor=#E6E6E6;" parent="4MnuF7OWBN95qTk2liSO-20" vertex="1" connectable="0">
                    <mxGeometry x="-0.4739" y="4" relative="1" as="geometry">
                        <mxPoint as="offset"/>
                    </mxGeometry>
                </mxCell>
                <mxCell id="4MnuF7OWBN95qTk2liSO-21" style="edgeStyle=none;html=1;fontColor=#000000;strokeColor=#000000;strokeWidth=2;exitX=0;exitY=0.5;exitDx=0;exitDy=0;entryX=1;entryY=0.5;entryDx=0;entryDy=0;" parent="3" source="4MnuF7OWBN95qTk2liSO-17" target="4MnuF7OWBN95qTk2liSO-13" edge="1">
                    <mxGeometry relative="1" as="geometry">
                        <mxPoint x="160" y="70" as="targetPoint"/>
                    </mxGeometry>
                </mxCell>
                <mxCell id="4MnuF7OWBN95qTk2liSO-24" value="uses" style="edgeLabel;html=1;align=center;verticalAlign=middle;resizable=0;points=[];fontColor=#000000;labelBackgroundColor=none;" parent="4MnuF7OWBN95qTk2liSO-21" vertex="1" connectable="0">
                    <mxGeometry x="0.6027" y="-2" relative="1" as="geometry">
                        <mxPoint x="13" y="-7" as="offset"/>
                    </mxGeometry>
                </mxCell>
                <mxCell id="4MnuF7OWBN95qTk2liSO-22" value="provides" style="edgeStyle=none;html=1;entryX=0;entryY=0.5;entryDx=0;entryDy=0;fontColor=#000000;strokeColor=#000000;strokeWidth=2;labelBackgroundColor=#E6E6E6;" parent="3" source="4MnuF7OWBN95qTk2liSO-13" target="4MnuF7OWBN95qTk2liSO-18" edge="1">
                    <mxGeometry relative="1" as="geometry"/>
                </mxCell>
                <mxCell id="4MnuF7OWBN95qTk2liSO-26" style="edgeStyle=none;html=1;labelBackgroundColor=#E6E6E6;fontColor=#000000;strokeColor=#000000;strokeWidth=2;" parent="3" source="4MnuF7OWBN95qTk2liSO-16" target="4MnuF7OWBN95qTk2liSO-14" edge="1">
                    <mxGeometry relative="1" as="geometry"/>
                </mxCell>
                <mxCell id="4MnuF7OWBN95qTk2liSO-29" value="provides" style="edgeLabel;html=1;align=center;verticalAlign=middle;resizable=0;points=[];fontColor=#000000;labelBackgroundColor=#E6E6E6;" parent="4MnuF7OWBN95qTk2liSO-26" vertex="1" connectable="0">
                    <mxGeometry x="0.5931" y="2" relative="1" as="geometry">
                        <mxPoint x="-33" y="-12" as="offset"/>
                    </mxGeometry>
                </mxCell>
                <mxCell id="4MnuF7OWBN95qTk2liSO-27" value="calls" style="edgeStyle=none;html=1;labelBackgroundColor=#E6E6E6;fontColor=#000000;strokeColor=#000000;strokeWidth=2;" parent="3" source="4MnuF7OWBN95qTk2liSO-14" target="4MnuF7OWBN95qTk2liSO-17" edge="1">
                    <mxGeometry relative="1" as="geometry"/>
                </mxCell>
                <mxCell id="4MnuF7OWBN95qTk2liSO-28" value="calls" style="edgeStyle=none;html=1;entryX=1;entryY=0.5;entryDx=0;entryDy=0;labelBackgroundColor=#E6E6E6;fontColor=#000000;strokeColor=#000000;strokeWidth=2;" parent="3" source="4MnuF7OWBN95qTk2liSO-14" target="4MnuF7OWBN95qTk2liSO-18" edge="1">
                    <mxGeometry relative="1" as="geometry"/>
                </mxCell>
            </root>
        </mxGraphModel>
    </diagram>
</mxfile>